<?xml version="1.0" encoding="us-ascii" standalone="no"?><svg xmlns="http://www.w3.org/2000/svg" xmlns:xlink="http://www.w3.org/1999/xlink" contentStyleType="text/css" height="283px" preserveAspectRatio="none" style="width:617px;height:283px;background:#FFFFFF;" version="1.1" viewBox="0 0 617 283" width="617px" zoomAndPan="magnify"><defs/><g><rect fill="#FFFFFF" height="71.6211" style="stroke:#181818;stroke-width:1.0;" width="10" x="369.5" y="112.7988"/><line style="stroke:#181818;stroke-width:0.5;stroke-dasharray:5.0,5.0;" x1="41" x2="41" y1="81.4883" y2="202.4199"/><line style="stroke:#181818;stroke-width:0.5;stroke-dasharray:5.0,5.0;" x1="374.5" x2="374.5" y1="81.4883" y2="202.4199"/><text fill="#000000" font-family="sans-serif" font-size="14" lengthAdjust="spacing" textLength="67" x="5" y="78.5352">Utilizador</text><ellipse cx="41.5" cy="13.5" fill="#E2E2F0" rx="8" ry="8" style="stroke:#181818;stroke-width:0.5;"/><path d="M41.5,21.5 L41.5,48.5 M28.5,29.5 L54.5,29.5 M41.5,48.5 L28.5,63.5 M41.5,48.5 L54.5,63.5 " fill="none" style="stroke:#181818;stroke-width:0.5;"/><text fill="#000000" font-family="sans-serif" font-size="14" lengthAdjust="spacing" textLength="67" x="5" y="214.9551">Utilizador</text><ellipse cx="41.5" cy="226.4082" fill="#E2E2F0" rx="8" ry="8" style="stroke:#181818;stroke-width:0.5;"/><path d="M41.5,234.4082 L41.5,261.4082 M28.5,242.4082 L54.5,242.4082 M41.5,261.4082 L28.5,276.4082 M41.5,261.4082 L54.5,276.4082 " fill="none" style="stroke:#181818;stroke-width:0.5;"/><rect fill="#E2E2F0" height="30.4883" rx="2.5" ry="2.5" style="stroke:#181818;stroke-width:0.5;" width="102" x="323.5" y="50"/><text fill="#000000" font-family="sans-serif" font-size="14" lengthAdjust="spacing" textLength="88" x="330.5" y="70.5352">RobDroneGo</text><rect fill="#E2E2F0" height="30.4883" rx="2.5" ry="2.5" style="stroke:#181818;stroke-width:0.5;" width="102" x="323.5" y="201.4199"/><text fill="#000000" font-family="sans-serif" font-size="14" lengthAdjust="spacing" textLength="88" x="330.5" y="221.9551">RobDroneGo</text><rect fill="#FFFFFF" height="71.6211" style="stroke:#181818;stroke-width:1.0;" width="10" x="369.5" y="112.7988"/><polygon fill="#181818" points="357.5,108.7988,367.5,112.7988,357.5,116.7988,361.5,112.7988" style="stroke:#181818;stroke-width:1.0;"/><line style="stroke:#181818;stroke-width:1.0;" x1="41.5" x2="363.5" y1="112.7988" y2="112.7988"/><text fill="#000000" font-family="sans-serif" font-size="13" lengthAdjust="spacing" textLength="155" x="48.5" y="108.0566">Listar tarefas pendentes;</text><line style="stroke:#181818;stroke-width:1.0;" x1="379.5" x2="421.5" y1="142.1094" y2="142.1094"/><line style="stroke:#181818;stroke-width:1.0;" x1="421.5" x2="421.5" y1="142.1094" y2="155.1094"/><line style="stroke:#181818;stroke-width:1.0;" x1="380.5" x2="421.5" y1="155.1094" y2="155.1094"/><polygon fill="#181818" points="390.5,151.1094,380.5,155.1094,390.5,159.1094,386.5,155.1094" style="stroke:#181818;stroke-width:1.0;"/><text fill="#000000" font-family="sans-serif" font-size="13" lengthAdjust="spacing" textLength="224" x="386.5" y="137.3672">Procura todas as tarefas pendentes;</text><polygon fill="#181818" points="52.5,180.4199,42.5,184.4199,52.5,188.4199,48.5,184.4199" style="stroke:#181818;stroke-width:1.0;"/><line style="stroke:#181818;stroke-width:1.0;stroke-dasharray:2.0,2.0;" x1="46.5" x2="373.5" y1="184.4199" y2="184.4199"/><text fill="#000000" font-family="sans-serif" font-size="13" lengthAdjust="spacing" textLength="304" x="58.5" y="179.6777">Lista de tarefas pendentes/erro ao obter tarefas;</text><!--SRC=[RKxD2i8m3BxtAJvsBzutsKdmua4K7o1h8nIq6LdcmQUtoAoYGa8-mlT7mKHnidH9TugYRYIr5D98sT0SPDYePDvA0vfmJ9FnbPnxy-7xrnijTWMHeYoV2t_a73aRJvsZOEb6njLZkRvVG8kzIfYLO1ABjimVcy_ajVUeucSo8l-ALgmg884CnhLRvo9_Tte0]--></g></svg>