<?xml version="1.0" encoding="us-ascii" standalone="no"?><svg xmlns="http://www.w3.org/2000/svg" xmlns:xlink="http://www.w3.org/1999/xlink" contentStyleType="text/css" height="1231px" preserveAspectRatio="none" style="width:2731px;height:1231px;background:#FFFFFF;" version="1.1" viewBox="0 0 2731 1231" width="2731px" zoomAndPan="magnify"><defs/><g><rect fill="#FFFFFF" height="1028.248" style="stroke:#181818;stroke-width:1.0;" width="10" x="413.5" y="112.7988"/><rect fill="#FFFFFF" height="364.7266" style="stroke:#181818;stroke-width:1.0;" width="10" x="763.5" y="142.1094"/><rect fill="#FFFFFF" height="364.7266" style="stroke:#181818;stroke-width:1.0;" width="10" x="763.5" y="637.0781"/><rect fill="#FFFFFF" height="29.3105" style="stroke:#181818;stroke-width:1.0;" width="10" x="929.5" y="536.1465"/><rect fill="#FFFFFF" height="29.3105" style="stroke:#181818;stroke-width:1.0;" width="10" x="1140" y="1031.1152"/><rect fill="#FFFFFF" height="306.1055" style="stroke:#181818;stroke-width:1.0;" width="10" x="1282" y="171.4199"/><rect fill="#FFFFFF" height="306.1055" style="stroke:#181818;stroke-width:1.0;" width="10" x="1282" y="666.3887"/><rect fill="#FFFFFF" height="247.4844" style="stroke:#181818;stroke-width:1.0;" width="10" x="1536" y="200.7305"/><rect fill="#FFFFFF" height="247.4844" style="stroke:#181818;stroke-width:1.0;" width="10" x="1536" y="695.6992"/><rect fill="#FFFFFF" height="188.8633" style="stroke:#181818;stroke-width:1.0;" width="10" x="1790" y="230.041"/><rect fill="#FFFFFF" height="188.8633" style="stroke:#181818;stroke-width:1.0;" width="10" x="1790" y="725.0098"/><rect fill="#FFFFFF" height="29.3105" style="stroke:#181818;stroke-width:1.0;" width="10" x="2144" y="259.3516"/><rect fill="#FFFFFF" height="29.3105" style="stroke:#181818;stroke-width:1.0;" width="10" x="2315.5" y="754.3203"/><rect fill="#FFFFFF" height="29.3105" style="stroke:#181818;stroke-width:1.0;" width="10" x="2466" y="855.252"/><rect fill="#FFFFFF" height="29.3105" style="stroke:#181818;stroke-width:1.0;" width="10" x="2632.5" y="360.2832"/><line style="stroke:#181818;stroke-width:0.5;stroke-dasharray:5.0,5.0;" x1="41" x2="41" y1="81.4883" y2="1150.0469"/><line style="stroke:#181818;stroke-width:0.5;stroke-dasharray:5.0,5.0;" x1="418.5" x2="418.5" y1="81.4883" y2="1150.0469"/><line style="stroke:#181818;stroke-width:0.5;stroke-dasharray:5.0,5.0;" x1="768" x2="768" y1="81.4883" y2="1150.0469"/><line style="stroke:#181818;stroke-width:0.5;stroke-dasharray:5.0,5.0;" x1="934" x2="934" y1="81.4883" y2="1150.0469"/><line style="stroke:#181818;stroke-width:0.5;stroke-dasharray:5.0,5.0;" x1="1145" x2="1145" y1="81.4883" y2="1150.0469"/><line style="stroke:#181818;stroke-width:0.5;stroke-dasharray:5.0,5.0;" x1="1287" x2="1287" y1="81.4883" y2="1150.0469"/><line style="stroke:#181818;stroke-width:0.5;stroke-dasharray:5.0,5.0;" x1="1541" x2="1541" y1="81.4883" y2="1150.0469"/><line style="stroke:#181818;stroke-width:0.5;stroke-dasharray:5.0,5.0;" x1="1795" x2="1795" y1="81.4883" y2="1150.0469"/><line style="stroke:#181818;stroke-width:0.5;stroke-dasharray:5.0,5.0;" x1="2149" x2="2149" y1="81.4883" y2="1150.0469"/><line style="stroke:#181818;stroke-width:0.5;stroke-dasharray:5.0,5.0;" x1="2320" x2="2320" y1="81.4883" y2="1150.0469"/><line style="stroke:#181818;stroke-width:0.5;stroke-dasharray:5.0,5.0;" x1="2471" x2="2471" y1="81.4883" y2="1150.0469"/><line style="stroke:#181818;stroke-width:0.5;stroke-dasharray:5.0,5.0;" x1="2637" x2="2637" y1="81.4883" y2="1150.0469"/><text fill="#000000" font-family="sans-serif" font-size="14" lengthAdjust="spacing" textLength="67" x="5" y="78.5352">Utilizador</text><ellipse cx="41.5" cy="13.5" fill="#E2E2F0" rx="8" ry="8" style="stroke:#181818;stroke-width:0.5;"/><path d="M41.5,21.5 L41.5,48.5 M28.5,29.5 L54.5,29.5 M41.5,48.5 L28.5,63.5 M41.5,48.5 L54.5,63.5 " fill="none" style="stroke:#181818;stroke-width:0.5;"/><text fill="#000000" font-family="sans-serif" font-size="14" lengthAdjust="spacing" textLength="67" x="5" y="1162.582">Utilizador</text><ellipse cx="41.5" cy="1174.0352" fill="#E2E2F0" rx="8" ry="8" style="stroke:#181818;stroke-width:0.5;"/><path d="M41.5,1182.0352 L41.5,1209.0352 M28.5,1190.0352 L54.5,1190.0352 M41.5,1209.0352 L28.5,1224.0352 M41.5,1209.0352 L54.5,1224.0352 " fill="none" style="stroke:#181818;stroke-width:0.5;"/><rect fill="#E2E2F0" height="30.4883" rx="2.5" ry="2.5" style="stroke:#181818;stroke-width:0.5;" width="206" x="315.5" y="50"/><text fill="#000000" font-family="sans-serif" font-size="14" lengthAdjust="spacing" textLength="192" x="322.5" y="70.5352">PendingTaskListComponent</text><rect fill="#E2E2F0" height="30.4883" rx="2.5" ry="2.5" style="stroke:#181818;stroke-width:0.5;" width="206" x="315.5" y="1149.0469"/><text fill="#000000" font-family="sans-serif" font-size="14" lengthAdjust="spacing" textLength="192" x="322.5" y="1169.582">PendingTaskListComponent</text><rect fill="#E2E2F0" height="30.4883" rx="2.5" ry="2.5" style="stroke:#181818;stroke-width:0.5;" width="93" x="722" y="50"/><text fill="#000000" font-family="sans-serif" font-size="14" lengthAdjust="spacing" textLength="79" x="729" y="70.5352">task.service</text><rect fill="#E2E2F0" height="30.4883" rx="2.5" ry="2.5" style="stroke:#181818;stroke-width:0.5;" width="93" x="722" y="1149.0469"/><text fill="#000000" font-family="sans-serif" font-size="14" lengthAdjust="spacing" textLength="79" x="729" y="1169.582">task.service</text><rect fill="#E2E2F0" height="30.4883" rx="2.5" ry="2.5" style="stroke:#181818;stroke-width:0.5;" width="219" x="825" y="50"/><text fill="#000000" font-family="sans-serif" font-size="14" lengthAdjust="spacing" textLength="205" x="832" y="70.5352">TaskPickupDeliveryViewModel</text><rect fill="#E2E2F0" height="30.4883" rx="2.5" ry="2.5" style="stroke:#181818;stroke-width:0.5;" width="219" x="825" y="1149.0469"/><text fill="#000000" font-family="sans-serif" font-size="14" lengthAdjust="spacing" textLength="205" x="832" y="1169.582">TaskPickupDeliveryViewModel</text><rect fill="#E2E2F0" height="30.4883" rx="2.5" ry="2.5" style="stroke:#181818;stroke-width:0.5;" width="182" x="1054" y="50"/><text fill="#000000" font-family="sans-serif" font-size="14" lengthAdjust="spacing" textLength="168" x="1061" y="70.5352">TaskVigilanceViewModel</text><rect fill="#E2E2F0" height="30.4883" rx="2.5" ry="2.5" style="stroke:#181818;stroke-width:0.5;" width="182" x="1054" y="1149.0469"/><text fill="#000000" font-family="sans-serif" font-size="14" lengthAdjust="spacing" textLength="168" x="1061" y="1169.582">TaskVigilanceViewModel</text><rect fill="#E2E2F0" height="30.4883" rx="2.5" ry="2.5" style="stroke:#181818;stroke-width:0.5;" width="82" x="1246" y="50"/><text fill="#000000" font-family="sans-serif" font-size="14" lengthAdjust="spacing" textLength="68" x="1253" y="70.5352">taskRoute</text><rect fill="#E2E2F0" height="30.4883" rx="2.5" ry="2.5" style="stroke:#181818;stroke-width:0.5;" width="82" x="1246" y="1149.0469"/><text fill="#000000" font-family="sans-serif" font-size="14" lengthAdjust="spacing" textLength="68" x="1253" y="1169.582">taskRoute</text><rect fill="#E2E2F0" height="30.4883" rx="2.5" ry="2.5" style="stroke:#181818;stroke-width:0.5;" width="112" x="1485" y="50"/><text fill="#000000" font-family="sans-serif" font-size="14" lengthAdjust="spacing" textLength="98" x="1492" y="70.5352">taskController</text><rect fill="#E2E2F0" height="30.4883" rx="2.5" ry="2.5" style="stroke:#181818;stroke-width:0.5;" width="112" x="1485" y="1149.0469"/><text fill="#000000" font-family="sans-serif" font-size="14" lengthAdjust="spacing" textLength="98" x="1492" y="1169.582">taskController</text><rect fill="#E2E2F0" height="30.4883" rx="2.5" ry="2.5" style="stroke:#181818;stroke-width:0.5;" width="90" x="1750" y="50"/><text fill="#000000" font-family="sans-serif" font-size="14" lengthAdjust="spacing" textLength="76" x="1757" y="70.5352">taskService</text><rect fill="#E2E2F0" height="30.4883" rx="2.5" ry="2.5" style="stroke:#181818;stroke-width:0.5;" width="90" x="1750" y="1149.0469"/><text fill="#000000" font-family="sans-serif" font-size="14" lengthAdjust="spacing" textLength="76" x="1757" y="1169.582">taskService</text><rect fill="#E2E2F0" height="30.4883" rx="2.5" ry="2.5" style="stroke:#181818;stroke-width:0.5;" width="180" x="2059" y="50"/><text fill="#000000" font-family="sans-serif" font-size="14" lengthAdjust="spacing" textLength="166" x="2066" y="70.5352">TaskPickupDeliveryRepo</text><rect fill="#E2E2F0" height="30.4883" rx="2.5" ry="2.5" style="stroke:#181818;stroke-width:0.5;" width="180" x="2059" y="1149.0469"/><text fill="#000000" font-family="sans-serif" font-size="14" lengthAdjust="spacing" textLength="166" x="2066" y="1169.582">TaskPickupDeliveryRepo</text><rect fill="#E2E2F0" height="30.4883" rx="2.5" ry="2.5" style="stroke:#181818;stroke-width:0.5;" width="143" x="2249" y="50"/><text fill="#000000" font-family="sans-serif" font-size="14" lengthAdjust="spacing" textLength="129" x="2256" y="70.5352">TaskVigilanceRepo</text><rect fill="#E2E2F0" height="30.4883" rx="2.5" ry="2.5" style="stroke:#181818;stroke-width:0.5;" width="143" x="2249" y="1149.0469"/><text fill="#000000" font-family="sans-serif" font-size="14" lengthAdjust="spacing" textLength="129" x="2256" y="1169.582">TaskVigilanceRepo</text><rect fill="#E2E2F0" height="30.4883" rx="2.5" ry="2.5" style="stroke:#181818;stroke-width:0.5;" width="138" x="2402" y="50"/><text fill="#000000" font-family="sans-serif" font-size="14" lengthAdjust="spacing" textLength="124" x="2409" y="70.5352">TaskVigilanceDTO</text><rect fill="#E2E2F0" height="30.4883" rx="2.5" ry="2.5" style="stroke:#181818;stroke-width:0.5;" width="138" x="2402" y="1149.0469"/><text fill="#000000" font-family="sans-serif" font-size="14" lengthAdjust="spacing" textLength="124" x="2409" y="1169.582">TaskVigilanceDTO</text><rect fill="#E2E2F0" height="30.4883" rx="2.5" ry="2.5" style="stroke:#181818;stroke-width:0.5;" width="175" x="2550" y="50"/><text fill="#000000" font-family="sans-serif" font-size="14" lengthAdjust="spacing" textLength="161" x="2557" y="70.5352">TaskPickupDeliveryDTO</text><rect fill="#E2E2F0" height="30.4883" rx="2.5" ry="2.5" style="stroke:#181818;stroke-width:0.5;" width="175" x="2550" y="1149.0469"/><text fill="#000000" font-family="sans-serif" font-size="14" lengthAdjust="spacing" textLength="161" x="2557" y="1169.582">TaskPickupDeliveryDTO</text><rect fill="#FFFFFF" height="1028.248" style="stroke:#181818;stroke-width:1.0;" width="10" x="413.5" y="112.7988"/><rect fill="#FFFFFF" height="364.7266" style="stroke:#181818;stroke-width:1.0;" width="10" x="763.5" y="142.1094"/><rect fill="#FFFFFF" height="364.7266" style="stroke:#181818;stroke-width:1.0;" width="10" x="763.5" y="637.0781"/><rect fill="#FFFFFF" height="29.3105" style="stroke:#181818;stroke-width:1.0;" width="10" x="929.5" y="536.1465"/><rect fill="#FFFFFF" height="29.3105" style="stroke:#181818;stroke-width:1.0;" width="10" x="1140" y="1031.1152"/><rect fill="#FFFFFF" height="306.1055" style="stroke:#181818;stroke-width:1.0;" width="10" x="1282" y="171.4199"/><rect fill="#FFFFFF" height="306.1055" style="stroke:#181818;stroke-width:1.0;" width="10" x="1282" y="666.3887"/><rect fill="#FFFFFF" height="247.4844" style="stroke:#181818;stroke-width:1.0;" width="10" x="1536" y="200.7305"/><rect fill="#FFFFFF" height="247.4844" style="stroke:#181818;stroke-width:1.0;" width="10" x="1536" y="695.6992"/><rect fill="#FFFFFF" height="188.8633" style="stroke:#181818;stroke-width:1.0;" width="10" x="1790" y="230.041"/><rect fill="#FFFFFF" height="188.8633" style="stroke:#181818;stroke-width:1.0;" width="10" x="1790" y="725.0098"/><rect fill="#FFFFFF" height="29.3105" style="stroke:#181818;stroke-width:1.0;" width="10" x="2144" y="259.3516"/><rect fill="#FFFFFF" height="29.3105" style="stroke:#181818;stroke-width:1.0;" width="10" x="2315.5" y="754.3203"/><rect fill="#FFFFFF" height="29.3105" style="stroke:#181818;stroke-width:1.0;" width="10" x="2466" y="855.252"/><rect fill="#FFFFFF" height="29.3105" style="stroke:#181818;stroke-width:1.0;" width="10" x="2632.5" y="360.2832"/><polygon fill="#181818" points="401.5,108.7988,411.5,112.7988,401.5,116.7988,405.5,112.7988" style="stroke:#181818;stroke-width:1.0;"/><line style="stroke:#181818;stroke-width:1.0;" x1="41.5" x2="407.5" y1="112.7988" y2="112.7988"/><text fill="#000000" font-family="sans-serif" font-size="13" lengthAdjust="spacing" textLength="151" x="48.5" y="108.0566">Listar tarefas pendentes</text><polygon fill="#181818" points="751.5,138.1094,761.5,142.1094,751.5,146.1094,755.5,142.1094" style="stroke:#181818;stroke-width:1.0;"/><line style="stroke:#181818;stroke-width:1.0;" x1="423.5" x2="757.5" y1="142.1094" y2="142.1094"/><text fill="#000000" font-family="sans-serif" font-size="13" lengthAdjust="spacing" textLength="225" x="430.5" y="137.3672">getAllPickupDeliveryPendingTasks()</text><polygon fill="#181818" points="1270,167.4199,1280,171.4199,1270,175.4199,1274,171.4199" style="stroke:#181818;stroke-width:1.0;"/><line style="stroke:#181818;stroke-width:1.0;" x1="773.5" x2="1276" y1="171.4199" y2="171.4199"/><text fill="#000000" font-family="sans-serif" font-size="13" lengthAdjust="spacing" textLength="189" x="780.5" y="166.6777">get(api/tasks/pendingPickUp)</text><polygon fill="#181818" points="1524,196.7305,1534,200.7305,1524,204.7305,1528,200.7305" style="stroke:#181818;stroke-width:1.0;"/><line style="stroke:#181818;stroke-width:1.0;" x1="1292" x2="1530" y1="200.7305" y2="200.7305"/><text fill="#000000" font-family="sans-serif" font-size="13" lengthAdjust="spacing" textLength="225" x="1299" y="195.9883">getAllPickupDeliveryPendingTasks()</text><polygon fill="#181818" points="1778,226.041,1788,230.041,1778,234.041,1782,230.041" style="stroke:#181818;stroke-width:1.0;"/><line style="stroke:#181818;stroke-width:1.0;" x1="1546" x2="1784" y1="230.041" y2="230.041"/><text fill="#000000" font-family="sans-serif" font-size="13" lengthAdjust="spacing" textLength="225" x="1553" y="225.2988">getAllPickupDeliveryPendingTasks()</text><polygon fill="#181818" points="2132,255.3516,2142,259.3516,2132,263.3516,2136,259.3516" style="stroke:#181818;stroke-width:1.0;"/><line style="stroke:#181818;stroke-width:1.0;" x1="1800" x2="2138" y1="259.3516" y2="259.3516"/><text fill="#000000" font-family="sans-serif" font-size="13" lengthAdjust="spacing" textLength="50" x="1807" y="254.6094">findAll()</text><polygon fill="#181818" points="1811,284.6621,1801,288.6621,1811,292.6621,1807,288.6621" style="stroke:#181818;stroke-width:1.0;"/><line style="stroke:#181818;stroke-width:1.0;" x1="1805" x2="2148" y1="288.6621" y2="288.6621"/><text fill="#000000" font-family="sans-serif" font-size="13" lengthAdjust="spacing" textLength="52" x="1817" y="283.9199">allTasks</text><line style="stroke:#181818;stroke-width:1.0;" x1="1800" x2="1842" y1="317.9727" y2="317.9727"/><line style="stroke:#181818;stroke-width:1.0;" x1="1842" x2="1842" y1="317.9727" y2="330.9727"/><line style="stroke:#181818;stroke-width:1.0;" x1="1801" x2="1842" y1="330.9727" y2="330.9727"/><polygon fill="#181818" points="1811,326.9727,1801,330.9727,1811,334.9727,1807,330.9727" style="stroke:#181818;stroke-width:1.0;"/><text fill="#000000" font-family="sans-serif" font-size="13" lengthAdjust="spacing" textLength="330" x="1807" y="313.2305">filteredPendingTasks = allTasks.filter(task.pending);</text><polygon fill="#181818" points="2620.5,356.2832,2630.5,360.2832,2620.5,364.2832,2624.5,360.2832" style="stroke:#181818;stroke-width:1.0;"/><line style="stroke:#181818;stroke-width:1.0;" x1="1800" x2="2626.5" y1="360.2832" y2="360.2832"/><text fill="#000000" font-family="sans-serif" font-size="13" lengthAdjust="spacing" textLength="223" x="1807" y="355.541">filteredPendingTasks.toDTO(tasks);</text><polygon fill="#181818" points="1811,385.5938,1801,389.5938,1811,393.5938,1807,389.5938" style="stroke:#181818;stroke-width:1.0;"/><line style="stroke:#181818;stroke-width:1.0;stroke-dasharray:2.0,2.0;" x1="1805" x2="2636.5" y1="389.5938" y2="389.5938"/><text fill="#000000" font-family="sans-serif" font-size="13" lengthAdjust="spacing" textLength="128" x="1817" y="384.8516">pendingTasksDTO[];</text><polygon fill="#181818" points="1557,414.9043,1547,418.9043,1557,422.9043,1553,418.9043" style="stroke:#181818;stroke-width:1.0;"/><line style="stroke:#181818;stroke-width:1.0;stroke-dasharray:2.0,2.0;" x1="1551" x2="1794" y1="418.9043" y2="418.9043"/><text fill="#000000" font-family="sans-serif" font-size="13" lengthAdjust="spacing" textLength="128" x="1563" y="414.1621">pendingTasksDTO[];</text><polygon fill="#181818" points="1303,444.2148,1293,448.2148,1303,452.2148,1299,448.2148" style="stroke:#181818;stroke-width:1.0;"/><line style="stroke:#181818;stroke-width:1.0;stroke-dasharray:2.0,2.0;" x1="1297" x2="1540" y1="448.2148" y2="448.2148"/><text fill="#000000" font-family="sans-serif" font-size="13" lengthAdjust="spacing" textLength="128" x="1309" y="443.4727">pendingTasksDTO[];</text><polygon fill="#181818" points="784.5,473.5254,774.5,477.5254,784.5,481.5254,780.5,477.5254" style="stroke:#181818;stroke-width:1.0;"/><line style="stroke:#181818;stroke-width:1.0;stroke-dasharray:2.0,2.0;" x1="778.5" x2="1286" y1="477.5254" y2="477.5254"/><text fill="#000000" font-family="sans-serif" font-size="13" lengthAdjust="spacing" textLength="128" x="790.5" y="472.7832">pendingTasksDTO[];</text><polygon fill="#181818" points="434.5,502.8359,424.5,506.8359,434.5,510.8359,430.5,506.8359" style="stroke:#181818;stroke-width:1.0;"/><line style="stroke:#181818;stroke-width:1.0;stroke-dasharray:2.0,2.0;" x1="428.5" x2="767.5" y1="506.8359" y2="506.8359"/><text fill="#000000" font-family="sans-serif" font-size="13" lengthAdjust="spacing" textLength="128" x="440.5" y="502.0938">pendingTasksDTO[];</text><polygon fill="#181818" points="917.5,532.1465,927.5,536.1465,917.5,540.1465,921.5,536.1465" style="stroke:#181818;stroke-width:1.0;"/><line style="stroke:#181818;stroke-width:1.0;stroke-dasharray:2.0,2.0;" x1="423.5" x2="923.5" y1="536.1465" y2="536.1465"/><text fill="#000000" font-family="sans-serif" font-size="13" lengthAdjust="spacing" textLength="128" x="430.5" y="531.4043">pendingTasksDTO[];</text><polygon fill="#181818" points="434.5,561.457,424.5,565.457,434.5,569.457,430.5,565.457" style="stroke:#181818;stroke-width:1.0;"/><line style="stroke:#181818;stroke-width:1.0;stroke-dasharray:2.0,2.0;" x1="428.5" x2="933.5" y1="565.457" y2="565.457"/><text fill="#000000" font-family="sans-serif" font-size="13" lengthAdjust="spacing" textLength="159" x="440.5" y="560.7148">pickupTaskViewModels[];</text><line style="stroke:#181818;stroke-width:1.0;" x1="423.5" x2="465.5" y1="594.7676" y2="594.7676"/><line style="stroke:#181818;stroke-width:1.0;" x1="465.5" x2="465.5" y1="594.7676" y2="607.7676"/><line style="stroke:#181818;stroke-width:1.0;" x1="424.5" x2="465.5" y1="607.7676" y2="607.7676"/><polygon fill="#181818" points="434.5,603.7676,424.5,607.7676,434.5,611.7676,430.5,607.7676" style="stroke:#181818;stroke-width:1.0;"/><text fill="#000000" font-family="sans-serif" font-size="13" lengthAdjust="spacing" textLength="313" x="430.5" y="590.0254">updatePendingTaskList(pickupTaskViewModels[]);</text><polygon fill="#181818" points="751.5,633.0781,761.5,637.0781,751.5,641.0781,755.5,637.0781" style="stroke:#181818;stroke-width:1.0;"/><line style="stroke:#181818;stroke-width:1.0;" x1="423.5" x2="757.5" y1="637.0781" y2="637.0781"/><text fill="#000000" font-family="sans-serif" font-size="13" lengthAdjust="spacing" textLength="189" x="430.5" y="632.3359">getAllVigilancePendingTasks()</text><polygon fill="#181818" points="1270,662.3887,1280,666.3887,1270,670.3887,1274,666.3887" style="stroke:#181818;stroke-width:1.0;"/><line style="stroke:#181818;stroke-width:1.0;" x1="773.5" x2="1276" y1="666.3887" y2="666.3887"/><text fill="#000000" font-family="sans-serif" font-size="13" lengthAdjust="spacing" textLength="203" x="780.5" y="661.6465">get(api/tasks/pendingVigilance)</text><polygon fill="#181818" points="1524,691.6992,1534,695.6992,1524,699.6992,1528,695.6992" style="stroke:#181818;stroke-width:1.0;"/><line style="stroke:#181818;stroke-width:1.0;" x1="1292" x2="1530" y1="695.6992" y2="695.6992"/><text fill="#000000" font-family="sans-serif" font-size="13" lengthAdjust="spacing" textLength="189" x="1299" y="690.957">getAllVigilancePendingTasks()</text><polygon fill="#181818" points="1778,721.0098,1788,725.0098,1778,729.0098,1782,725.0098" style="stroke:#181818;stroke-width:1.0;"/><line style="stroke:#181818;stroke-width:1.0;" x1="1546" x2="1784" y1="725.0098" y2="725.0098"/><text fill="#000000" font-family="sans-serif" font-size="13" lengthAdjust="spacing" textLength="189" x="1553" y="720.2676">getAllVigilancePendingTasks()</text><polygon fill="#181818" points="2303.5,750.3203,2313.5,754.3203,2303.5,758.3203,2307.5,754.3203" style="stroke:#181818;stroke-width:1.0;"/><line style="stroke:#181818;stroke-width:1.0;" x1="1800" x2="2309.5" y1="754.3203" y2="754.3203"/><text fill="#000000" font-family="sans-serif" font-size="13" lengthAdjust="spacing" textLength="50" x="1807" y="749.5781">findAll()</text><polygon fill="#181818" points="1811,779.6309,1801,783.6309,1811,787.6309,1807,783.6309" style="stroke:#181818;stroke-width:1.0;"/><line style="stroke:#181818;stroke-width:1.0;" x1="1805" x2="2319.5" y1="783.6309" y2="783.6309"/><text fill="#000000" font-family="sans-serif" font-size="13" lengthAdjust="spacing" textLength="52" x="1817" y="778.8887">allTasks</text><line style="stroke:#181818;stroke-width:1.0;" x1="1800" x2="1842" y1="812.9414" y2="812.9414"/><line style="stroke:#181818;stroke-width:1.0;" x1="1842" x2="1842" y1="812.9414" y2="825.9414"/><line style="stroke:#181818;stroke-width:1.0;" x1="1801" x2="1842" y1="825.9414" y2="825.9414"/><polygon fill="#181818" points="1811,821.9414,1801,825.9414,1811,829.9414,1807,825.9414" style="stroke:#181818;stroke-width:1.0;"/><text fill="#000000" font-family="sans-serif" font-size="13" lengthAdjust="spacing" textLength="330" x="1807" y="808.1992">filteredPendingTasks = allTasks.filter(task.pending);</text><polygon fill="#181818" points="2454,851.252,2464,855.252,2454,859.252,2458,855.252" style="stroke:#181818;stroke-width:1.0;"/><line style="stroke:#181818;stroke-width:1.0;" x1="1800" x2="2460" y1="855.252" y2="855.252"/><text fill="#000000" font-family="sans-serif" font-size="13" lengthAdjust="spacing" textLength="223" x="1807" y="850.5098">filteredPendingTasks.toDTO(tasks);</text><polygon fill="#181818" points="1811,880.5625,1801,884.5625,1811,888.5625,1807,884.5625" style="stroke:#181818;stroke-width:1.0;"/><line style="stroke:#181818;stroke-width:1.0;stroke-dasharray:2.0,2.0;" x1="1805" x2="2470" y1="884.5625" y2="884.5625"/><text fill="#000000" font-family="sans-serif" font-size="13" lengthAdjust="spacing" textLength="128" x="1817" y="879.8203">pendingTasksDTO[];</text><polygon fill="#181818" points="1557,909.873,1547,913.873,1557,917.873,1553,913.873" style="stroke:#181818;stroke-width:1.0;"/><line style="stroke:#181818;stroke-width:1.0;stroke-dasharray:2.0,2.0;" x1="1551" x2="1794" y1="913.873" y2="913.873"/><text fill="#000000" font-family="sans-serif" font-size="13" lengthAdjust="spacing" textLength="128" x="1563" y="909.1309">pendingTasksDTO[];</text><polygon fill="#181818" points="1303,939.1836,1293,943.1836,1303,947.1836,1299,943.1836" style="stroke:#181818;stroke-width:1.0;"/><line style="stroke:#181818;stroke-width:1.0;stroke-dasharray:2.0,2.0;" x1="1297" x2="1540" y1="943.1836" y2="943.1836"/><text fill="#000000" font-family="sans-serif" font-size="13" lengthAdjust="spacing" textLength="128" x="1309" y="938.4414">pendingTasksDTO[];</text><polygon fill="#181818" points="784.5,968.4941,774.5,972.4941,784.5,976.4941,780.5,972.4941" style="stroke:#181818;stroke-width:1.0;"/><line style="stroke:#181818;stroke-width:1.0;stroke-dasharray:2.0,2.0;" x1="778.5" x2="1286" y1="972.4941" y2="972.4941"/><text fill="#000000" font-family="sans-serif" font-size="13" lengthAdjust="spacing" textLength="128" x="790.5" y="967.752">pendingTasksDTO[];</text><polygon fill="#181818" points="434.5,997.8047,424.5,1001.8047,434.5,1005.8047,430.5,1001.8047" style="stroke:#181818;stroke-width:1.0;"/><line style="stroke:#181818;stroke-width:1.0;stroke-dasharray:2.0,2.0;" x1="428.5" x2="767.5" y1="1001.8047" y2="1001.8047"/><text fill="#000000" font-family="sans-serif" font-size="13" lengthAdjust="spacing" textLength="128" x="440.5" y="997.0625">pendingTasksDTO[];</text><polygon fill="#181818" points="1128,1027.1152,1138,1031.1152,1128,1035.1152,1132,1031.1152" style="stroke:#181818;stroke-width:1.0;"/><line style="stroke:#181818;stroke-width:1.0;stroke-dasharray:2.0,2.0;" x1="423.5" x2="1134" y1="1031.1152" y2="1031.1152"/><text fill="#000000" font-family="sans-serif" font-size="13" lengthAdjust="spacing" textLength="128" x="430.5" y="1026.373">pendingTasksDTO[];</text><polygon fill="#181818" points="434.5,1056.4258,424.5,1060.4258,434.5,1064.4258,430.5,1060.4258" style="stroke:#181818;stroke-width:1.0;"/><line style="stroke:#181818;stroke-width:1.0;stroke-dasharray:2.0,2.0;" x1="428.5" x2="1144" y1="1060.4258" y2="1060.4258"/><text fill="#000000" font-family="sans-serif" font-size="13" lengthAdjust="spacing" textLength="172" x="440.5" y="1055.6836">vigilanceTaskViewModels[];</text><line style="stroke:#181818;stroke-width:1.0;" x1="423.5" x2="465.5" y1="1089.7363" y2="1089.7363"/><line style="stroke:#181818;stroke-width:1.0;" x1="465.5" x2="465.5" y1="1089.7363" y2="1102.7363"/><line style="stroke:#181818;stroke-width:1.0;" x1="424.5" x2="465.5" y1="1102.7363" y2="1102.7363"/><polygon fill="#181818" points="434.5,1098.7363,424.5,1102.7363,434.5,1106.7363,430.5,1102.7363" style="stroke:#181818;stroke-width:1.0;"/><text fill="#000000" font-family="sans-serif" font-size="13" lengthAdjust="spacing" textLength="326" x="430.5" y="1084.9941">updatePendingTaskList(vigilanceTaskViewModels[]);</text><polygon fill="#181818" points="52.5,1128.0469,42.5,1132.0469,52.5,1136.0469,48.5,1132.0469" style="stroke:#181818;stroke-width:1.0;"/><line style="stroke:#181818;stroke-width:1.0;stroke-dasharray:2.0,2.0;" x1="46.5" x2="412.5" y1="1132.0469" y2="1132.0469"/><text fill="#000000" font-family="sans-serif" font-size="13" lengthAdjust="spacing" textLength="348" x="58.5" y="1127.3047">Mostra lista de tarefas pendentes/erro ao obter tarefas;</text><!--SRC=[xLPDRziW6BxxLw2UqaEIkwjEcjfBfLMBsfhBj0EpIOJA30AIQllrUm6RZpW9iQRTTh24nVCyl5yyDccDKAWnZBFVf1EgaaGPrZ99UeDkDhJlMBzx8_hz2zFcGVoKegUzkK54e-OflESi0_2Lfkh0MZeWN_rRZhEo6zQ-x-KZvUn0rI_CwCUpw2Xtj4qJtgT4p7QCaxwbEGUVeTYONiJU-83SQWfu4BrHWdEg72g-Jg6lINfN9lT2fHZoiiiBAGKaBW0Vtxvw72nAnu_OJMF1LMmvMdvAUubgP7jD58A7Re4XOGfWW-gAj8OTYA5PxrEkanhgWUeTDPyvpyD8HaelRbF5iOnLM8AQwvHJMX39rhRqUYszXXLkPABXs-efm8tzgz6SK9A-nwKL38dDaXlp6jaWv2S0TBQixq0eXG_JCK2oKmddJhtgw34yLO-4BUE6AjgbeQ7xeBFo-mjtOOUYtjxbWSAmeFgKpie8s7DS3QGa83jVdhZCef496tQ_VR_B4x6yS7RMlo9vh77QhpWz1NBIxs5syZ4kqFtKHVnoSfyky-FaPpV9LJ-usMcLf7ZHzvBrKIYWuIRMUyY0qPC-HAd9rKwpsiiEy4UVYCNf4s10YZuHNAri4TSwH92SOnB5EAxsXwBI2Ml0vvt1VmtmTRw0_wKjuDckuBvGUAuduF-MS6G9kE08ISNZDSRd3U4mZkX5Jy1_PGbdpx2kK5MJ79DVanez2sqKGTp-ag2EJdzArbGfWOX0uWTCuxWFody0]--></g></svg>