<?xml version="1.0" encoding="us-ascii" standalone="no"?><svg xmlns="http://www.w3.org/2000/svg" xmlns:xlink="http://www.w3.org/1999/xlink" contentStyleType="text/css" height="1752px" preserveAspectRatio="none" style="width:3651px;height:1752px;background:#FFFFFF;" version="1.1" viewBox="0 0 3651 1752" width="3651px" zoomAndPan="magnify"><defs/><g><rect fill="#FFFFFF" height="1549.2168" style="stroke:#181818;stroke-width:1.0;" width="10" x="456.5" y="112.7988"/><rect fill="#FFFFFF" height="407.0371" style="stroke:#181818;stroke-width:1.0;" width="10" x="956.5" y="142.1094"/><rect fill="#FFFFFF" height="407.0371" style="stroke:#181818;stroke-width:1.0;" width="10" x="956.5" y="637.0781"/><rect fill="#FFFFFF" height="386.7266" style="stroke:#181818;stroke-width:1.0;" width="10" x="1076" y="1275.2891"/><rect fill="#FFFFFF" height="29.3105" style="stroke:#181818;stroke-width:1.0;" width="10" x="1258.5" y="578.457"/><rect fill="#FFFFFF" height="29.3105" style="stroke:#181818;stroke-width:1.0;" width="10" x="1469" y="1073.4258"/><rect fill="#FFFFFF" height="348.416" style="stroke:#181818;stroke-width:1.0;" width="10" x="1611" y="171.4199"/><rect fill="#FFFFFF" height="348.416" style="stroke:#181818;stroke-width:1.0;" width="10" x="1611" y="666.3887"/><rect fill="#FFFFFF" height="289.7949" style="stroke:#181818;stroke-width:1.0;" width="10" x="1611" y="1304.5996"/><rect fill="#FFFFFF" height="289.7949" style="stroke:#181818;stroke-width:1.0;" width="10" x="1993" y="200.7305"/><rect fill="#FFFFFF" height="289.7949" style="stroke:#181818;stroke-width:1.0;" width="10" x="1993" y="695.6992"/><rect fill="#FFFFFF" height="231.1738" style="stroke:#181818;stroke-width:1.0;" width="10" x="1993" y="1333.9102"/><rect fill="#FFFFFF" height="260.4844" style="stroke:#181818;stroke-width:1.0;" width="10" x="2375" y="200.7305"/><rect fill="#FFFFFF" height="231.1738" style="stroke:#181818;stroke-width:1.0;" width="10" x="2375" y="725.0098"/><rect fill="#FFFFFF" height="172.5527" style="stroke:#181818;stroke-width:1.0;" width="10" x="2375" y="1363.2207"/><rect fill="#FFFFFF" height="29.3105" style="stroke:#181818;stroke-width:1.0;" width="10" x="2810" y="259.3516"/><rect fill="#FFFFFF" height="29.3105" style="stroke:#181818;stroke-width:1.0;" width="10" x="2981.5" y="754.3203"/><rect fill="#FFFFFF" height="29.3105" style="stroke:#181818;stroke-width:1.0;" width="10" x="3132" y="897.5625"/><rect fill="#FFFFFF" height="29.3105" style="stroke:#181818;stroke-width:1.0;" width="10" x="3298.5" y="402.5938"/><rect fill="#FFFFFF" height="71.6211" style="stroke:#181818;stroke-width:1.0;" width="10" x="3447.5" y="1434.8418"/><line style="stroke:#181818;stroke-width:0.5;stroke-dasharray:5.0,5.0;" x1="41" x2="41" y1="81.4883" y2="1671.0156"/><line style="stroke:#181818;stroke-width:0.5;stroke-dasharray:5.0,5.0;" x1="461" x2="461" y1="81.4883" y2="1671.0156"/><line style="stroke:#181818;stroke-width:0.5;stroke-dasharray:5.0,5.0;" x1="961" x2="961" y1="81.4883" y2="1671.0156"/><line style="stroke:#181818;stroke-width:0.5;stroke-dasharray:5.0,5.0;" x1="1081" x2="1081" y1="81.4883" y2="1671.0156"/><line style="stroke:#181818;stroke-width:0.5;stroke-dasharray:5.0,5.0;" x1="1263" x2="1263" y1="81.4883" y2="1671.0156"/><line style="stroke:#181818;stroke-width:0.5;stroke-dasharray:5.0,5.0;" x1="1474" x2="1474" y1="81.4883" y2="1671.0156"/><line style="stroke:#181818;stroke-width:0.5;stroke-dasharray:5.0,5.0;" x1="1616" x2="1616" y1="81.4883" y2="1671.0156"/><line style="stroke:#181818;stroke-width:0.5;stroke-dasharray:5.0,5.0;" x1="1998" x2="1998" y1="81.4883" y2="1671.0156"/><line style="stroke:#181818;stroke-width:0.5;stroke-dasharray:5.0,5.0;" x1="2380" x2="2380" y1="81.4883" y2="1671.0156"/><line style="stroke:#181818;stroke-width:0.5;stroke-dasharray:5.0,5.0;" x1="2815" x2="2815" y1="81.4883" y2="1671.0156"/><line style="stroke:#181818;stroke-width:0.5;stroke-dasharray:5.0,5.0;" x1="2986" x2="2986" y1="81.4883" y2="1671.0156"/><line style="stroke:#181818;stroke-width:0.5;stroke-dasharray:5.0,5.0;" x1="3137" x2="3137" y1="81.4883" y2="1671.0156"/><line style="stroke:#181818;stroke-width:0.5;stroke-dasharray:5.0,5.0;" x1="3303" x2="3303" y1="81.4883" y2="1671.0156"/><line style="stroke:#181818;stroke-width:0.5;stroke-dasharray:5.0,5.0;" x1="3452" x2="3452" y1="81.4883" y2="1671.0156"/><text fill="#000000" font-family="sans-serif" font-size="14" lengthAdjust="spacing" textLength="67" x="5" y="78.5352">Utilizador</text><ellipse cx="41.5" cy="13.5" fill="#E2E2F0" rx="8" ry="8" style="stroke:#181818;stroke-width:0.5;"/><path d="M41.5,21.5 L41.5,48.5 M28.5,29.5 L54.5,29.5 M41.5,48.5 L28.5,63.5 M41.5,48.5 L54.5,63.5 " fill="none" style="stroke:#181818;stroke-width:0.5;"/><text fill="#000000" font-family="sans-serif" font-size="14" lengthAdjust="spacing" textLength="67" x="5" y="1683.5508">Utilizador</text><ellipse cx="41.5" cy="1695.0039" fill="#E2E2F0" rx="8" ry="8" style="stroke:#181818;stroke-width:0.5;"/><path d="M41.5,1703.0039 L41.5,1730.0039 M28.5,1711.0039 L54.5,1711.0039 M41.5,1730.0039 L28.5,1745.0039 M41.5,1730.0039 L54.5,1745.0039 " fill="none" style="stroke:#181818;stroke-width:0.5;"/><rect fill="#E2E2F0" height="30.4883" rx="2.5" ry="2.5" style="stroke:#181818;stroke-width:0.5;" width="187" x="368" y="50"/><text fill="#000000" font-family="sans-serif" font-size="14" lengthAdjust="spacing" textLength="173" x="375" y="70.5352">TaskPlanningComponent</text><rect fill="#E2E2F0" height="30.4883" rx="2.5" ry="2.5" style="stroke:#181818;stroke-width:0.5;" width="187" x="368" y="1670.0156"/><text fill="#000000" font-family="sans-serif" font-size="14" lengthAdjust="spacing" textLength="173" x="375" y="1690.5508">TaskPlanningComponent</text><rect fill="#E2E2F0" height="30.4883" rx="2.5" ry="2.5" style="stroke:#181818;stroke-width:0.5;" width="93" x="915" y="50"/><text fill="#000000" font-family="sans-serif" font-size="14" lengthAdjust="spacing" textLength="79" x="922" y="70.5352">task.service</text><rect fill="#E2E2F0" height="30.4883" rx="2.5" ry="2.5" style="stroke:#181818;stroke-width:0.5;" width="93" x="915" y="1670.0156"/><text fill="#000000" font-family="sans-serif" font-size="14" lengthAdjust="spacing" textLength="79" x="922" y="1690.5508">task.service</text><rect fill="#E2E2F0" height="30.4883" rx="2.5" ry="2.5" style="stroke:#181818;stroke-width:0.5;" width="126" x="1018" y="50"/><text fill="#000000" font-family="sans-serif" font-size="14" lengthAdjust="spacing" textLength="112" x="1025" y="70.5352">planning.service</text><rect fill="#E2E2F0" height="30.4883" rx="2.5" ry="2.5" style="stroke:#181818;stroke-width:0.5;" width="126" x="1018" y="1670.0156"/><text fill="#000000" font-family="sans-serif" font-size="14" lengthAdjust="spacing" textLength="112" x="1025" y="1690.5508">planning.service</text><rect fill="#E2E2F0" height="30.4883" rx="2.5" ry="2.5" style="stroke:#181818;stroke-width:0.5;" width="219" x="1154" y="50"/><text fill="#000000" font-family="sans-serif" font-size="14" lengthAdjust="spacing" textLength="205" x="1161" y="70.5352">TaskPickupDeliveryViewModel</text><rect fill="#E2E2F0" height="30.4883" rx="2.5" ry="2.5" style="stroke:#181818;stroke-width:0.5;" width="219" x="1154" y="1670.0156"/><text fill="#000000" font-family="sans-serif" font-size="14" lengthAdjust="spacing" textLength="205" x="1161" y="1690.5508">TaskPickupDeliveryViewModel</text><rect fill="#E2E2F0" height="30.4883" rx="2.5" ry="2.5" style="stroke:#181818;stroke-width:0.5;" width="182" x="1383" y="50"/><text fill="#000000" font-family="sans-serif" font-size="14" lengthAdjust="spacing" textLength="168" x="1390" y="70.5352">TaskVigilanceViewModel</text><rect fill="#E2E2F0" height="30.4883" rx="2.5" ry="2.5" style="stroke:#181818;stroke-width:0.5;" width="182" x="1383" y="1670.0156"/><text fill="#000000" font-family="sans-serif" font-size="14" lengthAdjust="spacing" textLength="168" x="1390" y="1690.5508">TaskVigilanceViewModel</text><rect fill="#E2E2F0" height="30.4883" rx="2.5" ry="2.5" style="stroke:#181818;stroke-width:0.5;" width="82" x="1575" y="50"/><text fill="#000000" font-family="sans-serif" font-size="14" lengthAdjust="spacing" textLength="68" x="1582" y="70.5352">taskRoute</text><rect fill="#E2E2F0" height="30.4883" rx="2.5" ry="2.5" style="stroke:#181818;stroke-width:0.5;" width="82" x="1575" y="1670.0156"/><text fill="#000000" font-family="sans-serif" font-size="14" lengthAdjust="spacing" textLength="68" x="1582" y="1690.5508">taskRoute</text><rect fill="#E2E2F0" height="30.4883" rx="2.5" ry="2.5" style="stroke:#181818;stroke-width:0.5;" width="112" x="1942" y="50"/><text fill="#000000" font-family="sans-serif" font-size="14" lengthAdjust="spacing" textLength="98" x="1949" y="70.5352">taskController</text><rect fill="#E2E2F0" height="30.4883" rx="2.5" ry="2.5" style="stroke:#181818;stroke-width:0.5;" width="112" x="1942" y="1670.0156"/><text fill="#000000" font-family="sans-serif" font-size="14" lengthAdjust="spacing" textLength="98" x="1949" y="1690.5508">taskController</text><rect fill="#E2E2F0" height="30.4883" rx="2.5" ry="2.5" style="stroke:#181818;stroke-width:0.5;" width="90" x="2335" y="50"/><text fill="#000000" font-family="sans-serif" font-size="14" lengthAdjust="spacing" textLength="76" x="2342" y="70.5352">taskService</text><rect fill="#E2E2F0" height="30.4883" rx="2.5" ry="2.5" style="stroke:#181818;stroke-width:0.5;" width="90" x="2335" y="1670.0156"/><text fill="#000000" font-family="sans-serif" font-size="14" lengthAdjust="spacing" textLength="76" x="2342" y="1690.5508">taskService</text><rect fill="#E2E2F0" height="30.4883" rx="2.5" ry="2.5" style="stroke:#181818;stroke-width:0.5;" width="180" x="2725" y="50"/><text fill="#000000" font-family="sans-serif" font-size="14" lengthAdjust="spacing" textLength="166" x="2732" y="70.5352">TaskPickupDeliveryRepo</text><rect fill="#E2E2F0" height="30.4883" rx="2.5" ry="2.5" style="stroke:#181818;stroke-width:0.5;" width="180" x="2725" y="1670.0156"/><text fill="#000000" font-family="sans-serif" font-size="14" lengthAdjust="spacing" textLength="166" x="2732" y="1690.5508">TaskPickupDeliveryRepo</text><rect fill="#E2E2F0" height="30.4883" rx="2.5" ry="2.5" style="stroke:#181818;stroke-width:0.5;" width="143" x="2915" y="50"/><text fill="#000000" font-family="sans-serif" font-size="14" lengthAdjust="spacing" textLength="129" x="2922" y="70.5352">TaskVigilanceRepo</text><rect fill="#E2E2F0" height="30.4883" rx="2.5" ry="2.5" style="stroke:#181818;stroke-width:0.5;" width="143" x="2915" y="1670.0156"/><text fill="#000000" font-family="sans-serif" font-size="14" lengthAdjust="spacing" textLength="129" x="2922" y="1690.5508">TaskVigilanceRepo</text><rect fill="#E2E2F0" height="30.4883" rx="2.5" ry="2.5" style="stroke:#181818;stroke-width:0.5;" width="138" x="3068" y="50"/><text fill="#000000" font-family="sans-serif" font-size="14" lengthAdjust="spacing" textLength="124" x="3075" y="70.5352">TaskVigilanceDTO</text><rect fill="#E2E2F0" height="30.4883" rx="2.5" ry="2.5" style="stroke:#181818;stroke-width:0.5;" width="138" x="3068" y="1670.0156"/><text fill="#000000" font-family="sans-serif" font-size="14" lengthAdjust="spacing" textLength="124" x="3075" y="1690.5508">TaskVigilanceDTO</text><rect fill="#E2E2F0" height="30.4883" rx="2.5" ry="2.5" style="stroke:#181818;stroke-width:0.5;" width="175" x="3216" y="50"/><text fill="#000000" font-family="sans-serif" font-size="14" lengthAdjust="spacing" textLength="161" x="3223" y="70.5352">TaskPickupDeliveryDTO</text><rect fill="#E2E2F0" height="30.4883" rx="2.5" ry="2.5" style="stroke:#181818;stroke-width:0.5;" width="175" x="3216" y="1670.0156"/><text fill="#000000" font-family="sans-serif" font-size="14" lengthAdjust="spacing" textLength="161" x="3223" y="1690.5508">TaskPickupDeliveryDTO</text><rect fill="#E2E2F0" height="30.4883" rx="2.5" ry="2.5" style="stroke:#181818;stroke-width:0.5;" width="103" x="3401" y="50"/><text fill="#000000" font-family="sans-serif" font-size="14" lengthAdjust="spacing" textLength="89" x="3408" y="70.5352">Planeamento</text><rect fill="#E2E2F0" height="30.4883" rx="2.5" ry="2.5" style="stroke:#181818;stroke-width:0.5;" width="103" x="3401" y="1670.0156"/><text fill="#000000" font-family="sans-serif" font-size="14" lengthAdjust="spacing" textLength="89" x="3408" y="1690.5508">Planeamento</text><rect fill="#FFFFFF" height="1549.2168" style="stroke:#181818;stroke-width:1.0;" width="10" x="456.5" y="112.7988"/><rect fill="#FFFFFF" height="407.0371" style="stroke:#181818;stroke-width:1.0;" width="10" x="956.5" y="142.1094"/><rect fill="#FFFFFF" height="407.0371" style="stroke:#181818;stroke-width:1.0;" width="10" x="956.5" y="637.0781"/><rect fill="#FFFFFF" height="386.7266" style="stroke:#181818;stroke-width:1.0;" width="10" x="1076" y="1275.2891"/><rect fill="#FFFFFF" height="29.3105" style="stroke:#181818;stroke-width:1.0;" width="10" x="1258.5" y="578.457"/><rect fill="#FFFFFF" height="29.3105" style="stroke:#181818;stroke-width:1.0;" width="10" x="1469" y="1073.4258"/><rect fill="#FFFFFF" height="348.416" style="stroke:#181818;stroke-width:1.0;" width="10" x="1611" y="171.4199"/><rect fill="#FFFFFF" height="348.416" style="stroke:#181818;stroke-width:1.0;" width="10" x="1611" y="666.3887"/><rect fill="#FFFFFF" height="289.7949" style="stroke:#181818;stroke-width:1.0;" width="10" x="1611" y="1304.5996"/><rect fill="#FFFFFF" height="289.7949" style="stroke:#181818;stroke-width:1.0;" width="10" x="1993" y="200.7305"/><rect fill="#FFFFFF" height="289.7949" style="stroke:#181818;stroke-width:1.0;" width="10" x="1993" y="695.6992"/><rect fill="#FFFFFF" height="231.1738" style="stroke:#181818;stroke-width:1.0;" width="10" x="1993" y="1333.9102"/><rect fill="#FFFFFF" height="260.4844" style="stroke:#181818;stroke-width:1.0;" width="10" x="2375" y="200.7305"/><rect fill="#FFFFFF" height="231.1738" style="stroke:#181818;stroke-width:1.0;" width="10" x="2375" y="725.0098"/><rect fill="#FFFFFF" height="172.5527" style="stroke:#181818;stroke-width:1.0;" width="10" x="2375" y="1363.2207"/><rect fill="#FFFFFF" height="29.3105" style="stroke:#181818;stroke-width:1.0;" width="10" x="2810" y="259.3516"/><rect fill="#FFFFFF" height="29.3105" style="stroke:#181818;stroke-width:1.0;" width="10" x="2981.5" y="754.3203"/><rect fill="#FFFFFF" height="29.3105" style="stroke:#181818;stroke-width:1.0;" width="10" x="3132" y="897.5625"/><rect fill="#FFFFFF" height="29.3105" style="stroke:#181818;stroke-width:1.0;" width="10" x="3298.5" y="402.5938"/><rect fill="#FFFFFF" height="71.6211" style="stroke:#181818;stroke-width:1.0;" width="10" x="3447.5" y="1434.8418"/><polygon fill="#181818" points="444.5,108.7988,454.5,112.7988,444.5,116.7988,448.5,112.7988" style="stroke:#181818;stroke-width:1.0;"/><line style="stroke:#181818;stroke-width:1.0;" x1="41.5" x2="450.5" y1="112.7988" y2="112.7988"/><text fill="#000000" font-family="sans-serif" font-size="13" lengthAdjust="spacing" textLength="96" x="48.5" y="108.0566">Planear tarefas;</text><polygon fill="#181818" points="944.5,138.1094,954.5,142.1094,944.5,146.1094,948.5,142.1094" style="stroke:#181818;stroke-width:1.0;"/><line style="stroke:#181818;stroke-width:1.0;" x1="466.5" x2="950.5" y1="142.1094" y2="142.1094"/><text fill="#000000" font-family="sans-serif" font-size="13" lengthAdjust="spacing" textLength="239" x="473.5" y="137.3672">getAllPickupDeliveryApprovedTasks();</text><polygon fill="#181818" points="1599,167.4199,1609,171.4199,1599,175.4199,1603,171.4199" style="stroke:#181818;stroke-width:1.0;"/><line style="stroke:#181818;stroke-width:1.0;" x1="966.5" x2="1605" y1="171.4199" y2="171.4199"/><text fill="#000000" font-family="sans-serif" font-size="13" lengthAdjust="spacing" textLength="196" x="973.5" y="166.6777">get(api/tasks/approvedPickUp)</text><polygon fill="#181818" points="1981,196.7305,1991,200.7305,1981,204.7305,1985,200.7305" style="stroke:#181818;stroke-width:1.0;"/><line style="stroke:#181818;stroke-width:1.0;" x1="1621" x2="1987" y1="200.7305" y2="200.7305"/><text fill="#000000" font-family="sans-serif" font-size="13" lengthAdjust="spacing" textLength="235" x="1628" y="195.9883">getAllPickupDeliveryApprovedTasks()</text><polygon fill="#181818" points="2363,226.041,2373,230.041,2363,234.041,2367,230.041" style="stroke:#181818;stroke-width:1.0;"/><line style="stroke:#181818;stroke-width:1.0;" x1="2003" x2="2369" y1="230.041" y2="230.041"/><text fill="#000000" font-family="sans-serif" font-size="13" lengthAdjust="spacing" textLength="235" x="2010" y="225.2988">getAllPickupDeliveryApprovedTasks()</text><polygon fill="#181818" points="2798,255.3516,2808,259.3516,2798,263.3516,2802,259.3516" style="stroke:#181818;stroke-width:1.0;"/><line style="stroke:#181818;stroke-width:1.0;" x1="2385" x2="2804" y1="259.3516" y2="259.3516"/><text fill="#000000" font-family="sans-serif" font-size="13" lengthAdjust="spacing" textLength="50" x="2392" y="254.6094">findAll()</text><polygon fill="#181818" points="2396,284.6621,2386,288.6621,2396,292.6621,2392,288.6621" style="stroke:#181818;stroke-width:1.0;"/><line style="stroke:#181818;stroke-width:1.0;" x1="2390" x2="2814" y1="288.6621" y2="288.6621"/><text fill="#000000" font-family="sans-serif" font-size="13" lengthAdjust="spacing" textLength="52" x="2402" y="283.9199">allTasks</text><line style="stroke:#181818;stroke-width:1.0;" x1="2385" x2="2427" y1="317.9727" y2="317.9727"/><line style="stroke:#181818;stroke-width:1.0;" x1="2427" x2="2427" y1="317.9727" y2="330.9727"/><line style="stroke:#181818;stroke-width:1.0;" x1="2386" x2="2427" y1="330.9727" y2="330.9727"/><polygon fill="#181818" points="2396,326.9727,2386,330.9727,2396,334.9727,2392,330.9727" style="stroke:#181818;stroke-width:1.0;"/><text fill="#000000" font-family="sans-serif" font-size="13" lengthAdjust="spacing" textLength="347" x="2392" y="313.2305">filteredApprovedTasks = allTasks.filter(task.approved);</text><line style="stroke:#181818;stroke-width:1.0;" x1="2385" x2="2427" y1="360.2832" y2="360.2832"/><line style="stroke:#181818;stroke-width:1.0;" x1="2427" x2="2427" y1="360.2832" y2="373.2832"/><line style="stroke:#181818;stroke-width:1.0;" x1="2386" x2="2427" y1="373.2832" y2="373.2832"/><polygon fill="#181818" points="2396,369.2832,2386,373.2832,2396,377.2832,2392,373.2832" style="stroke:#181818;stroke-width:1.0;"/><text fill="#000000" font-family="sans-serif" font-size="13" lengthAdjust="spacing" textLength="411" x="2392" y="355.541">filteredApprovedNotPlannedTasks = allTasks.filter(task.planned);</text><polygon fill="#181818" points="3286.5,398.5938,3296.5,402.5938,3286.5,406.5938,3290.5,402.5938" style="stroke:#181818;stroke-width:1.0;"/><line style="stroke:#181818;stroke-width:1.0;" x1="2385" x2="3292.5" y1="402.5938" y2="402.5938"/><text fill="#000000" font-family="sans-serif" font-size="13" lengthAdjust="spacing" textLength="305" x="2392" y="397.8516">filteredApprovedNotPlannedTasks.toDTO(tasks);</text><polygon fill="#181818" points="2396,427.9043,2386,431.9043,2396,435.9043,2392,431.9043" style="stroke:#181818;stroke-width:1.0;"/><line style="stroke:#181818;stroke-width:1.0;stroke-dasharray:2.0,2.0;" x1="2390" x2="3302.5" y1="431.9043" y2="431.9043"/><text fill="#000000" font-family="sans-serif" font-size="13" lengthAdjust="spacing" textLength="135" x="2402" y="427.1621">approvedTasksDTO[];</text><polygon fill="#181818" points="2014,457.2148,2004,461.2148,2014,465.2148,2010,461.2148" style="stroke:#181818;stroke-width:1.0;"/><line style="stroke:#181818;stroke-width:1.0;stroke-dasharray:2.0,2.0;" x1="2008" x2="2379" y1="461.2148" y2="461.2148"/><text fill="#000000" font-family="sans-serif" font-size="13" lengthAdjust="spacing" textLength="135" x="2020" y="456.4727">approvedTasksDTO[];</text><polygon fill="#181818" points="1632,486.5254,1622,490.5254,1632,494.5254,1628,490.5254" style="stroke:#181818;stroke-width:1.0;"/><line style="stroke:#181818;stroke-width:1.0;stroke-dasharray:2.0,2.0;" x1="1626" x2="1997" y1="490.5254" y2="490.5254"/><text fill="#000000" font-family="sans-serif" font-size="13" lengthAdjust="spacing" textLength="135" x="1638" y="485.7832">approvedTasksDTO[];</text><polygon fill="#181818" points="977.5,515.8359,967.5,519.8359,977.5,523.8359,973.5,519.8359" style="stroke:#181818;stroke-width:1.0;"/><line style="stroke:#181818;stroke-width:1.0;stroke-dasharray:2.0,2.0;" x1="971.5" x2="1615" y1="519.8359" y2="519.8359"/><text fill="#000000" font-family="sans-serif" font-size="13" lengthAdjust="spacing" textLength="135" x="983.5" y="515.0938">approvedTasksDTO[];</text><polygon fill="#181818" points="477.5,545.1465,467.5,549.1465,477.5,553.1465,473.5,549.1465" style="stroke:#181818;stroke-width:1.0;"/><line style="stroke:#181818;stroke-width:1.0;stroke-dasharray:2.0,2.0;" x1="471.5" x2="960.5" y1="549.1465" y2="549.1465"/><text fill="#000000" font-family="sans-serif" font-size="13" lengthAdjust="spacing" textLength="135" x="483.5" y="544.4043">approvedTasksDTO[];</text><polygon fill="#181818" points="1246.5,574.457,1256.5,578.457,1246.5,582.457,1250.5,578.457" style="stroke:#181818;stroke-width:1.0;"/><line style="stroke:#181818;stroke-width:1.0;stroke-dasharray:2.0,2.0;" x1="466.5" x2="1252.5" y1="578.457" y2="578.457"/><text fill="#000000" font-family="sans-serif" font-size="13" lengthAdjust="spacing" textLength="135" x="473.5" y="573.7148">approvedTasksDTO[];</text><polygon fill="#181818" points="477.5,603.7676,467.5,607.7676,477.5,611.7676,473.5,607.7676" style="stroke:#181818;stroke-width:1.0;"/><line style="stroke:#181818;stroke-width:1.0;stroke-dasharray:2.0,2.0;" x1="471.5" x2="1262.5" y1="607.7676" y2="607.7676"/><text fill="#000000" font-family="sans-serif" font-size="13" lengthAdjust="spacing" textLength="159" x="483.5" y="603.0254">pickupTaskViewModels[];</text><polygon fill="#181818" points="944.5,633.0781,954.5,637.0781,944.5,641.0781,948.5,637.0781" style="stroke:#181818;stroke-width:1.0;"/><line style="stroke:#181818;stroke-width:1.0;" x1="466.5" x2="950.5" y1="637.0781" y2="637.0781"/><text fill="#000000" font-family="sans-serif" font-size="13" lengthAdjust="spacing" textLength="193" x="473.5" y="632.3359">getAllVigilancePendingTasks();</text><polygon fill="#181818" points="1599,662.3887,1609,666.3887,1599,670.3887,1603,666.3887" style="stroke:#181818;stroke-width:1.0;"/><line style="stroke:#181818;stroke-width:1.0;" x1="966.5" x2="1605" y1="666.3887" y2="666.3887"/><text fill="#000000" font-family="sans-serif" font-size="13" lengthAdjust="spacing" textLength="210" x="973.5" y="661.6465">get(api/tasks/approvedVigilance)</text><polygon fill="#181818" points="1981,691.6992,1991,695.6992,1981,699.6992,1985,695.6992" style="stroke:#181818;stroke-width:1.0;"/><line style="stroke:#181818;stroke-width:1.0;" x1="1621" x2="1987" y1="695.6992" y2="695.6992"/><text fill="#000000" font-family="sans-serif" font-size="13" lengthAdjust="spacing" textLength="199" x="1628" y="690.957">getAllVigilanceApprovedTasks()</text><polygon fill="#181818" points="2363,721.0098,2373,725.0098,2363,729.0098,2367,725.0098" style="stroke:#181818;stroke-width:1.0;"/><line style="stroke:#181818;stroke-width:1.0;" x1="2003" x2="2369" y1="725.0098" y2="725.0098"/><text fill="#000000" font-family="sans-serif" font-size="13" lengthAdjust="spacing" textLength="189" x="2010" y="720.2676">getAllVigilancePendingTasks()</text><polygon fill="#181818" points="2969.5,750.3203,2979.5,754.3203,2969.5,758.3203,2973.5,754.3203" style="stroke:#181818;stroke-width:1.0;"/><line style="stroke:#181818;stroke-width:1.0;" x1="2385" x2="2975.5" y1="754.3203" y2="754.3203"/><text fill="#000000" font-family="sans-serif" font-size="13" lengthAdjust="spacing" textLength="50" x="2392" y="749.5781">findAll()</text><polygon fill="#181818" points="2396,779.6309,2386,783.6309,2396,787.6309,2392,783.6309" style="stroke:#181818;stroke-width:1.0;"/><line style="stroke:#181818;stroke-width:1.0;" x1="2390" x2="2985.5" y1="783.6309" y2="783.6309"/><text fill="#000000" font-family="sans-serif" font-size="13" lengthAdjust="spacing" textLength="52" x="2402" y="778.8887">allTasks</text><line style="stroke:#181818;stroke-width:1.0;" x1="2385" x2="2427" y1="812.9414" y2="812.9414"/><line style="stroke:#181818;stroke-width:1.0;" x1="2427" x2="2427" y1="812.9414" y2="825.9414"/><line style="stroke:#181818;stroke-width:1.0;" x1="2386" x2="2427" y1="825.9414" y2="825.9414"/><polygon fill="#181818" points="2396,821.9414,2386,825.9414,2396,829.9414,2392,825.9414" style="stroke:#181818;stroke-width:1.0;"/><text fill="#000000" font-family="sans-serif" font-size="13" lengthAdjust="spacing" textLength="347" x="2392" y="808.1992">filteredApprovedTasks = allTasks.filter(task.approved);</text><line style="stroke:#181818;stroke-width:1.0;" x1="2385" x2="2427" y1="855.252" y2="855.252"/><line style="stroke:#181818;stroke-width:1.0;" x1="2427" x2="2427" y1="855.252" y2="868.252"/><line style="stroke:#181818;stroke-width:1.0;" x1="2386" x2="2427" y1="868.252" y2="868.252"/><polygon fill="#181818" points="2396,864.252,2386,868.252,2396,872.252,2392,868.252" style="stroke:#181818;stroke-width:1.0;"/><text fill="#000000" font-family="sans-serif" font-size="13" lengthAdjust="spacing" textLength="411" x="2392" y="850.5098">filteredApprovedNotPlannedTasks = allTasks.filter(task.planned);</text><polygon fill="#181818" points="3120,893.5625,3130,897.5625,3120,901.5625,3124,897.5625" style="stroke:#181818;stroke-width:1.0;"/><line style="stroke:#181818;stroke-width:1.0;" x1="2385" x2="3126" y1="897.5625" y2="897.5625"/><text fill="#000000" font-family="sans-serif" font-size="13" lengthAdjust="spacing" textLength="305" x="2392" y="892.8203">filteredApprovedNotPlannedTasks.toDTO(tasks);</text><polygon fill="#181818" points="2396,922.873,2386,926.873,2396,930.873,2392,926.873" style="stroke:#181818;stroke-width:1.0;"/><line style="stroke:#181818;stroke-width:1.0;stroke-dasharray:2.0,2.0;" x1="2390" x2="3136" y1="926.873" y2="926.873"/><text fill="#000000" font-family="sans-serif" font-size="13" lengthAdjust="spacing" textLength="135" x="2402" y="922.1309">approvedTasksDTO[];</text><polygon fill="#181818" points="2014,952.1836,2004,956.1836,2014,960.1836,2010,956.1836" style="stroke:#181818;stroke-width:1.0;"/><line style="stroke:#181818;stroke-width:1.0;stroke-dasharray:2.0,2.0;" x1="2008" x2="2379" y1="956.1836" y2="956.1836"/><text fill="#000000" font-family="sans-serif" font-size="13" lengthAdjust="spacing" textLength="135" x="2020" y="951.4414">approvedTasksDTO[];</text><polygon fill="#181818" points="1632,981.4941,1622,985.4941,1632,989.4941,1628,985.4941" style="stroke:#181818;stroke-width:1.0;"/><line style="stroke:#181818;stroke-width:1.0;stroke-dasharray:2.0,2.0;" x1="1626" x2="1997" y1="985.4941" y2="985.4941"/><text fill="#000000" font-family="sans-serif" font-size="13" lengthAdjust="spacing" textLength="135" x="1638" y="980.752">approvedTasksDTO[];</text><polygon fill="#181818" points="977.5,1010.8047,967.5,1014.8047,977.5,1018.8047,973.5,1014.8047" style="stroke:#181818;stroke-width:1.0;"/><line style="stroke:#181818;stroke-width:1.0;stroke-dasharray:2.0,2.0;" x1="971.5" x2="1615" y1="1014.8047" y2="1014.8047"/><text fill="#000000" font-family="sans-serif" font-size="13" lengthAdjust="spacing" textLength="135" x="983.5" y="1010.0625">approvedTasksDTO[];</text><polygon fill="#181818" points="477.5,1040.1152,467.5,1044.1152,477.5,1048.1152,473.5,1044.1152" style="stroke:#181818;stroke-width:1.0;"/><line style="stroke:#181818;stroke-width:1.0;stroke-dasharray:2.0,2.0;" x1="471.5" x2="960.5" y1="1044.1152" y2="1044.1152"/><text fill="#000000" font-family="sans-serif" font-size="13" lengthAdjust="spacing" textLength="135" x="483.5" y="1039.373">approvedTasksDTO[];</text><polygon fill="#181818" points="1457,1069.4258,1467,1073.4258,1457,1077.4258,1461,1073.4258" style="stroke:#181818;stroke-width:1.0;"/><line style="stroke:#181818;stroke-width:1.0;stroke-dasharray:2.0,2.0;" x1="466.5" x2="1463" y1="1073.4258" y2="1073.4258"/><text fill="#000000" font-family="sans-serif" font-size="13" lengthAdjust="spacing" textLength="135" x="473.5" y="1068.6836">approvedTasksDTO[];</text><polygon fill="#181818" points="477.5,1098.7363,467.5,1102.7363,477.5,1106.7363,473.5,1102.7363" style="stroke:#181818;stroke-width:1.0;"/><line style="stroke:#181818;stroke-width:1.0;stroke-dasharray:2.0,2.0;" x1="471.5" x2="1473" y1="1102.7363" y2="1102.7363"/><text fill="#000000" font-family="sans-serif" font-size="13" lengthAdjust="spacing" textLength="172" x="483.5" y="1097.9941">vigilanceTaskViewModels[];</text><polygon fill="#181818" points="52.5,1128.0469,42.5,1132.0469,52.5,1136.0469,48.5,1132.0469" style="stroke:#181818;stroke-width:1.0;"/><line style="stroke:#181818;stroke-width:1.0;stroke-dasharray:2.0,2.0;" x1="46.5" x2="455.5" y1="1132.0469" y2="1132.0469"/><text fill="#000000" font-family="sans-serif" font-size="13" lengthAdjust="spacing" textLength="391" x="58.5" y="1127.3047">Mostra tarefas aprovadas n&#227;o planeadas/erro ao obter tarefas;</text><polygon fill="#181818" points="444.5,1157.3574,454.5,1161.3574,444.5,1165.3574,448.5,1161.3574" style="stroke:#181818;stroke-width:1.0;"/><line style="stroke:#181818;stroke-width:1.0;" x1="41.5" x2="450.5" y1="1161.3574" y2="1161.3574"/><text fill="#000000" font-family="sans-serif" font-size="13" lengthAdjust="spacing" textLength="191" x="48.5" y="1156.6152">Seleciona tarefas para planear;</text><line style="stroke:#181818;stroke-width:1.0;" x1="466.5" x2="508.5" y1="1190.668" y2="1190.668"/><line style="stroke:#181818;stroke-width:1.0;" x1="508.5" x2="508.5" y1="1190.668" y2="1203.668"/><line style="stroke:#181818;stroke-width:1.0;" x1="467.5" x2="508.5" y1="1203.668" y2="1203.668"/><polygon fill="#181818" points="477.5,1199.668,467.5,1203.668,477.5,1207.668,473.5,1203.668" style="stroke:#181818;stroke-width:1.0;"/><text fill="#000000" font-family="sans-serif" font-size="13" lengthAdjust="spacing" textLength="461" x="473.5" y="1185.9258">vigilanceTasksInfo=extractVigilanceTaskDetails(selectedVigilanceTasks);</text><line style="stroke:#181818;stroke-width:1.0;" x1="466.5" x2="508.5" y1="1232.9785" y2="1232.9785"/><line style="stroke:#181818;stroke-width:1.0;" x1="508.5" x2="508.5" y1="1232.9785" y2="1245.9785"/><line style="stroke:#181818;stroke-width:1.0;" x1="467.5" x2="508.5" y1="1245.9785" y2="1245.9785"/><polygon fill="#181818" points="477.5,1241.9785,467.5,1245.9785,477.5,1249.9785,473.5,1245.9785" style="stroke:#181818;stroke-width:1.0;"/><text fill="#000000" font-family="sans-serif" font-size="13" lengthAdjust="spacing" textLength="476" x="473.5" y="1228.2363">pickUpVigilanceTasksInfo=extractPickupTaskDetails(selectedPickupTasks);</text><polygon fill="#181818" points="1064,1271.2891,1074,1275.2891,1064,1279.2891,1068,1275.2891" style="stroke:#181818;stroke-width:1.0;"/><line style="stroke:#181818;stroke-width:1.0;" x1="466.5" x2="1070" y1="1275.2891" y2="1275.2891"/><text fill="#000000" font-family="sans-serif" font-size="13" lengthAdjust="spacing" textLength="417" x="473.5" y="1270.5469">planear(vigilanceTasksInfo) ou planear(pickUpVigilanceTasksInfo);</text><polygon fill="#181818" points="1599,1300.5996,1609,1304.5996,1599,1308.5996,1603,1304.5996" style="stroke:#181818;stroke-width:1.0;"/><line style="stroke:#181818;stroke-width:1.0;" x1="1086" x2="1605" y1="1304.5996" y2="1304.5996"/><text fill="#000000" font-family="sans-serif" font-size="13" lengthAdjust="spacing" textLength="224" x="1093" y="1299.8574">get(api/tasks/planning/,tasksInfo);</text><polygon fill="#181818" points="1981,1329.9102,1991,1333.9102,1981,1337.9102,1985,1333.9102" style="stroke:#181818;stroke-width:1.0;"/><line style="stroke:#181818;stroke-width:1.0;" x1="1621" x2="1987" y1="1333.9102" y2="1333.9102"/><text fill="#000000" font-family="sans-serif" font-size="13" lengthAdjust="spacing" textLength="163" x="1628" y="1329.168">planearTarefas(tasksInfo);</text><polygon fill="#181818" points="2363,1359.2207,2373,1363.2207,2363,1367.2207,2367,1363.2207" style="stroke:#181818;stroke-width:1.0;"/><line style="stroke:#181818;stroke-width:1.0;" x1="2003" x2="2369" y1="1363.2207" y2="1363.2207"/><text fill="#000000" font-family="sans-serif" font-size="13" lengthAdjust="spacing" textLength="182" x="2010" y="1358.4785">getTasksPlanning(tasksInfo);</text><line style="stroke:#181818;stroke-width:1.0;" x1="2385" x2="2427" y1="1392.5313" y2="1392.5313"/><line style="stroke:#181818;stroke-width:1.0;" x1="2427" x2="2427" y1="1392.5313" y2="1405.5313"/><line style="stroke:#181818;stroke-width:1.0;" x1="2386" x2="2427" y1="1405.5313" y2="1405.5313"/><polygon fill="#181818" points="2396,1401.5313,2386,1405.5313,2396,1409.5313,2392,1405.5313" style="stroke:#181818;stroke-width:1.0;"/><text fill="#000000" font-family="sans-serif" font-size="13" lengthAdjust="spacing" textLength="285" x="2392" y="1387.7891">Cria URL planemento com base em tasksInfo;</text><polygon fill="#181818" points="3435.5,1430.8418,3445.5,1434.8418,3435.5,1438.8418,3439.5,1434.8418" style="stroke:#181818;stroke-width:1.0;"/><line style="stroke:#181818;stroke-width:1.0;" x1="2385" x2="3441.5" y1="1434.8418" y2="1434.8418"/><text fill="#000000" font-family="sans-serif" font-size="13" lengthAdjust="spacing" textLength="141" x="2392" y="1430.0996">axios.get(urlPlanning);</text><line style="stroke:#181818;stroke-width:1.0;" x1="3457.5" x2="3499.5" y1="1464.1523" y2="1464.1523"/><line style="stroke:#181818;stroke-width:1.0;" x1="3499.5" x2="3499.5" y1="1464.1523" y2="1477.1523"/><line style="stroke:#181818;stroke-width:1.0;" x1="3458.5" x2="3499.5" y1="1477.1523" y2="1477.1523"/><polygon fill="#181818" points="3468.5,1473.1523,3458.5,1477.1523,3468.5,1481.1523,3464.5,1477.1523" style="stroke:#181818;stroke-width:1.0;"/><text fill="#000000" font-family="sans-serif" font-size="13" lengthAdjust="spacing" textLength="180" x="3464.5" y="1459.4102">Planeia tarefas selecionadas;</text><polygon fill="#181818" points="2396,1502.4629,2386,1506.4629,2396,1510.4629,2392,1506.4629" style="stroke:#181818;stroke-width:1.0;"/><line style="stroke:#181818;stroke-width:1.0;" x1="2390" x2="3451.5" y1="1506.4629" y2="1506.4629"/><text fill="#000000" font-family="sans-serif" font-size="13" lengthAdjust="spacing" textLength="348" x="2402" y="1501.7207">Sequ&#234;ncia de tarefas planeadas/erro ao planear tarefas;</text><polygon fill="#181818" points="2014,1531.7734,2004,1535.7734,2014,1539.7734,2010,1535.7734" style="stroke:#181818;stroke-width:1.0;"/><line style="stroke:#181818;stroke-width:1.0;" x1="2008" x2="2379" y1="1535.7734" y2="1535.7734"/><text fill="#000000" font-family="sans-serif" font-size="13" lengthAdjust="spacing" textLength="348" x="2020" y="1531.0313">Sequ&#234;ncia de tarefas planeadas/erro ao planear tarefas;</text><polygon fill="#181818" points="1632,1561.084,1622,1565.084,1632,1569.084,1628,1565.084" style="stroke:#181818;stroke-width:1.0;"/><line style="stroke:#181818;stroke-width:1.0;" x1="1626" x2="1997" y1="1565.084" y2="1565.084"/><text fill="#000000" font-family="sans-serif" font-size="13" lengthAdjust="spacing" textLength="348" x="1638" y="1560.3418">Sequ&#234;ncia de tarefas planeadas/erro ao planear tarefas;</text><polygon fill="#181818" points="1097,1590.3945,1087,1594.3945,1097,1598.3945,1093,1594.3945" style="stroke:#181818;stroke-width:1.0;"/><line style="stroke:#181818;stroke-width:1.0;" x1="1091" x2="1615" y1="1594.3945" y2="1594.3945"/><text fill="#000000" font-family="sans-serif" font-size="13" lengthAdjust="spacing" textLength="348" x="1103" y="1589.6523">Sequ&#234;ncia de tarefas planeadas/erro ao planear tarefas;</text><polygon fill="#181818" points="477.5,1619.7051,467.5,1623.7051,477.5,1627.7051,473.5,1623.7051" style="stroke:#181818;stroke-width:1.0;"/><line style="stroke:#181818;stroke-width:1.0;" x1="471.5" x2="1075" y1="1623.7051" y2="1623.7051"/><text fill="#000000" font-family="sans-serif" font-size="13" lengthAdjust="spacing" textLength="348" x="483.5" y="1618.9629">Sequ&#234;ncia de tarefas planeadas/erro ao planear tarefas;</text><polygon fill="#181818" points="52.5,1649.0156,42.5,1653.0156,52.5,1657.0156,48.5,1653.0156" style="stroke:#181818;stroke-width:1.0;"/><line style="stroke:#181818;stroke-width:1.0;" x1="46.5" x2="455.5" y1="1653.0156" y2="1653.0156"/><text fill="#000000" font-family="sans-serif" font-size="13" lengthAdjust="spacing" textLength="348" x="58.5" y="1648.2734">Sequ&#234;ncia de tarefas planeadas/erro ao planear tarefas;</text><!--SRC=[xLV9Rjim4BthAuYS7A2nxmvI84Wk0PhMY6rTYXuOYGw8q29BqcxQt-cjlv4VAnU976gndELIe1U3X6RUxCz3N6WkqLfJHd_Xaiii4rXgMb21AurELbWzBXYkAbezNF6ju1Mfz0d22grlmZrLqKPbgeZSquBKaaj_I-L43TkIjTPwvPqhj7ZSYMl2w9x8dpabFsvvIPXJNQp3lQkOqmTgW0kIwkG3AZQ6ExxJtYbtwWfSyKfBpXYHJYfUkw9B4EAHmTqHmUkuxF50I44o7n6yNdtnSkOmPhwHNQmxmhP216zDuMi7uptBOYUXiu-mIT2y5fH8OqasM9rdkD1qZpL9cibW02q7KgTiZXw8lcGizVHI2CdtfBGngCbfWjhaEWj72-ZgwS0cMD2PBP2QuHh6Wg_5gN4ZuFZwkr-h7Wjzb4CH1tG8G6zyZ5-jaSRTuqna83hVBqPnGwlIQ48FwbwgHH8pc367bfMaBGx0e_o6CaqaAHDNq4N0cNg1YQE39hccEaU1VURQiSu8hF0oAQhhM3GVWPngRiGSZ88zu_lTOvob2OA1cizVlvsdkRAAmO-aJyQr-vgWwTHnRT1OTPV2iHdNzmqEPgGpkYC0STAIsNNL21Gx00Co6DaOd5lEp95me-2PhPPHdM94g74-2GIv85Lf_f7UYKa2xCl89AWTnIE7MMCWiYxvW9ZoOVhmVp3vSUIH_uFSaR-5EjpVQlvYuiZ_yuQVgvGuygDv0onn-J1hx9jHE4WS0AlZ4LXjvkYMAorniyeO1ur_k3IdwlatHy9jEkOw8r9oX3dYzwQbukPpS4zQ4aOAogi8R_OlN8FAypv6W-f9fEgcsl0BycISBNGElrmJZIbJ4sMjQK1Ngxgn3neHRatA1qqj0actxSGllKR0_ZzlGfvqGpf5V1S-3pcJKZXyMIItIEGj9c-UABCFkWzoaCfHy7pb2pZfrGVZTu36NJJD6wmVg8V5Gmgl9CLeVVV9U-IsT5JmBRh7YY2oHG4mNQBYJc_7xuboDRMvsKdMk99iJV0907LJgFe9G6DZgwRLIpiLBSsOXYNvldl-KnL6ioHnAZfJ9jel3BWJG1z1g4dPNcreZ9GZ9xz7B5tYRetEEzbf21uYzz3LQtFM7dv8i6-0_Gi0]--></g></svg>