<?xml version="1.0" encoding="UTF-8" standalone="no"?><svg xmlns="http://www.w3.org/2000/svg" xmlns:xlink="http://www.w3.org/1999/xlink" contentStyleType="text/css" height="286px" preserveAspectRatio="none" style="width:397px;height:286px;background:#FFFFFF;" version="1.1" viewBox="0 0 397 286" width="397px" zoomAndPan="magnify"><defs/><g><rect fill="#FFFFFF" height="41.24" style="stroke:#181818;stroke-width:1.0;" width="10" x="342.5" y="135.4799"/><line style="stroke:#181818;stroke-width:0.5;stroke-dasharray:5.0,5.0;" x1="52" x2="52" y1="92.24" y2="194.7199"/><line style="stroke:#181818;stroke-width:0.5;stroke-dasharray:5.0,5.0;" x1="347.5" x2="347.5" y1="92.24" y2="194.7199"/><text fill="#000000" font-family="sans-serif" font-size="20" lengthAdjust="spacing" textLength="89" x="5" y="86.38">Utilizador</text><ellipse cx="52.5" cy="13.5" fill="#E2E2F0" rx="8" ry="8" style="stroke:#181818;stroke-width:0.5;"/><path d="M52.5,21.5 L52.5,48.5 M39.5,29.5 L65.5,29.5 M52.5,48.5 L39.5,63.5 M52.5,48.5 L65.5,63.5 " fill="none" style="stroke:#181818;stroke-width:0.5;"/><text fill="#000000" font-family="sans-serif" font-size="20" lengthAdjust="spacing" textLength="89" x="5" y="215.0999">Utilizador</text><ellipse cx="52.5" cy="229.4599" fill="#E2E2F0" rx="8" ry="8" style="stroke:#181818;stroke-width:0.5;"/><path d="M52.5,237.4599 L52.5,264.4599 M39.5,245.4599 L65.5,245.4599 M52.5,264.4599 L39.5,279.4599 M52.5,264.4599 L65.5,279.4599 " fill="none" style="stroke:#181818;stroke-width:0.5;"/><rect fill="#E2E2F0" height="41.24" rx="2.5" ry="2.5" style="stroke:#181818;stroke-width:0.5;" width="88" x="303.5" y="50"/><text fill="#000000" font-family="sans-serif" font-size="20" lengthAdjust="spacing" textLength="74" x="310.5" y="78.38">Sistema</text><rect fill="#E2E2F0" height="41.24" rx="2.5" ry="2.5" style="stroke:#181818;stroke-width:0.5;" width="88" x="303.5" y="193.7199"/><text fill="#000000" font-family="sans-serif" font-size="20" lengthAdjust="spacing" textLength="74" x="310.5" y="222.0999">Sistema</text><rect fill="#FFFFFF" height="41.24" style="stroke:#181818;stroke-width:1.0;" width="10" x="342.5" y="135.4799"/><polygon fill="#181818" points="330.5,131.4799,340.5,135.4799,330.5,139.4799,334.5,135.4799" style="stroke:#181818;stroke-width:1.0;"/><line style="stroke:#181818;stroke-width:1.0;" x1="52.5" x2="336.5" y1="135.4799" y2="135.4799"/><text fill="#000000" font-family="sans-serif" font-size="20" lengthAdjust="spacing" textLength="271" x="59.5" y="127.62">Solicita lista de robot da frota</text><polygon fill="#181818" points="63.5,172.7199,53.5,176.7199,63.5,180.7199,59.5,176.7199" style="stroke:#181818;stroke-width:1.0;"/><line style="stroke:#181818;stroke-width:1.0;stroke-dasharray:2.0,2.0;" x1="57.5" x2="346.5" y1="176.7199" y2="176.7199"/><text fill="#000000" font-family="sans-serif" font-size="20" lengthAdjust="spacing" textLength="215" x="69.5" y="168.8599">Lista de robots da frota</text><!--SRC=[NSsn3i8m30JGFLznwbu9CNPWP6Ah-80ZIIMhQLqbXg5VJv0e1JRhTFTSHfaNPav9_HW3GXnuJtRMsNfP8uu7Hs-QSJL9iZ9eThLlucNXR6XwAHOdDc31-tPx5-rfIz6XrrHtHgGQiVv2rfiQ0Z5aDRvUoOCMFzAsRQlpfNQu_0Xb9qByHvu0]--></g></svg>