<?xml version="1.0" encoding="us-ascii" standalone="no"?><svg xmlns="http://www.w3.org/2000/svg" xmlns:xlink="http://www.w3.org/1999/xlink" contentStyleType="text/css" height="1257px" preserveAspectRatio="none" style="width:2822px;height:1257px;background:#FFFFFF;" version="1.1" viewBox="0 0 2822 1257" width="2822px" zoomAndPan="magnify"><defs/><g><rect fill="#FFFFFF" height="1054.248" style="stroke:#181818;stroke-width:1.0;" width="10" x="413.5" y="112.7988"/><rect fill="#FFFFFF" height="1024.9375" style="stroke:#181818;stroke-width:1.0;" width="10" x="763.5" y="142.1094"/><rect fill="#FFFFFF" height="29.3105" style="stroke:#181818;stroke-width:1.0;" width="10" x="929.5" y="549.1465"/><rect fill="#FFFFFF" height="29.3105" style="stroke:#181818;stroke-width:1.0;" width="10" x="1140" y="1057.1152"/><rect fill="#FFFFFF" height="995.627" style="stroke:#181818;stroke-width:1.0;" width="10" x="1282" y="171.4199"/><rect fill="#FFFFFF" height="995.627" style="stroke:#181818;stroke-width:1.0;" width="10" x="1541" y="171.4199"/><rect fill="#FFFFFF" height="966.3164" style="stroke:#181818;stroke-width:1.0;" width="10" x="1800" y="200.7305"/><rect fill="#FFFFFF" height="29.3105" style="stroke:#181818;stroke-width:1.0;" width="10" x="2235" y="259.3516"/><rect fill="#FFFFFF" height="29.3105" style="stroke:#181818;stroke-width:1.0;" width="10" x="2406.5" y="767.3203"/><rect fill="#FFFFFF" height="29.3105" style="stroke:#181818;stroke-width:1.0;" width="10" x="2557" y="910.5625"/><rect fill="#FFFFFF" height="29.3105" style="stroke:#181818;stroke-width:1.0;" width="10" x="2723.5" y="402.5938"/><line style="stroke:#181818;stroke-width:0.5;stroke-dasharray:5.0,5.0;" x1="41" x2="41" y1="81.4883" y2="1176.0469"/><line style="stroke:#181818;stroke-width:0.5;stroke-dasharray:5.0,5.0;" x1="418.5" x2="418.5" y1="81.4883" y2="1176.0469"/><line style="stroke:#181818;stroke-width:0.5;stroke-dasharray:5.0,5.0;" x1="768" x2="768" y1="81.4883" y2="1176.0469"/><line style="stroke:#181818;stroke-width:0.5;stroke-dasharray:5.0,5.0;" x1="934" x2="934" y1="81.4883" y2="1176.0469"/><line style="stroke:#181818;stroke-width:0.5;stroke-dasharray:5.0,5.0;" x1="1145" x2="1145" y1="81.4883" y2="1176.0469"/><line style="stroke:#181818;stroke-width:0.5;stroke-dasharray:5.0,5.0;" x1="1287" x2="1287" y1="81.4883" y2="1176.0469"/><line style="stroke:#181818;stroke-width:0.5;stroke-dasharray:5.0,5.0;" x1="1546" x2="1546" y1="81.4883" y2="1176.0469"/><line style="stroke:#181818;stroke-width:0.5;stroke-dasharray:5.0,5.0;" x1="1805" x2="1805" y1="81.4883" y2="1176.0469"/><line style="stroke:#181818;stroke-width:0.5;stroke-dasharray:5.0,5.0;" x1="2240" x2="2240" y1="81.4883" y2="1176.0469"/><line style="stroke:#181818;stroke-width:0.5;stroke-dasharray:5.0,5.0;" x1="2411" x2="2411" y1="81.4883" y2="1176.0469"/><line style="stroke:#181818;stroke-width:0.5;stroke-dasharray:5.0,5.0;" x1="2562" x2="2562" y1="81.4883" y2="1176.0469"/><line style="stroke:#181818;stroke-width:0.5;stroke-dasharray:5.0,5.0;" x1="2728" x2="2728" y1="81.4883" y2="1176.0469"/><text fill="#000000" font-family="sans-serif" font-size="14" lengthAdjust="spacing" textLength="67" x="5" y="78.5352">Utilizador</text><ellipse cx="41.5" cy="13.5" fill="#E2E2F0" rx="8" ry="8" style="stroke:#181818;stroke-width:0.5;"/><path d="M41.5,21.5 L41.5,48.5 M28.5,29.5 L54.5,29.5 M41.5,48.5 L28.5,63.5 M41.5,48.5 L54.5,63.5 " fill="none" style="stroke:#181818;stroke-width:0.5;"/><text fill="#000000" font-family="sans-serif" font-size="14" lengthAdjust="spacing" textLength="67" x="5" y="1188.582">Utilizador</text><ellipse cx="41.5" cy="1200.0352" fill="#E2E2F0" rx="8" ry="8" style="stroke:#181818;stroke-width:0.5;"/><path d="M41.5,1208.0352 L41.5,1235.0352 M28.5,1216.0352 L54.5,1216.0352 M41.5,1235.0352 L28.5,1250.0352 M41.5,1235.0352 L54.5,1250.0352 " fill="none" style="stroke:#181818;stroke-width:0.5;"/><rect fill="#E2E2F0" height="30.4883" rx="2.5" ry="2.5" style="stroke:#181818;stroke-width:0.5;" width="206" x="315.5" y="50"/><text fill="#000000" font-family="sans-serif" font-size="14" lengthAdjust="spacing" textLength="192" x="322.5" y="70.5352">PendingTaskListComponent</text><rect fill="#E2E2F0" height="30.4883" rx="2.5" ry="2.5" style="stroke:#181818;stroke-width:0.5;" width="206" x="315.5" y="1175.0469"/><text fill="#000000" font-family="sans-serif" font-size="14" lengthAdjust="spacing" textLength="192" x="322.5" y="1195.582">PendingTaskListComponent</text><rect fill="#E2E2F0" height="30.4883" rx="2.5" ry="2.5" style="stroke:#181818;stroke-width:0.5;" width="93" x="722" y="50"/><text fill="#000000" font-family="sans-serif" font-size="14" lengthAdjust="spacing" textLength="79" x="729" y="70.5352">task.service</text><rect fill="#E2E2F0" height="30.4883" rx="2.5" ry="2.5" style="stroke:#181818;stroke-width:0.5;" width="93" x="722" y="1175.0469"/><text fill="#000000" font-family="sans-serif" font-size="14" lengthAdjust="spacing" textLength="79" x="729" y="1195.582">task.service</text><rect fill="#E2E2F0" height="30.4883" rx="2.5" ry="2.5" style="stroke:#181818;stroke-width:0.5;" width="219" x="825" y="50"/><text fill="#000000" font-family="sans-serif" font-size="14" lengthAdjust="spacing" textLength="205" x="832" y="70.5352">TaskPickupDeliveryViewModel</text><rect fill="#E2E2F0" height="30.4883" rx="2.5" ry="2.5" style="stroke:#181818;stroke-width:0.5;" width="219" x="825" y="1175.0469"/><text fill="#000000" font-family="sans-serif" font-size="14" lengthAdjust="spacing" textLength="205" x="832" y="1195.582">TaskPickupDeliveryViewModel</text><rect fill="#E2E2F0" height="30.4883" rx="2.5" ry="2.5" style="stroke:#181818;stroke-width:0.5;" width="182" x="1054" y="50"/><text fill="#000000" font-family="sans-serif" font-size="14" lengthAdjust="spacing" textLength="168" x="1061" y="70.5352">TaskVigilanceViewModel</text><rect fill="#E2E2F0" height="30.4883" rx="2.5" ry="2.5" style="stroke:#181818;stroke-width:0.5;" width="182" x="1054" y="1175.0469"/><text fill="#000000" font-family="sans-serif" font-size="14" lengthAdjust="spacing" textLength="168" x="1061" y="1195.582">TaskVigilanceViewModel</text><rect fill="#E2E2F0" height="30.4883" rx="2.5" ry="2.5" style="stroke:#181818;stroke-width:0.5;" width="82" x="1246" y="50"/><text fill="#000000" font-family="sans-serif" font-size="14" lengthAdjust="spacing" textLength="68" x="1253" y="70.5352">taskRoute</text><rect fill="#E2E2F0" height="30.4883" rx="2.5" ry="2.5" style="stroke:#181818;stroke-width:0.5;" width="82" x="1246" y="1175.0469"/><text fill="#000000" font-family="sans-serif" font-size="14" lengthAdjust="spacing" textLength="68" x="1253" y="1195.582">taskRoute</text><rect fill="#E2E2F0" height="30.4883" rx="2.5" ry="2.5" style="stroke:#181818;stroke-width:0.5;" width="112" x="1490" y="50"/><text fill="#000000" font-family="sans-serif" font-size="14" lengthAdjust="spacing" textLength="98" x="1497" y="70.5352">taskController</text><rect fill="#E2E2F0" height="30.4883" rx="2.5" ry="2.5" style="stroke:#181818;stroke-width:0.5;" width="112" x="1490" y="1175.0469"/><text fill="#000000" font-family="sans-serif" font-size="14" lengthAdjust="spacing" textLength="98" x="1497" y="1195.582">taskController</text><rect fill="#E2E2F0" height="30.4883" rx="2.5" ry="2.5" style="stroke:#181818;stroke-width:0.5;" width="90" x="1760" y="50"/><text fill="#000000" font-family="sans-serif" font-size="14" lengthAdjust="spacing" textLength="76" x="1767" y="70.5352">taskService</text><rect fill="#E2E2F0" height="30.4883" rx="2.5" ry="2.5" style="stroke:#181818;stroke-width:0.5;" width="90" x="1760" y="1175.0469"/><text fill="#000000" font-family="sans-serif" font-size="14" lengthAdjust="spacing" textLength="76" x="1767" y="1195.582">taskService</text><rect fill="#E2E2F0" height="30.4883" rx="2.5" ry="2.5" style="stroke:#181818;stroke-width:0.5;" width="180" x="2150" y="50"/><text fill="#000000" font-family="sans-serif" font-size="14" lengthAdjust="spacing" textLength="166" x="2157" y="70.5352">TaskPickupDeliveryRepo</text><rect fill="#E2E2F0" height="30.4883" rx="2.5" ry="2.5" style="stroke:#181818;stroke-width:0.5;" width="180" x="2150" y="1175.0469"/><text fill="#000000" font-family="sans-serif" font-size="14" lengthAdjust="spacing" textLength="166" x="2157" y="1195.582">TaskPickupDeliveryRepo</text><rect fill="#E2E2F0" height="30.4883" rx="2.5" ry="2.5" style="stroke:#181818;stroke-width:0.5;" width="143" x="2340" y="50"/><text fill="#000000" font-family="sans-serif" font-size="14" lengthAdjust="spacing" textLength="129" x="2347" y="70.5352">TaskVigilanceRepo</text><rect fill="#E2E2F0" height="30.4883" rx="2.5" ry="2.5" style="stroke:#181818;stroke-width:0.5;" width="143" x="2340" y="1175.0469"/><text fill="#000000" font-family="sans-serif" font-size="14" lengthAdjust="spacing" textLength="129" x="2347" y="1195.582">TaskVigilanceRepo</text><rect fill="#E2E2F0" height="30.4883" rx="2.5" ry="2.5" style="stroke:#181818;stroke-width:0.5;" width="138" x="2493" y="50"/><text fill="#000000" font-family="sans-serif" font-size="14" lengthAdjust="spacing" textLength="124" x="2500" y="70.5352">TaskVigilanceDTO</text><rect fill="#E2E2F0" height="30.4883" rx="2.5" ry="2.5" style="stroke:#181818;stroke-width:0.5;" width="138" x="2493" y="1175.0469"/><text fill="#000000" font-family="sans-serif" font-size="14" lengthAdjust="spacing" textLength="124" x="2500" y="1195.582">TaskVigilanceDTO</text><rect fill="#E2E2F0" height="30.4883" rx="2.5" ry="2.5" style="stroke:#181818;stroke-width:0.5;" width="175" x="2641" y="50"/><text fill="#000000" font-family="sans-serif" font-size="14" lengthAdjust="spacing" textLength="161" x="2648" y="70.5352">TaskPickupDeliveryDTO</text><rect fill="#E2E2F0" height="30.4883" rx="2.5" ry="2.5" style="stroke:#181818;stroke-width:0.5;" width="175" x="2641" y="1175.0469"/><text fill="#000000" font-family="sans-serif" font-size="14" lengthAdjust="spacing" textLength="161" x="2648" y="1195.582">TaskPickupDeliveryDTO</text><rect fill="#FFFFFF" height="1054.248" style="stroke:#181818;stroke-width:1.0;" width="10" x="413.5" y="112.7988"/><rect fill="#FFFFFF" height="1024.9375" style="stroke:#181818;stroke-width:1.0;" width="10" x="763.5" y="142.1094"/><rect fill="#FFFFFF" height="29.3105" style="stroke:#181818;stroke-width:1.0;" width="10" x="929.5" y="549.1465"/><rect fill="#FFFFFF" height="29.3105" style="stroke:#181818;stroke-width:1.0;" width="10" x="1140" y="1057.1152"/><rect fill="#FFFFFF" height="995.627" style="stroke:#181818;stroke-width:1.0;" width="10" x="1282" y="171.4199"/><rect fill="#FFFFFF" height="995.627" style="stroke:#181818;stroke-width:1.0;" width="10" x="1541" y="171.4199"/><rect fill="#FFFFFF" height="966.3164" style="stroke:#181818;stroke-width:1.0;" width="10" x="1800" y="200.7305"/><rect fill="#FFFFFF" height="29.3105" style="stroke:#181818;stroke-width:1.0;" width="10" x="2235" y="259.3516"/><rect fill="#FFFFFF" height="29.3105" style="stroke:#181818;stroke-width:1.0;" width="10" x="2406.5" y="767.3203"/><rect fill="#FFFFFF" height="29.3105" style="stroke:#181818;stroke-width:1.0;" width="10" x="2557" y="910.5625"/><rect fill="#FFFFFF" height="29.3105" style="stroke:#181818;stroke-width:1.0;" width="10" x="2723.5" y="402.5938"/><polygon fill="#181818" points="401.5,108.7988,411.5,112.7988,401.5,116.7988,405.5,112.7988" style="stroke:#181818;stroke-width:1.0;"/><line style="stroke:#181818;stroke-width:1.0;" x1="41.5" x2="407.5" y1="112.7988" y2="112.7988"/><text fill="#000000" font-family="sans-serif" font-size="13" lengthAdjust="spacing" textLength="151" x="48.5" y="108.0566">Listar tarefas pendentes</text><polygon fill="#181818" points="751.5,138.1094,761.5,142.1094,751.5,146.1094,755.5,142.1094" style="stroke:#181818;stroke-width:1.0;"/><line style="stroke:#181818;stroke-width:1.0;" x1="423.5" x2="757.5" y1="142.1094" y2="142.1094"/><text fill="#000000" font-family="sans-serif" font-size="13" lengthAdjust="spacing" textLength="225" x="430.5" y="137.3672">getAllPickupDeliveryPendingTasks()</text><polygon fill="#181818" points="1270,167.4199,1280,171.4199,1270,175.4199,1274,171.4199" style="stroke:#181818;stroke-width:1.0;"/><line style="stroke:#181818;stroke-width:1.0;" x1="773.5" x2="1276" y1="171.4199" y2="171.4199"/><text fill="#000000" font-family="sans-serif" font-size="13" lengthAdjust="spacing" textLength="189" x="780.5" y="166.6777">get(api/tasks/pendingPickUp)</text><polygon fill="#181818" points="1529,196.7305,1539,200.7305,1529,204.7305,1533,200.7305" style="stroke:#181818;stroke-width:1.0;"/><line style="stroke:#181818;stroke-width:1.0;" x1="1292" x2="1535" y1="200.7305" y2="200.7305"/><text fill="#000000" font-family="sans-serif" font-size="13" lengthAdjust="spacing" textLength="225" x="1299" y="195.9883">getAllPickupDeliveryPendingTasks()</text><polygon fill="#181818" points="1788,226.041,1798,230.041,1788,234.041,1792,230.041" style="stroke:#181818;stroke-width:1.0;"/><line style="stroke:#181818;stroke-width:1.0;" x1="1551" x2="1794" y1="230.041" y2="230.041"/><text fill="#000000" font-family="sans-serif" font-size="13" lengthAdjust="spacing" textLength="225" x="1558" y="225.2988">getAllPickupDeliveryPendingTasks()</text><polygon fill="#181818" points="2223,255.3516,2233,259.3516,2223,263.3516,2227,259.3516" style="stroke:#181818;stroke-width:1.0;"/><line style="stroke:#181818;stroke-width:1.0;" x1="1810" x2="2229" y1="259.3516" y2="259.3516"/><text fill="#000000" font-family="sans-serif" font-size="13" lengthAdjust="spacing" textLength="50" x="1817" y="254.6094">findAll()</text><polygon fill="#181818" points="1821,284.6621,1811,288.6621,1821,292.6621,1817,288.6621" style="stroke:#181818;stroke-width:1.0;"/><line style="stroke:#181818;stroke-width:1.0;" x1="1815" x2="2239" y1="288.6621" y2="288.6621"/><text fill="#000000" font-family="sans-serif" font-size="13" lengthAdjust="spacing" textLength="52" x="1827" y="283.9199">allTasks</text><line style="stroke:#181818;stroke-width:1.0;" x1="1810" x2="1852" y1="317.9727" y2="317.9727"/><line style="stroke:#181818;stroke-width:1.0;" x1="1852" x2="1852" y1="317.9727" y2="330.9727"/><line style="stroke:#181818;stroke-width:1.0;" x1="1811" x2="1852" y1="330.9727" y2="330.9727"/><polygon fill="#181818" points="1821,326.9727,1811,330.9727,1821,334.9727,1817,330.9727" style="stroke:#181818;stroke-width:1.0;"/><text fill="#000000" font-family="sans-serif" font-size="13" lengthAdjust="spacing" textLength="347" x="1817" y="313.2305">filteredApprovedTasks = allTasks.filter(task.approved);</text><line style="stroke:#181818;stroke-width:1.0;" x1="1810" x2="1852" y1="360.2832" y2="360.2832"/><line style="stroke:#181818;stroke-width:1.0;" x1="1852" x2="1852" y1="360.2832" y2="373.2832"/><line style="stroke:#181818;stroke-width:1.0;" x1="1811" x2="1852" y1="373.2832" y2="373.2832"/><polygon fill="#181818" points="1821,369.2832,1811,373.2832,1821,377.2832,1817,373.2832" style="stroke:#181818;stroke-width:1.0;"/><text fill="#000000" font-family="sans-serif" font-size="13" lengthAdjust="spacing" textLength="411" x="1817" y="355.541">filteredApprovedNotPlannedTasks = allTasks.filter(task.planned);</text><polygon fill="#181818" points="2711.5,398.5938,2721.5,402.5938,2711.5,406.5938,2715.5,402.5938" style="stroke:#181818;stroke-width:1.0;"/><line style="stroke:#181818;stroke-width:1.0;" x1="1810" x2="2717.5" y1="402.5938" y2="402.5938"/><text fill="#000000" font-family="sans-serif" font-size="13" lengthAdjust="spacing" textLength="305" x="1817" y="397.8516">filteredApprovedNotPlannedTasks.toDTO(tasks);</text><polygon fill="#181818" points="1821,427.9043,1811,431.9043,1821,435.9043,1817,431.9043" style="stroke:#181818;stroke-width:1.0;"/><line style="stroke:#181818;stroke-width:1.0;stroke-dasharray:2.0,2.0;" x1="1815" x2="2727.5" y1="431.9043" y2="431.9043"/><text fill="#000000" font-family="sans-serif" font-size="13" lengthAdjust="spacing" textLength="128" x="1827" y="427.1621">pendingTasksDTO[];</text><polygon fill="#181818" points="1562,457.2148,1552,461.2148,1562,465.2148,1558,461.2148" style="stroke:#181818;stroke-width:1.0;"/><line style="stroke:#181818;stroke-width:1.0;stroke-dasharray:2.0,2.0;" x1="1556" x2="1799" y1="461.2148" y2="461.2148"/><text fill="#000000" font-family="sans-serif" font-size="13" lengthAdjust="spacing" textLength="128" x="1568" y="456.4727">pendingTasksDTO[];</text><polygon fill="#181818" points="1303,486.5254,1293,490.5254,1303,494.5254,1299,490.5254" style="stroke:#181818;stroke-width:1.0;"/><line style="stroke:#181818;stroke-width:1.0;stroke-dasharray:2.0,2.0;" x1="1297" x2="1540" y1="490.5254" y2="490.5254"/><text fill="#000000" font-family="sans-serif" font-size="13" lengthAdjust="spacing" textLength="128" x="1309" y="485.7832">pendingTasksDTO[];</text><polygon fill="#181818" points="784.5,515.8359,774.5,519.8359,784.5,523.8359,780.5,519.8359" style="stroke:#181818;stroke-width:1.0;"/><line style="stroke:#181818;stroke-width:1.0;stroke-dasharray:2.0,2.0;" x1="778.5" x2="1281" y1="519.8359" y2="519.8359"/><text fill="#000000" font-family="sans-serif" font-size="13" lengthAdjust="spacing" textLength="128" x="790.5" y="515.0938">pendingTasksDTO[];</text><polygon fill="#181818" points="917.5,545.1465,927.5,549.1465,917.5,553.1465,921.5,549.1465" style="stroke:#181818;stroke-width:1.0;"/><line style="stroke:#181818;stroke-width:1.0;stroke-dasharray:2.0,2.0;" x1="773.5" x2="923.5" y1="549.1465" y2="549.1465"/><text fill="#000000" font-family="sans-serif" font-size="13" lengthAdjust="spacing" textLength="128" x="780.5" y="544.4043">pendingTasksDTO[];</text><polygon fill="#181818" points="434.5,574.457,424.5,578.457,434.5,582.457,430.5,578.457" style="stroke:#181818;stroke-width:1.0;"/><line style="stroke:#181818;stroke-width:1.0;stroke-dasharray:2.0,2.0;" x1="428.5" x2="933.5" y1="578.457" y2="578.457"/><text fill="#000000" font-family="sans-serif" font-size="13" lengthAdjust="spacing" textLength="159" x="440.5" y="573.7148">pickupTaskViewModels[];</text><line style="stroke:#181818;stroke-width:1.0;" x1="423.5" x2="465.5" y1="607.7676" y2="607.7676"/><line style="stroke:#181818;stroke-width:1.0;" x1="465.5" x2="465.5" y1="607.7676" y2="620.7676"/><line style="stroke:#181818;stroke-width:1.0;" x1="424.5" x2="465.5" y1="620.7676" y2="620.7676"/><polygon fill="#181818" points="434.5,616.7676,424.5,620.7676,434.5,624.7676,430.5,620.7676" style="stroke:#181818;stroke-width:1.0;"/><text fill="#000000" font-family="sans-serif" font-size="13" lengthAdjust="spacing" textLength="313" x="430.5" y="603.0254">updatePendingTaskList(pickupTaskViewModels[]);</text><polygon fill="#181818" points="751.5,646.0781,761.5,650.0781,751.5,654.0781,755.5,650.0781" style="stroke:#181818;stroke-width:1.0;"/><line style="stroke:#181818;stroke-width:1.0;" x1="423.5" x2="757.5" y1="650.0781" y2="650.0781"/><text fill="#000000" font-family="sans-serif" font-size="13" lengthAdjust="spacing" textLength="189" x="430.5" y="645.3359">getAllVigilancePendingTasks()</text><polygon fill="#181818" points="1270,675.3887,1280,679.3887,1270,683.3887,1274,679.3887" style="stroke:#181818;stroke-width:1.0;"/><line style="stroke:#181818;stroke-width:1.0;" x1="773.5" x2="1276" y1="679.3887" y2="679.3887"/><text fill="#000000" font-family="sans-serif" font-size="13" lengthAdjust="spacing" textLength="203" x="780.5" y="674.6465">get(api/tasks/pendingVigilance)</text><polygon fill="#181818" points="1529,704.6992,1539,708.6992,1529,712.6992,1533,708.6992" style="stroke:#181818;stroke-width:1.0;"/><line style="stroke:#181818;stroke-width:1.0;" x1="1292" x2="1535" y1="708.6992" y2="708.6992"/><text fill="#000000" font-family="sans-serif" font-size="13" lengthAdjust="spacing" textLength="189" x="1299" y="703.957">getAllVigilancePendingTasks()</text><polygon fill="#181818" points="1788,734.0098,1798,738.0098,1788,742.0098,1792,738.0098" style="stroke:#181818;stroke-width:1.0;"/><line style="stroke:#181818;stroke-width:1.0;" x1="1551" x2="1794" y1="738.0098" y2="738.0098"/><text fill="#000000" font-family="sans-serif" font-size="13" lengthAdjust="spacing" textLength="189" x="1558" y="733.2676">getAllVigilancePendingTasks()</text><polygon fill="#181818" points="2394.5,763.3203,2404.5,767.3203,2394.5,771.3203,2398.5,767.3203" style="stroke:#181818;stroke-width:1.0;"/><line style="stroke:#181818;stroke-width:1.0;" x1="1810" x2="2400.5" y1="767.3203" y2="767.3203"/><text fill="#000000" font-family="sans-serif" font-size="13" lengthAdjust="spacing" textLength="50" x="1817" y="762.5781">findAll()</text><polygon fill="#181818" points="1821,792.6309,1811,796.6309,1821,800.6309,1817,796.6309" style="stroke:#181818;stroke-width:1.0;"/><line style="stroke:#181818;stroke-width:1.0;" x1="1815" x2="2410.5" y1="796.6309" y2="796.6309"/><text fill="#000000" font-family="sans-serif" font-size="13" lengthAdjust="spacing" textLength="52" x="1827" y="791.8887">allTasks</text><line style="stroke:#181818;stroke-width:1.0;" x1="1810" x2="1852" y1="825.9414" y2="825.9414"/><line style="stroke:#181818;stroke-width:1.0;" x1="1852" x2="1852" y1="825.9414" y2="838.9414"/><line style="stroke:#181818;stroke-width:1.0;" x1="1811" x2="1852" y1="838.9414" y2="838.9414"/><polygon fill="#181818" points="1821,834.9414,1811,838.9414,1821,842.9414,1817,838.9414" style="stroke:#181818;stroke-width:1.0;"/><text fill="#000000" font-family="sans-serif" font-size="13" lengthAdjust="spacing" textLength="347" x="1817" y="821.1992">filteredApprovedTasks = allTasks.filter(task.approved);</text><line style="stroke:#181818;stroke-width:1.0;" x1="1810" x2="1852" y1="868.252" y2="868.252"/><line style="stroke:#181818;stroke-width:1.0;" x1="1852" x2="1852" y1="868.252" y2="881.252"/><line style="stroke:#181818;stroke-width:1.0;" x1="1811" x2="1852" y1="881.252" y2="881.252"/><polygon fill="#181818" points="1821,877.252,1811,881.252,1821,885.252,1817,881.252" style="stroke:#181818;stroke-width:1.0;"/><text fill="#000000" font-family="sans-serif" font-size="13" lengthAdjust="spacing" textLength="411" x="1817" y="863.5098">filteredApprovedNotPlannedTasks = allTasks.filter(task.planned);</text><polygon fill="#181818" points="2545,906.5625,2555,910.5625,2545,914.5625,2549,910.5625" style="stroke:#181818;stroke-width:1.0;"/><line style="stroke:#181818;stroke-width:1.0;" x1="1810" x2="2551" y1="910.5625" y2="910.5625"/><text fill="#000000" font-family="sans-serif" font-size="13" lengthAdjust="spacing" textLength="305" x="1817" y="905.8203">filteredApprovedNotPlannedTasks.toDTO(tasks);</text><polygon fill="#181818" points="1821,935.873,1811,939.873,1821,943.873,1817,939.873" style="stroke:#181818;stroke-width:1.0;"/><line style="stroke:#181818;stroke-width:1.0;stroke-dasharray:2.0,2.0;" x1="1815" x2="2561" y1="939.873" y2="939.873"/><text fill="#000000" font-family="sans-serif" font-size="13" lengthAdjust="spacing" textLength="128" x="1827" y="935.1309">pendingTasksDTO[];</text><polygon fill="#181818" points="1562,965.1836,1552,969.1836,1562,973.1836,1558,969.1836" style="stroke:#181818;stroke-width:1.0;"/><line style="stroke:#181818;stroke-width:1.0;stroke-dasharray:2.0,2.0;" x1="1556" x2="1799" y1="969.1836" y2="969.1836"/><text fill="#000000" font-family="sans-serif" font-size="13" lengthAdjust="spacing" textLength="128" x="1568" y="964.4414">pendingTasksDTO[];</text><polygon fill="#181818" points="1303,994.4941,1293,998.4941,1303,1002.4941,1299,998.4941" style="stroke:#181818;stroke-width:1.0;"/><line style="stroke:#181818;stroke-width:1.0;stroke-dasharray:2.0,2.0;" x1="1297" x2="1540" y1="998.4941" y2="998.4941"/><text fill="#000000" font-family="sans-serif" font-size="13" lengthAdjust="spacing" textLength="128" x="1309" y="993.752">pendingTasksDTO[];</text><polygon fill="#181818" points="784.5,1023.8047,774.5,1027.8047,784.5,1031.8047,780.5,1027.8047" style="stroke:#181818;stroke-width:1.0;"/><line style="stroke:#181818;stroke-width:1.0;stroke-dasharray:2.0,2.0;" x1="778.5" x2="1281" y1="1027.8047" y2="1027.8047"/><text fill="#000000" font-family="sans-serif" font-size="13" lengthAdjust="spacing" textLength="128" x="790.5" y="1023.0625">pendingTasksDTO[];</text><polygon fill="#181818" points="1128,1053.1152,1138,1057.1152,1128,1061.1152,1132,1057.1152" style="stroke:#181818;stroke-width:1.0;"/><line style="stroke:#181818;stroke-width:1.0;stroke-dasharray:2.0,2.0;" x1="773.5" x2="1134" y1="1057.1152" y2="1057.1152"/><text fill="#000000" font-family="sans-serif" font-size="13" lengthAdjust="spacing" textLength="128" x="780.5" y="1052.373">pendingTasksDTO[];</text><polygon fill="#181818" points="434.5,1082.4258,424.5,1086.4258,434.5,1090.4258,430.5,1086.4258" style="stroke:#181818;stroke-width:1.0;"/><line style="stroke:#181818;stroke-width:1.0;stroke-dasharray:2.0,2.0;" x1="428.5" x2="1144" y1="1086.4258" y2="1086.4258"/><text fill="#000000" font-family="sans-serif" font-size="13" lengthAdjust="spacing" textLength="172" x="440.5" y="1081.6836">vigilanceTaskViewModels[];</text><line style="stroke:#181818;stroke-width:1.0;" x1="423.5" x2="465.5" y1="1115.7363" y2="1115.7363"/><line style="stroke:#181818;stroke-width:1.0;" x1="465.5" x2="465.5" y1="1115.7363" y2="1128.7363"/><line style="stroke:#181818;stroke-width:1.0;" x1="424.5" x2="465.5" y1="1128.7363" y2="1128.7363"/><polygon fill="#181818" points="434.5,1124.7363,424.5,1128.7363,434.5,1132.7363,430.5,1128.7363" style="stroke:#181818;stroke-width:1.0;"/><text fill="#000000" font-family="sans-serif" font-size="13" lengthAdjust="spacing" textLength="326" x="430.5" y="1110.9941">updatePendingTaskList(vigilanceTaskViewModels[]);</text><polygon fill="#181818" points="52.5,1154.0469,42.5,1158.0469,52.5,1162.0469,48.5,1158.0469" style="stroke:#181818;stroke-width:1.0;"/><line style="stroke:#181818;stroke-width:1.0;stroke-dasharray:2.0,2.0;" x1="46.5" x2="412.5" y1="1158.0469" y2="1158.0469"/><text fill="#000000" font-family="sans-serif" font-size="13" lengthAdjust="spacing" textLength="348" x="58.5" y="1153.3047">Mostra lista de tarefas pendentes/erro ao obter tarefas;</text><!--SRC=[rLR1ZjiW4BtxAz2UaaEIkrUjjDgzhDHjhTqrbwe7QayYjDGWJ5orNzy1R0nndBZQInif4jZlFOQPUHXM6Qb9QRZWlrajTQQODhpYYZM6t1JGrBmvlBBsxHDlpRtyeMG3ZRaXh2NbOvYdB8FmRGkwunNqo1S_It5Mjk3Lsr4zWE0Tw5-KmyydMODmjA8CyocHyWCNhAaWvT0PYetfMHwD3yYDfe1xsHWjXG3jKEDq2ds9jhTmSy-WPBylExomfO2aLu0Fhryy3WVNbX-mHMd1sLXoilaOrvBanDQQQO9_s2D3OHVW2sWpLXdUCGD9xMEka-hpGV83c3iXqZ2YbcfNwrXnI6CMXgZcAkMKLapndKrzkrDUmmgNAjBmPSLVU1ALq2kXvFWi9miYZEL2YAE6LGmRNgGte97eEm5vUzxKI8mJqdT93qbMOK8ujQo6KtYiFXBsN1ZGKDyffMK7jMEJ3q5ewm4hvrpMWzQtoyG-IrDWDpPNP9N7fAgk6Kb-HN9h9CASJ8lyQC-sbRt69ebHHJd7jr-_tQQvihmGHj8JvybnlSUkF8VisomrmZdW-7hZ4X4EhlFmAFZnY8l6czJ5gE6Qq1yNFQQTv66KchWuFX2EgaRyoTTWTNu5BD3L8o4SO2VUMEhym5zVilNSAfVDEyUAsvREszOVsNIPQUd_w5dw7ikwBnNzMyFIVywlTAbTemi9dJThDpJTHR_ITzbrTWths5JGAextWvmyoTPeHeIz5v0QfZU37MWj2PD4ViUk6DwZxXy0]--></g></svg>