<?xml version="1.0" encoding="us-ascii" standalone="no"?><svg xmlns="http://www.w3.org/2000/svg" xmlns:xlink="http://www.w3.org/1999/xlink" contentStyleType="text/css" height="400px" preserveAspectRatio="none" style="width:1265px;height:400px;background:#FFFFFF;" version="1.1" viewBox="0 0 1265 400" width="1265px" zoomAndPan="magnify"><defs/><g><rect fill="#FFFFFF" height="188.8633" style="stroke:#181818;stroke-width:1.0;" width="10" x="413.5" y="112.7988"/><rect fill="#FFFFFF" height="130.2422" style="stroke:#181818;stroke-width:1.0;" width="10" x="751.5" y="142.1094"/><rect fill="#FFFFFF" height="71.6211" style="stroke:#181818;stroke-width:1.0;" width="10" x="1089.5" y="171.4199"/><line style="stroke:#181818;stroke-width:0.5;stroke-dasharray:5.0,5.0;" x1="41" x2="41" y1="81.4883" y2="319.6621"/><line style="stroke:#181818;stroke-width:0.5;stroke-dasharray:5.0,5.0;" x1="418.5" x2="418.5" y1="81.4883" y2="319.6621"/><line style="stroke:#181818;stroke-width:0.5;stroke-dasharray:5.0,5.0;" x1="756" x2="756" y1="81.4883" y2="319.6621"/><line style="stroke:#181818;stroke-width:0.5;stroke-dasharray:5.0,5.0;" x1="1094.5" x2="1094.5" y1="81.4883" y2="319.6621"/><text fill="#000000" font-family="sans-serif" font-size="14" lengthAdjust="spacing" textLength="67" x="5" y="78.5352">Utilizador</text><ellipse cx="41.5" cy="13.5" fill="#E2E2F0" rx="8" ry="8" style="stroke:#181818;stroke-width:0.5;"/><path d="M41.5,21.5 L41.5,48.5 M28.5,29.5 L54.5,29.5 M41.5,48.5 L28.5,63.5 M41.5,48.5 L54.5,63.5 " fill="none" style="stroke:#181818;stroke-width:0.5;"/><text fill="#000000" font-family="sans-serif" font-size="14" lengthAdjust="spacing" textLength="67" x="5" y="332.1973">Utilizador</text><ellipse cx="41.5" cy="343.6504" fill="#E2E2F0" rx="8" ry="8" style="stroke:#181818;stroke-width:0.5;"/><path d="M41.5,351.6504 L41.5,378.6504 M28.5,359.6504 L54.5,359.6504 M41.5,378.6504 L28.5,393.6504 M41.5,378.6504 L54.5,393.6504 " fill="none" style="stroke:#181818;stroke-width:0.5;"/><rect fill="#E2E2F0" height="30.4883" rx="2.5" ry="2.5" style="stroke:#181818;stroke-width:0.5;" width="102" x="367.5" y="50"/><text fill="#000000" font-family="sans-serif" font-size="14" lengthAdjust="spacing" textLength="88" x="374.5" y="70.5352">RobDroneGo</text><rect fill="#E2E2F0" height="30.4883" rx="2.5" ry="2.5" style="stroke:#181818;stroke-width:0.5;" width="102" x="367.5" y="318.6621"/><text fill="#000000" font-family="sans-serif" font-size="14" lengthAdjust="spacing" textLength="88" x="374.5" y="339.1973">RobDroneGo</text><rect fill="#E2E2F0" height="30.4883" rx="2.5" ry="2.5" style="stroke:#181818;stroke-width:0.5;" width="77" x="718" y="50"/><text fill="#000000" font-family="sans-serif" font-size="14" lengthAdjust="spacing" textLength="63" x="725" y="70.5352">Frontend</text><rect fill="#E2E2F0" height="30.4883" rx="2.5" ry="2.5" style="stroke:#181818;stroke-width:0.5;" width="77" x="718" y="318.6621"/><text fill="#000000" font-family="sans-serif" font-size="14" lengthAdjust="spacing" textLength="63" x="725" y="339.1973">Frontend</text><rect fill="#E2E2F0" height="30.4883" rx="2.5" ry="2.5" style="stroke:#181818;stroke-width:0.5;" width="116" x="1036.5" y="50"/><text fill="#000000" font-family="sans-serif" font-size="14" lengthAdjust="spacing" textLength="102" x="1043.5" y="70.5352">Gest&#227;o Tarefas</text><rect fill="#E2E2F0" height="30.4883" rx="2.5" ry="2.5" style="stroke:#181818;stroke-width:0.5;" width="116" x="1036.5" y="318.6621"/><text fill="#000000" font-family="sans-serif" font-size="14" lengthAdjust="spacing" textLength="102" x="1043.5" y="339.1973">Gest&#227;o Tarefas</text><rect fill="#FFFFFF" height="188.8633" style="stroke:#181818;stroke-width:1.0;" width="10" x="413.5" y="112.7988"/><rect fill="#FFFFFF" height="130.2422" style="stroke:#181818;stroke-width:1.0;" width="10" x="751.5" y="142.1094"/><rect fill="#FFFFFF" height="71.6211" style="stroke:#181818;stroke-width:1.0;" width="10" x="1089.5" y="171.4199"/><polygon fill="#181818" points="401.5,108.7988,411.5,112.7988,401.5,116.7988,405.5,112.7988" style="stroke:#181818;stroke-width:1.0;"/><line style="stroke:#181818;stroke-width:1.0;" x1="41.5" x2="407.5" y1="112.7988" y2="112.7988"/><text fill="#000000" font-family="sans-serif" font-size="13" lengthAdjust="spacing" textLength="151" x="48.5" y="108.0566">Listar tarefas pendentes</text><polygon fill="#181818" points="739.5,138.1094,749.5,142.1094,739.5,146.1094,743.5,142.1094" style="stroke:#181818;stroke-width:1.0;"/><line style="stroke:#181818;stroke-width:1.0;" x1="423.5" x2="745.5" y1="142.1094" y2="142.1094"/><text fill="#000000" font-family="sans-serif" font-size="13" lengthAdjust="spacing" textLength="151" x="430.5" y="137.3672">Listar tarefas pendentes</text><polygon fill="#181818" points="1077.5,167.4199,1087.5,171.4199,1077.5,175.4199,1081.5,171.4199" style="stroke:#181818;stroke-width:1.0;"/><line style="stroke:#181818;stroke-width:1.0;" x1="761.5" x2="1083.5" y1="171.4199" y2="171.4199"/><text fill="#000000" font-family="sans-serif" font-size="13" lengthAdjust="spacing" textLength="152" x="768.5" y="166.6777">Busca tarefas pendentes</text><line style="stroke:#181818;stroke-width:1.0;" x1="1099.5" x2="1141.5" y1="200.7305" y2="200.7305"/><line style="stroke:#181818;stroke-width:1.0;" x1="1141.5" x2="1141.5" y1="200.7305" y2="213.7305"/><line style="stroke:#181818;stroke-width:1.0;" x1="1100.5" x2="1141.5" y1="213.7305" y2="213.7305"/><polygon fill="#181818" points="1110.5,209.7305,1100.5,213.7305,1110.5,217.7305,1106.5,213.7305" style="stroke:#181818;stroke-width:1.0;"/><text fill="#000000" font-family="sans-serif" font-size="13" lengthAdjust="spacing" textLength="152" x="1106.5" y="195.9883">Busca tarefas pendentes</text><polygon fill="#181818" points="772.5,239.041,762.5,243.041,772.5,247.041,768.5,243.041" style="stroke:#181818;stroke-width:1.0;"/><line style="stroke:#181818;stroke-width:1.0;" x1="766.5" x2="1093.5" y1="243.041" y2="243.041"/><text fill="#000000" font-family="sans-serif" font-size="13" lengthAdjust="spacing" textLength="304" x="778.5" y="238.2988">Lista de tarefas pendentes/erro ao obter tarefas;</text><polygon fill="#181818" points="434.5,268.3516,424.5,272.3516,434.5,276.3516,430.5,272.3516" style="stroke:#181818;stroke-width:1.0;"/><line style="stroke:#181818;stroke-width:1.0;" x1="428.5" x2="755.5" y1="272.3516" y2="272.3516"/><text fill="#000000" font-family="sans-serif" font-size="13" lengthAdjust="spacing" textLength="304" x="440.5" y="267.6094">Lista de tarefas pendentes/erro ao obter tarefas;</text><polygon fill="#181818" points="52.5,297.6621,42.5,301.6621,52.5,305.6621,48.5,301.6621" style="stroke:#181818;stroke-width:1.0;"/><line style="stroke:#181818;stroke-width:1.0;stroke-dasharray:2.0,2.0;" x1="46.5" x2="417.5" y1="301.6621" y2="301.6621"/><text fill="#000000" font-family="sans-serif" font-size="13" lengthAdjust="spacing" textLength="348" x="58.5" y="296.9199">Mostra lista de tarefas pendentes/erro ao obter tarefas;</text><!--SRC=[fP5D2i9038NtSuhWlhfNSI5YAUX6xG5Y6s50cvA9BhoEH_5YZgtJ-eU8xYRCzrvU4ioK1LArMtl4dCMKA6epMsAXq5dmUY9SKCmTG0TBwvHs-CXCFQ1Kv1MH9e-VCJazdnXMABH1Lp5nzrOPq_Q5Q1JieGyp_q81hJaelJtv9ivWflQ0IaqK4qHUdoRVA7r4aoPNlWdYEuxtBiDFihlKhUvRbvQfOeO98QTNk4SY3CZ0QwLcae79wLsMUfAdpVtgMwscFSamYe9p7-RiL12s__Y7erq0]--></g></svg>