<?xml version="1.0" encoding="us-ascii" standalone="no"?><svg xmlns="http://www.w3.org/2000/svg" xmlns:xlink="http://www.w3.org/1999/xlink" contentStyleType="text/css" height="635px" preserveAspectRatio="none" style="width:1908px;height:635px;background:#FFFFFF;" version="1.1" viewBox="0 0 1908 635" width="1908px" zoomAndPan="magnify"><defs/><g><rect fill="#FFFFFF" height="146.5527" style="stroke:#181818;stroke-width:1.0;" width="10" x="460.5" y="112.7988"/><rect fill="#FFFFFF" height="247.4844" style="stroke:#181818;stroke-width:1.0;" width="10" x="460.5" y="288.6621"/><rect fill="#FFFFFF" height="87.9316" style="stroke:#181818;stroke-width:1.0;" width="10" x="891.5" y="142.1094"/><rect fill="#FFFFFF" height="188.8633" style="stroke:#181818;stroke-width:1.0;" width="10" x="891.5" y="317.9727"/><rect fill="#FFFFFF" height="29.3105" style="stroke:#181818;stroke-width:1.0;" width="10" x="1322.5" y="171.4199"/><rect fill="#FFFFFF" height="130.2422" style="stroke:#181818;stroke-width:1.0;" width="10" x="1322.5" y="347.2832"/><rect fill="#FFFFFF" height="71.6211" style="stroke:#181818;stroke-width:1.0;" width="10" x="1704.5" y="376.5938"/><line style="stroke:#181818;stroke-width:0.5;stroke-dasharray:5.0,5.0;" x1="41" x2="41" y1="81.4883" y2="554.1465"/><line style="stroke:#181818;stroke-width:0.5;stroke-dasharray:5.0,5.0;" x1="465.5" x2="465.5" y1="81.4883" y2="554.1465"/><line style="stroke:#181818;stroke-width:0.5;stroke-dasharray:5.0,5.0;" x1="896" x2="896" y1="81.4883" y2="554.1465"/><line style="stroke:#181818;stroke-width:0.5;stroke-dasharray:5.0,5.0;" x1="1327.5" x2="1327.5" y1="81.4883" y2="554.1465"/><line style="stroke:#181818;stroke-width:0.5;stroke-dasharray:5.0,5.0;" x1="1709" x2="1709" y1="81.4883" y2="554.1465"/><text fill="#000000" font-family="sans-serif" font-size="14" lengthAdjust="spacing" textLength="67" x="5" y="78.5352">Utilizador</text><ellipse cx="41.5" cy="13.5" fill="#E2E2F0" rx="8" ry="8" style="stroke:#181818;stroke-width:0.5;"/><path d="M41.5,21.5 L41.5,48.5 M28.5,29.5 L54.5,29.5 M41.5,48.5 L28.5,63.5 M41.5,48.5 L54.5,63.5 " fill="none" style="stroke:#181818;stroke-width:0.5;"/><text fill="#000000" font-family="sans-serif" font-size="14" lengthAdjust="spacing" textLength="67" x="5" y="566.6816">Utilizador</text><ellipse cx="41.5" cy="578.1348" fill="#E2E2F0" rx="8" ry="8" style="stroke:#181818;stroke-width:0.5;"/><path d="M41.5,586.1348 L41.5,613.1348 M28.5,594.1348 L54.5,594.1348 M41.5,613.1348 L28.5,628.1348 M41.5,613.1348 L54.5,628.1348 " fill="none" style="stroke:#181818;stroke-width:0.5;"/><rect fill="#E2E2F0" height="30.4883" rx="2.5" ry="2.5" style="stroke:#181818;stroke-width:0.5;" width="102" x="414.5" y="50"/><text fill="#000000" font-family="sans-serif" font-size="14" lengthAdjust="spacing" textLength="88" x="421.5" y="70.5352">RobDroneGo</text><rect fill="#E2E2F0" height="30.4883" rx="2.5" ry="2.5" style="stroke:#181818;stroke-width:0.5;" width="102" x="414.5" y="553.1465"/><text fill="#000000" font-family="sans-serif" font-size="14" lengthAdjust="spacing" textLength="88" x="421.5" y="573.6816">RobDroneGo</text><rect fill="#E2E2F0" height="30.4883" rx="2.5" ry="2.5" style="stroke:#181818;stroke-width:0.5;" width="77" x="858" y="50"/><text fill="#000000" font-family="sans-serif" font-size="14" lengthAdjust="spacing" textLength="63" x="865" y="70.5352">Frontend</text><rect fill="#E2E2F0" height="30.4883" rx="2.5" ry="2.5" style="stroke:#181818;stroke-width:0.5;" width="77" x="858" y="553.1465"/><text fill="#000000" font-family="sans-serif" font-size="14" lengthAdjust="spacing" textLength="63" x="865" y="573.6816">Frontend</text><rect fill="#E2E2F0" height="30.4883" rx="2.5" ry="2.5" style="stroke:#181818;stroke-width:0.5;" width="116" x="1269.5" y="50"/><text fill="#000000" font-family="sans-serif" font-size="14" lengthAdjust="spacing" textLength="102" x="1276.5" y="70.5352">Gest&#227;o Tarefas</text><rect fill="#E2E2F0" height="30.4883" rx="2.5" ry="2.5" style="stroke:#181818;stroke-width:0.5;" width="116" x="1269.5" y="553.1465"/><text fill="#000000" font-family="sans-serif" font-size="14" lengthAdjust="spacing" textLength="102" x="1276.5" y="573.6816">Gest&#227;o Tarefas</text><rect fill="#E2E2F0" height="30.4883" rx="2.5" ry="2.5" style="stroke:#181818;stroke-width:0.5;" width="103" x="1658" y="50"/><text fill="#000000" font-family="sans-serif" font-size="14" lengthAdjust="spacing" textLength="89" x="1665" y="70.5352">Planeamento</text><rect fill="#E2E2F0" height="30.4883" rx="2.5" ry="2.5" style="stroke:#181818;stroke-width:0.5;" width="103" x="1658" y="553.1465"/><text fill="#000000" font-family="sans-serif" font-size="14" lengthAdjust="spacing" textLength="89" x="1665" y="573.6816">Planeamento</text><rect fill="#FFFFFF" height="146.5527" style="stroke:#181818;stroke-width:1.0;" width="10" x="460.5" y="112.7988"/><rect fill="#FFFFFF" height="247.4844" style="stroke:#181818;stroke-width:1.0;" width="10" x="460.5" y="288.6621"/><rect fill="#FFFFFF" height="87.9316" style="stroke:#181818;stroke-width:1.0;" width="10" x="891.5" y="142.1094"/><rect fill="#FFFFFF" height="188.8633" style="stroke:#181818;stroke-width:1.0;" width="10" x="891.5" y="317.9727"/><rect fill="#FFFFFF" height="29.3105" style="stroke:#181818;stroke-width:1.0;" width="10" x="1322.5" y="171.4199"/><rect fill="#FFFFFF" height="130.2422" style="stroke:#181818;stroke-width:1.0;" width="10" x="1322.5" y="347.2832"/><rect fill="#FFFFFF" height="71.6211" style="stroke:#181818;stroke-width:1.0;" width="10" x="1704.5" y="376.5938"/><polygon fill="#181818" points="448.5,108.7988,458.5,112.7988,448.5,116.7988,452.5,112.7988" style="stroke:#181818;stroke-width:1.0;"/><line style="stroke:#181818;stroke-width:1.0;" x1="41.5" x2="454.5" y1="112.7988" y2="112.7988"/><text fill="#000000" font-family="sans-serif" font-size="13" lengthAdjust="spacing" textLength="96" x="48.5" y="108.0566">Planear tarefas;</text><polygon fill="#181818" points="879.5,138.1094,889.5,142.1094,879.5,146.1094,883.5,142.1094" style="stroke:#181818;stroke-width:1.0;"/><line style="stroke:#181818;stroke-width:1.0;" x1="470.5" x2="885.5" y1="142.1094" y2="142.1094"/><text fill="#000000" font-family="sans-serif" font-size="13" lengthAdjust="spacing" textLength="96" x="477.5" y="137.3672">Planear tarefas;</text><polygon fill="#181818" points="1310.5,167.4199,1320.5,171.4199,1310.5,175.4199,1314.5,171.4199" style="stroke:#181818;stroke-width:1.0;"/><line style="stroke:#181818;stroke-width:1.0;" x1="901.5" x2="1316.5" y1="171.4199" y2="171.4199"/><text fill="#000000" font-family="sans-serif" font-size="13" lengthAdjust="spacing" textLength="249" x="908.5" y="166.6777">Busca tarefas aprovadas n&#227;o planeadas;</text><polygon fill="#181818" points="912.5,196.7305,902.5,200.7305,912.5,204.7305,908.5,200.7305" style="stroke:#181818;stroke-width:1.0;"/><line style="stroke:#181818;stroke-width:1.0;" x1="906.5" x2="1326.5" y1="200.7305" y2="200.7305"/><text fill="#000000" font-family="sans-serif" font-size="13" lengthAdjust="spacing" textLength="397" x="918.5" y="195.9883">Lista de tarefas aprovadas n&#227;o planeadas/erro ao obter tarefas;</text><polygon fill="#181818" points="481.5,226.041,471.5,230.041,481.5,234.041,477.5,230.041" style="stroke:#181818;stroke-width:1.0;"/><line style="stroke:#181818;stroke-width:1.0;" x1="475.5" x2="895.5" y1="230.041" y2="230.041"/><text fill="#000000" font-family="sans-serif" font-size="13" lengthAdjust="spacing" textLength="397" x="487.5" y="225.2988">Lista de tarefas aprovadas n&#227;o planeadas/erro ao obter tarefas;</text><polygon fill="#181818" points="52.5,255.3516,42.5,259.3516,52.5,263.3516,48.5,259.3516" style="stroke:#181818;stroke-width:1.0;"/><line style="stroke:#181818;stroke-width:1.0;" x1="46.5" x2="464.5" y1="259.3516" y2="259.3516"/><text fill="#000000" font-family="sans-serif" font-size="13" lengthAdjust="spacing" textLength="391" x="58.5" y="254.6094">Mostra tarefas aprovadas n&#227;o planeadas/erro ao obter tarefas;</text><polygon fill="#181818" points="448.5,284.6621,458.5,288.6621,448.5,292.6621,452.5,288.6621" style="stroke:#181818;stroke-width:1.0;"/><line style="stroke:#181818;stroke-width:1.0;" x1="41.5" x2="454.5" y1="288.6621" y2="288.6621"/><text fill="#000000" font-family="sans-serif" font-size="13" lengthAdjust="spacing" textLength="191" x="48.5" y="283.9199">Seleciona tarefas para planear;</text><polygon fill="#181818" points="879.5,313.9727,889.5,317.9727,879.5,321.9727,883.5,317.9727" style="stroke:#181818;stroke-width:1.0;"/><line style="stroke:#181818;stroke-width:1.0;" x1="470.5" x2="885.5" y1="317.9727" y2="317.9727"/><text fill="#000000" font-family="sans-serif" font-size="13" lengthAdjust="spacing" textLength="266" x="477.5" y="313.2305">Lista de tarefas selecionadas para planear;</text><polygon fill="#181818" points="1310.5,343.2832,1320.5,347.2832,1310.5,351.2832,1314.5,347.2832" style="stroke:#181818;stroke-width:1.0;"/><line style="stroke:#181818;stroke-width:1.0;" x1="901.5" x2="1316.5" y1="347.2832" y2="347.2832"/><text fill="#000000" font-family="sans-serif" font-size="13" lengthAdjust="spacing" textLength="266" x="908.5" y="342.541">Lista de tarefas selecionadas para planear;</text><polygon fill="#181818" points="1692.5,372.5938,1702.5,376.5938,1692.5,380.5938,1696.5,376.5938" style="stroke:#181818;stroke-width:1.0;"/><line style="stroke:#181818;stroke-width:1.0;" x1="1332.5" x2="1698.5" y1="376.5938" y2="376.5938"/><text fill="#000000" font-family="sans-serif" font-size="13" lengthAdjust="spacing" textLength="266" x="1339.5" y="371.8516">Lista de tarefas selecionadas para planear;</text><line style="stroke:#181818;stroke-width:1.0;" x1="1714.5" x2="1756.5" y1="405.9043" y2="405.9043"/><line style="stroke:#181818;stroke-width:1.0;" x1="1756.5" x2="1756.5" y1="405.9043" y2="418.9043"/><line style="stroke:#181818;stroke-width:1.0;" x1="1715.5" x2="1756.5" y1="418.9043" y2="418.9043"/><polygon fill="#181818" points="1725.5,414.9043,1715.5,418.9043,1725.5,422.9043,1721.5,418.9043" style="stroke:#181818;stroke-width:1.0;"/><text fill="#000000" font-family="sans-serif" font-size="13" lengthAdjust="spacing" textLength="180" x="1721.5" y="401.1621">Planeia tarefas selecionadas;</text><polygon fill="#181818" points="1343.5,444.2148,1333.5,448.2148,1343.5,452.2148,1339.5,448.2148" style="stroke:#181818;stroke-width:1.0;"/><line style="stroke:#181818;stroke-width:1.0;" x1="1337.5" x2="1708.5" y1="448.2148" y2="448.2148"/><text fill="#000000" font-family="sans-serif" font-size="13" lengthAdjust="spacing" textLength="348" x="1349.5" y="443.4727">Sequ&#234;ncia de tarefas planeadas/erro ao planear tarefas;</text><polygon fill="#181818" points="912.5,473.5254,902.5,477.5254,912.5,481.5254,908.5,477.5254" style="stroke:#181818;stroke-width:1.0;"/><line style="stroke:#181818;stroke-width:1.0;" x1="906.5" x2="1326.5" y1="477.5254" y2="477.5254"/><text fill="#000000" font-family="sans-serif" font-size="13" lengthAdjust="spacing" textLength="348" x="918.5" y="472.7832">Sequ&#234;ncia de tarefas planeadas/erro ao planear tarefas;</text><polygon fill="#181818" points="481.5,502.8359,471.5,506.8359,481.5,510.8359,477.5,506.8359" style="stroke:#181818;stroke-width:1.0;"/><line style="stroke:#181818;stroke-width:1.0;" x1="475.5" x2="895.5" y1="506.8359" y2="506.8359"/><text fill="#000000" font-family="sans-serif" font-size="13" lengthAdjust="spacing" textLength="348" x="487.5" y="502.0938">Sequ&#234;ncia de tarefas planeadas/erro ao planear tarefas;</text><polygon fill="#181818" points="52.5,532.1465,42.5,536.1465,52.5,540.1465,48.5,536.1465" style="stroke:#181818;stroke-width:1.0;"/><line style="stroke:#181818;stroke-width:1.0;" x1="46.5" x2="464.5" y1="536.1465" y2="536.1465"/><text fill="#000000" font-family="sans-serif" font-size="13" lengthAdjust="spacing" textLength="395" x="58.5" y="531.4043">Mostra sequ&#234;ncia de tarefas planeadas/erro ao planear tarefas;</text><!--SRC=[hLFBQiCm4BpxAvRSszuJwA6K6aC3fQu_O2DjGU18hhJ9eR_JMtyZFrR5Jycn6mY-MNXsPdPd5mKR2mMhKdsZD3QfqB8IgaBDi7etksThDALc1UWWLuvfZp7cnGEOjAmHHHR_JCdnwSV01rhwH5TZqlls5KFVIjI4UzBSY0Nl91aCmjrZvmFMBSW2DuoR10Mh8pBrNfCExEkAxByAxpqfiZEkT-WLdWvEO8S6hAmvelHV-jnMLPF9Y6PeRw2fjJqPl7ep29Ak4ZwGjGRGWDan1MubJGWrheUfBAdYfn9ESCXX3LlZsE8I8drOSpddL99GHWzgVdUmrR0JiKUfJut4TOnodiptVhaGDp7DB4MmuxSoXsSIqiNixTuhdEJUZ2l3VdFwEfn-jL2HjSjqg_5X1Vc69aTNuOzY2ONvOrY4_leLk0LKkkNz0m00]--></g></svg>