<?xml version="1.0" encoding="UTF-8" standalone="no"?><svg xmlns="http://www.w3.org/2000/svg" xmlns:xlink="http://www.w3.org/1999/xlink" contentStyleType="text/css" height="613px" preserveAspectRatio="none" style="width:1596px;height:613px;background:#FFFFFF;" version="1.1" viewBox="0 0 1596 613" width="1596px" zoomAndPan="magnify"><defs/><g><text fill="#000000" font-family="sans-serif" font-size="14" font-weight="bold" lengthAdjust="spacing" textLength="143" x="725" y="29.9659">US150 - Criar edifício</text><rect fill="#FFFFFF" height="427.3997" style="stroke:#181818;stroke-width:1.0;" width="10" x="192" y="130.5479"/><rect fill="#FFFFFF" height="386.1598" style="stroke:#181818;stroke-width:1.0;" width="10" x="367" y="171.7878"/><rect fill="#FFFFFF" height="344.9198" style="stroke:#181818;stroke-width:1.0;" width="10" x="542" y="213.0278"/><rect fill="#FFFFFF" height="179.9599" style="stroke:#181818;stroke-width:1.0;" width="10" x="742" y="377.9877"/><rect fill="#FFFFFF" height="303.6798" style="stroke:#181818;stroke-width:1.0;" width="10" x="840" y="254.2678"/><line style="stroke:#181818;stroke-width:0.5;stroke-dasharray:5.0,5.0;" x1="197" x2="197" y1="87.3079" y2="566.9476"/><line style="stroke:#181818;stroke-width:0.5;stroke-dasharray:5.0,5.0;" x1="371.5" x2="371.5" y1="87.3079" y2="566.9476"/><line style="stroke:#181818;stroke-width:0.5;stroke-dasharray:5.0,5.0;" x1="547" x2="547" y1="87.3079" y2="566.9476"/><line style="stroke:#181818;stroke-width:0.5;stroke-dasharray:5.0,5.0;" x1="747" x2="747" y1="87.3079" y2="566.9476"/><line style="stroke:#181818;stroke-width:0.5;stroke-dasharray:5.0,5.0;" x1="845" x2="845" y1="87.3079" y2="566.9476"/><rect fill="#E2E2F0" height="41.24" rx="2.5" ry="2.5" style="stroke:#181818;stroke-width:0.5;" width="68" x="163" y="45.0679"/><text fill="#000000" font-family="sans-serif" font-size="20" lengthAdjust="spacing" textLength="54" x="170" y="73.4479">Route</text><rect fill="#E2E2F0" height="41.24" rx="2.5" ry="2.5" style="stroke:#181818;stroke-width:0.5;" width="68" x="163" y="565.9476"/><text fill="#000000" font-family="sans-serif" font-size="20" lengthAdjust="spacing" textLength="54" x="170" y="594.3276">Route</text><rect fill="#E2E2F0" height="41.24" rx="2.5" ry="2.5" style="stroke:#181818;stroke-width:0.5;" width="107" x="318.5" y="45.0679"/><text fill="#000000" font-family="sans-serif" font-size="20" lengthAdjust="spacing" textLength="93" x="325.5" y="73.4479">Controller</text><rect fill="#E2E2F0" height="41.24" rx="2.5" ry="2.5" style="stroke:#181818;stroke-width:0.5;" width="107" x="318.5" y="565.9476"/><text fill="#000000" font-family="sans-serif" font-size="20" lengthAdjust="spacing" textLength="93" x="325.5" y="594.3276">Controller</text><rect fill="#E2E2F0" height="41.24" rx="2.5" ry="2.5" style="stroke:#181818;stroke-width:0.5;" width="80" x="507" y="45.0679"/><text fill="#000000" font-family="sans-serif" font-size="20" lengthAdjust="spacing" textLength="66" x="514" y="73.4479">Service</text><rect fill="#E2E2F0" height="41.24" rx="2.5" ry="2.5" style="stroke:#181818;stroke-width:0.5;" width="80" x="507" y="565.9476"/><text fill="#000000" font-family="sans-serif" font-size="20" lengthAdjust="spacing" textLength="66" x="514" y="594.3276">Service</text><rect fill="#E2E2F0" height="41.24" rx="2.5" ry="2.5" style="stroke:#181818;stroke-width:0.5;" width="120" x="687" y="45.0679"/><text fill="#000000" font-family="sans-serif" font-size="20" lengthAdjust="spacing" textLength="106" x="694" y="73.4479">Repositorio</text><rect fill="#E2E2F0" height="41.24" rx="2.5" ry="2.5" style="stroke:#181818;stroke-width:0.5;" width="120" x="687" y="565.9476"/><text fill="#000000" font-family="sans-serif" font-size="20" lengthAdjust="spacing" textLength="106" x="694" y="594.3276">Repositorio</text><rect fill="#E2E2F0" height="41.24" rx="2.5" ry="2.5" style="stroke:#181818;stroke-width:0.5;" width="56" x="817" y="45.0679"/><text fill="#000000" font-family="sans-serif" font-size="20" lengthAdjust="spacing" textLength="42" x="824" y="73.4479">DTO</text><rect fill="#E2E2F0" height="41.24" rx="2.5" ry="2.5" style="stroke:#181818;stroke-width:0.5;" width="56" x="817" y="565.9476"/><text fill="#000000" font-family="sans-serif" font-size="20" lengthAdjust="spacing" textLength="42" x="824" y="594.3276">DTO</text><rect fill="#FFFFFF" height="427.3997" style="stroke:#181818;stroke-width:1.0;" width="10" x="192" y="130.5479"/><rect fill="#FFFFFF" height="386.1598" style="stroke:#181818;stroke-width:1.0;" width="10" x="367" y="171.7878"/><rect fill="#FFFFFF" height="344.9198" style="stroke:#181818;stroke-width:1.0;" width="10" x="542" y="213.0278"/><rect fill="#FFFFFF" height="179.9599" style="stroke:#181818;stroke-width:1.0;" width="10" x="742" y="377.9877"/><rect fill="#FFFFFF" height="303.6798" style="stroke:#181818;stroke-width:1.0;" width="10" x="840" y="254.2678"/><polygon fill="#181818" points="180,126.5479,190,130.5479,180,134.5479,184,130.5479" style="stroke:#181818;stroke-width:1.0;"/><line style="stroke:#181818;stroke-width:1.0;" x1="0" x2="186" y1="130.5479" y2="130.5479"/><text fill="#000000" font-family="sans-serif" font-size="20" lengthAdjust="spacing" textLength="173" x="7" y="122.6879">post(api/buildings)</text><polygon fill="#181818" points="355,167.7878,365,171.7878,355,175.7878,359,171.7878" style="stroke:#181818;stroke-width:1.0;"/><line style="stroke:#181818;stroke-width:1.0;" x1="202" x2="361" y1="171.7878" y2="171.7878"/><text fill="#000000" font-family="sans-serif" font-size="20" lengthAdjust="spacing" textLength="146" x="209" y="163.9278">createBuilding()</text><polygon fill="#181818" points="530,209.0278,540,213.0278,530,217.0278,534,213.0278" style="stroke:#181818;stroke-width:1.0;"/><line style="stroke:#181818;stroke-width:1.0;" x1="377" x2="536" y1="213.0278" y2="213.0278"/><text fill="#000000" font-family="sans-serif" font-size="20" lengthAdjust="spacing" textLength="146" x="384" y="205.1678">createBuilding()</text><polygon fill="#181818" points="530,250.2678,540,254.2678,530,258.2678,534,254.2678" style="stroke:#181818;stroke-width:1.0;"/><line style="stroke:#181818;stroke-width:1.0;" x1="377" x2="536" y1="254.2678" y2="254.2678"/><text fill="#000000" font-family="sans-serif" font-size="20" lengthAdjust="spacing" textLength="117" x="384" y="246.4078">buildingDTO</text><polygon fill="#181818" points="828,291.5078,838,295.5078,828,299.5078,832,295.5078" style="stroke:#181818;stroke-width:1.0;"/><line style="stroke:#181818;stroke-width:1.0;" x1="552" x2="834" y1="295.5078" y2="295.5078"/><text fill="#000000" font-family="sans-serif" font-size="20" lengthAdjust="spacing" textLength="117" x="559" y="287.6478">buildingDTO</text><polygon fill="#181818" points="563,332.7477,553,336.7477,563,340.7477,559,336.7477" style="stroke:#181818;stroke-width:1.0;"/><line style="stroke:#181818;stroke-width:1.0;stroke-dasharray:2.0,2.0;" x1="557" x2="839" y1="336.7477" y2="336.7477"/><text fill="#000000" font-family="sans-serif" font-size="20" lengthAdjust="spacing" textLength="117" x="569" y="328.8877">DTObuilding</text><polygon fill="#181818" points="730,373.9877,740,377.9877,730,381.9877,734,377.9877" style="stroke:#181818;stroke-width:1.0;"/><line style="stroke:#181818;stroke-width:1.0;" x1="552" x2="736" y1="377.9877" y2="377.9877"/><text fill="#000000" font-family="sans-serif" font-size="20" lengthAdjust="spacing" textLength="171" x="559" y="370.1277">save(DTObuilding)</text><polygon fill="#181818" points="388,415.2277,378,419.2277,388,423.2277,384,419.2277" style="stroke:#181818;stroke-width:1.0;"/><line style="stroke:#181818;stroke-width:1.0;stroke-dasharray:2.0,2.0;" x1="382" x2="541" y1="419.2277" y2="419.2277"/><text fill="#000000" font-family="sans-serif" font-size="20" lengthAdjust="spacing" textLength="132" x="394" y="411.3677">buildingResult</text><polygon fill="#181818" points="213,456.4677,203,460.4677,213,464.4677,209,460.4677" style="stroke:#181818;stroke-width:1.0;"/><line style="stroke:#181818;stroke-width:1.0;stroke-dasharray:2.0,2.0;" x1="207" x2="366" y1="460.4677" y2="460.4677"/><text fill="#000000" font-family="sans-serif" font-size="20" lengthAdjust="spacing" textLength="139" x="219" y="452.6077">Resposta HTTP</text><polygon fill="#181818" points="11,497.7076,1,501.7076,11,505.7076,7,501.7076" style="stroke:#181818;stroke-width:1.0;"/><line style="stroke:#181818;stroke-width:1.0;stroke-dasharray:2.0,2.0;" x1="5" x2="191" y1="501.7076" y2="501.7076"/><text fill="#000000" font-family="sans-serif" font-size="20" lengthAdjust="spacing" textLength="139" x="17" y="493.8476">Resposta HTTP</text><path d="M207,514.7076 L207,551.7076 L1589,551.7076 L1589,524.7076 L1579,514.7076 L207,514.7076 " fill="#FEFFDD" style="stroke:#181818;stroke-width:0.5;"/><path d="M1579,514.7076 L1579,524.7076 L1589,524.7076 L1579,514.7076 " fill="#FEFFDD" style="stroke:#181818;stroke-width:0.5;"/><text fill="#000000" font-family="sans-serif" font-size="20" lengthAdjust="spacing" textLength="1361" x="213" y="541.0876">Algumas situações não estão representado por questões de simplicidade, como por exemplo interfaces e conversões de json para dto e vice-versa.</text><!--SRC=[VPDBJiCm48RtFiMego8HA4Xi44A28iGEr9O3c7XIXZfsi9q8SHqMh5XoWboCSPEqRgMoicVc- -rvs7v5ff9EbjhcArIWi92r3lVMX3bz8fnFHA2W4PxdPnSJo63gI3f0HKNxavCLWjM1Sgga2J2QsJhW2AI7zMutEEL3dTKQtPhOchlO75r3UNTAlz-x12lhALX7jhjgQ- -2Tul7DS2h4DbrbnDS0kDXB2iwVQb9Ap9BVoHa7gYH7EuIxr3MRBDaOUwGaTjUDKvKIJ69WlLz1V-AXoeFAOSqOnqRKJG6X6aszyZeoNREOSy0fDAaVmnvsU0u8TFM98tUwFTxDEXcwFaX9JLboGGu68SWuM6nU19NMNOW8enbhwFbQm1RzBEvqSkwvB5oAhLilzjVz63QBmleGrmSLWuzcY2LvLaxUAzZ968AMLLMcf-8aWgF8RTbn-07ijy2cO2ka3d3o57JeFE3zCrR0_6tW0fy6yG6P16G9mADWfZi7m00]--></g></svg>