<?xml version="1.0" encoding="UTF-8" standalone="no"?><svg xmlns="http://www.w3.org/2000/svg" xmlns:xlink="http://www.w3.org/1999/xlink" contentStyleType="text/css" height="571px" preserveAspectRatio="none" style="width:1454px;height:571px;background:#FFFFFF;" version="1.1" viewBox="0 0 1454 571" width="1454px" zoomAndPan="magnify"><defs/><g><text fill="#000000" font-family="sans-serif" font-size="14" font-weight="bold" lengthAdjust="spacing" textLength="151" x="650" y="29.9659">US160 - Editar edifício</text><rect fill="#FFFFFF" height="386.1598" style="stroke:#181818;stroke-width:1.0;" width="10" x="376" y="130.5479"/><rect fill="#FFFFFF" height="344.9198" style="stroke:#181818;stroke-width:1.0;" width="10" x="558" y="171.7878"/><rect fill="#FFFFFF" height="303.6798" style="stroke:#181818;stroke-width:1.0;" width="10" x="740" y="213.0278"/><rect fill="#FFFFFF" height="179.9599" style="stroke:#181818;stroke-width:1.0;" width="10" x="1158" y="336.7477"/><line style="stroke:#181818;stroke-width:0.5;stroke-dasharray:5.0,5.0;" x1="381" x2="381" y1="87.3079" y2="525.7076"/><line style="stroke:#181818;stroke-width:0.5;stroke-dasharray:5.0,5.0;" x1="562.5" x2="562.5" y1="87.3079" y2="525.7076"/><line style="stroke:#181818;stroke-width:0.5;stroke-dasharray:5.0,5.0;" x1="745" x2="745" y1="87.3079" y2="525.7076"/><line style="stroke:#181818;stroke-width:0.5;stroke-dasharray:5.0,5.0;" x1="1163" x2="1163" y1="87.3079" y2="525.7076"/><rect fill="#E2E2F0" height="41.24" rx="2.5" ry="2.5" style="stroke:#181818;stroke-width:0.5;" width="68" x="347" y="45.0679"/><text fill="#000000" font-family="sans-serif" font-size="20" lengthAdjust="spacing" textLength="54" x="354" y="73.4479">Route</text><rect fill="#E2E2F0" height="41.24" rx="2.5" ry="2.5" style="stroke:#181818;stroke-width:0.5;" width="68" x="347" y="524.7076"/><text fill="#000000" font-family="sans-serif" font-size="20" lengthAdjust="spacing" textLength="54" x="354" y="553.0876">Route</text><rect fill="#E2E2F0" height="41.24" rx="2.5" ry="2.5" style="stroke:#181818;stroke-width:0.5;" width="107" x="509.5" y="45.0679"/><text fill="#000000" font-family="sans-serif" font-size="20" lengthAdjust="spacing" textLength="93" x="516.5" y="73.4479">Controller</text><rect fill="#E2E2F0" height="41.24" rx="2.5" ry="2.5" style="stroke:#181818;stroke-width:0.5;" width="107" x="509.5" y="524.7076"/><text fill="#000000" font-family="sans-serif" font-size="20" lengthAdjust="spacing" textLength="93" x="516.5" y="553.0876">Controller</text><rect fill="#E2E2F0" height="41.24" rx="2.5" ry="2.5" style="stroke:#181818;stroke-width:0.5;" width="80" x="705" y="45.0679"/><text fill="#000000" font-family="sans-serif" font-size="20" lengthAdjust="spacing" textLength="66" x="712" y="73.4479">Service</text><rect fill="#E2E2F0" height="41.24" rx="2.5" ry="2.5" style="stroke:#181818;stroke-width:0.5;" width="80" x="705" y="524.7076"/><text fill="#000000" font-family="sans-serif" font-size="20" lengthAdjust="spacing" textLength="66" x="712" y="553.0876">Service</text><rect fill="#E2E2F0" height="41.24" rx="2.5" ry="2.5" style="stroke:#181818;stroke-width:0.5;" width="120" x="1103" y="45.0679"/><text fill="#000000" font-family="sans-serif" font-size="20" lengthAdjust="spacing" textLength="106" x="1110" y="73.4479">Repositorio</text><rect fill="#E2E2F0" height="41.24" rx="2.5" ry="2.5" style="stroke:#181818;stroke-width:0.5;" width="120" x="1103" y="524.7076"/><text fill="#000000" font-family="sans-serif" font-size="20" lengthAdjust="spacing" textLength="106" x="1110" y="553.0876">Repositorio</text><rect fill="#FFFFFF" height="386.1598" style="stroke:#181818;stroke-width:1.0;" width="10" x="376" y="130.5479"/><rect fill="#FFFFFF" height="344.9198" style="stroke:#181818;stroke-width:1.0;" width="10" x="558" y="171.7878"/><rect fill="#FFFFFF" height="303.6798" style="stroke:#181818;stroke-width:1.0;" width="10" x="740" y="213.0278"/><rect fill="#FFFFFF" height="179.9599" style="stroke:#181818;stroke-width:1.0;" width="10" x="1158" y="336.7477"/><polygon fill="#181818" points="364,126.5479,374,130.5479,364,134.5479,368,130.5479" style="stroke:#181818;stroke-width:1.0;"/><line style="stroke:#181818;stroke-width:1.0;" x1="0" x2="370" y1="130.5479" y2="130.5479"/><text fill="#000000" font-family="sans-serif" font-size="20" lengthAdjust="spacing" textLength="357" x="7" y="122.6879">patch(api/buildings); put(api/buildings)</text><polygon fill="#181818" points="546,167.7878,556,171.7878,546,175.7878,550,171.7878" style="stroke:#181818;stroke-width:1.0;"/><line style="stroke:#181818;stroke-width:1.0;" x1="386" x2="552" y1="171.7878" y2="171.7878"/><text fill="#000000" font-family="sans-serif" font-size="20" lengthAdjust="spacing" textLength="153" x="393" y="163.9278">updateBuilding()</text><polygon fill="#181818" points="728,209.0278,738,213.0278,728,217.0278,732,213.0278" style="stroke:#181818;stroke-width:1.0;"/><line style="stroke:#181818;stroke-width:1.0;" x1="568" x2="734" y1="213.0278" y2="213.0278"/><text fill="#000000" font-family="sans-serif" font-size="20" lengthAdjust="spacing" textLength="153" x="575" y="205.1678">updateBuilding()</text><polygon fill="#181818" points="728,250.2678,738,254.2678,728,258.2678,732,254.2678" style="stroke:#181818;stroke-width:1.0;"/><line style="stroke:#181818;stroke-width:1.0;" x1="568" x2="734" y1="254.2678" y2="254.2678"/><text fill="#000000" font-family="sans-serif" font-size="20" lengthAdjust="spacing" textLength="117" x="575" y="246.4078">buildingDTO</text><polygon fill="#181818" points="1151,291.5078,1161,295.5078,1151,299.5078,1155,295.5078" style="stroke:#181818;stroke-width:1.0;"/><line style="stroke:#181818;stroke-width:1.0;" x1="750" x2="1157" y1="295.5078" y2="295.5078"/><text fill="#000000" font-family="sans-serif" font-size="20" lengthAdjust="spacing" textLength="389" x="757" y="287.6478">building=findByDomainId(buildingDTO.id)</text><polygon fill="#181818" points="1146,332.7477,1156,336.7477,1146,340.7477,1150,336.7477" style="stroke:#181818;stroke-width:1.0;"/><line style="stroke:#181818;stroke-width:1.0;" x1="750" x2="1152" y1="336.7477" y2="336.7477"/><text fill="#000000" font-family="sans-serif" font-size="20" lengthAdjust="spacing" textLength="129" x="757" y="328.8877">save(building)</text><polygon fill="#181818" points="579,373.9877,569,377.9877,579,381.9877,575,377.9877" style="stroke:#181818;stroke-width:1.0;"/><line style="stroke:#181818;stroke-width:1.0;stroke-dasharray:2.0,2.0;" x1="573" x2="739" y1="377.9877" y2="377.9877"/><text fill="#000000" font-family="sans-serif" font-size="20" lengthAdjust="spacing" textLength="117" x="585" y="370.1277">DTObuilding</text><polygon fill="#181818" points="397,415.2277,387,419.2277,397,423.2277,393,419.2277" style="stroke:#181818;stroke-width:1.0;"/><line style="stroke:#181818;stroke-width:1.0;stroke-dasharray:2.0,2.0;" x1="391" x2="557" y1="419.2277" y2="419.2277"/><text fill="#000000" font-family="sans-serif" font-size="20" lengthAdjust="spacing" textLength="139" x="403" y="411.3677">Resposta HTTP</text><polygon fill="#181818" points="11,456.4677,1,460.4677,11,464.4677,7,460.4677" style="stroke:#181818;stroke-width:1.0;"/><line style="stroke:#181818;stroke-width:1.0;stroke-dasharray:2.0,2.0;" x1="5" x2="375" y1="460.4677" y2="460.4677"/><text fill="#000000" font-family="sans-serif" font-size="20" lengthAdjust="spacing" textLength="139" x="17" y="452.6077">Resposta HTTP</text><path d="M755,473.4677 L755,510.4677 L1447,510.4677 L1447,483.4677 L1437,473.4677 L755,473.4677 " fill="#FEFFDD" style="stroke:#181818;stroke-width:0.5;"/><path d="M1437,473.4677 L1437,483.4677 L1447,483.4677 L1437,473.4677 " fill="#FEFFDD" style="stroke:#181818;stroke-width:0.5;"/><text fill="#000000" font-family="sans-serif" font-size="20" lengthAdjust="spacing" textLength="671" x="761" y="499.8476">O DTO não está representado por questões de simplicidade (Ver US150).</text><!--SRC=[VPBDJW8n4CVlVOe9f-MmY2PwyEk0QFI40VHUjxCmOMbhEqkYRsCyU_G9U36xBCiM4hnrFdx_-UZu1MahdLmM9bkW0eMvB0j-C9edz8bmrXTCN22yJ4ul-f32lIAM3b1Hllx9o0WHSAQChDGCdR4f6JiWFMnU-y6xeEfCKQ3RPBJcVje4tOgoMcNxFYY2rdXYuyZKfLfR24Xlwzfm2LPoDa-afPEtaWf5UkQxLs1BFl09cJ6jP63ghci-2BKj1hNIgf0os599H4MJH4JWj-t_2pSZ7YERDeVJaMYyrOpjq57IJKvQ3Jw6PYb9FwaaWdkakiS5l5pXBZjUIBJR7NoucQ3UeD4OQVGJO_H1XoKyJgVFuZfDZqI4Di7hQ3PdCFbkDwEg1EZrjm7qlFu2XzQXHyrI6R36mNjP1NxHXnC6JqjRX7DHCXZ9Q-WndEzvlziJg1LK9Vu0]--></g></svg>