<?xml version="1.0" encoding="UTF-8" standalone="no"?><svg xmlns="http://www.w3.org/2000/svg" xmlns:xlink="http://www.w3.org/1999/xlink" contentStyleType="text/css" height="489px" preserveAspectRatio="none" style="width:1255px;height:489px;background:#FFFFFF;" version="1.1" viewBox="0 0 1255 489" width="1255px" zoomAndPan="magnify"><defs/><g><text fill="#000000" font-family="sans-serif" font-size="14" font-weight="bold" lengthAdjust="spacing" textLength="220" x="516" y="29.9659">US170 - Listar todos os edifícios</text><rect fill="#FFFFFF" height="303.6798" style="stroke:#181818;stroke-width:1.0;" width="10" x="181" y="130.5479"/><rect fill="#FFFFFF" height="262.4398" style="stroke:#181818;stroke-width:1.0;" width="10" x="361" y="171.7878"/><rect fill="#FFFFFF" height="221.1999" style="stroke:#181818;stroke-width:1.0;" width="10" x="541" y="213.0278"/><rect fill="#FFFFFF" height="179.9599" style="stroke:#181818;stroke-width:1.0;" width="10" x="817" y="254.2678"/><line style="stroke:#181818;stroke-width:0.5;stroke-dasharray:5.0,5.0;" x1="186" x2="186" y1="87.3079" y2="443.2277"/><line style="stroke:#181818;stroke-width:0.5;stroke-dasharray:5.0,5.0;" x1="365.5" x2="365.5" y1="87.3079" y2="443.2277"/><line style="stroke:#181818;stroke-width:0.5;stroke-dasharray:5.0,5.0;" x1="546" x2="546" y1="87.3079" y2="443.2277"/><line style="stroke:#181818;stroke-width:0.5;stroke-dasharray:5.0,5.0;" x1="822" x2="822" y1="87.3079" y2="443.2277"/><rect fill="#E2E2F0" height="41.24" rx="2.5" ry="2.5" style="stroke:#181818;stroke-width:0.5;" width="68" x="152" y="45.0679"/><text fill="#000000" font-family="sans-serif" font-size="20" lengthAdjust="spacing" textLength="54" x="159" y="73.4479">Route</text><rect fill="#E2E2F0" height="41.24" rx="2.5" ry="2.5" style="stroke:#181818;stroke-width:0.5;" width="68" x="152" y="442.2277"/><text fill="#000000" font-family="sans-serif" font-size="20" lengthAdjust="spacing" textLength="54" x="159" y="470.6077">Route</text><rect fill="#E2E2F0" height="41.24" rx="2.5" ry="2.5" style="stroke:#181818;stroke-width:0.5;" width="107" x="312.5" y="45.0679"/><text fill="#000000" font-family="sans-serif" font-size="20" lengthAdjust="spacing" textLength="93" x="319.5" y="73.4479">Controller</text><rect fill="#E2E2F0" height="41.24" rx="2.5" ry="2.5" style="stroke:#181818;stroke-width:0.5;" width="107" x="312.5" y="442.2277"/><text fill="#000000" font-family="sans-serif" font-size="20" lengthAdjust="spacing" textLength="93" x="319.5" y="470.6077">Controller</text><rect fill="#E2E2F0" height="41.24" rx="2.5" ry="2.5" style="stroke:#181818;stroke-width:0.5;" width="80" x="506" y="45.0679"/><text fill="#000000" font-family="sans-serif" font-size="20" lengthAdjust="spacing" textLength="66" x="513" y="73.4479">Service</text><rect fill="#E2E2F0" height="41.24" rx="2.5" ry="2.5" style="stroke:#181818;stroke-width:0.5;" width="80" x="506" y="442.2277"/><text fill="#000000" font-family="sans-serif" font-size="20" lengthAdjust="spacing" textLength="66" x="513" y="470.6077">Service</text><rect fill="#E2E2F0" height="41.24" rx="2.5" ry="2.5" style="stroke:#181818;stroke-width:0.5;" width="120" x="762" y="45.0679"/><text fill="#000000" font-family="sans-serif" font-size="20" lengthAdjust="spacing" textLength="106" x="769" y="73.4479">Repositorio</text><rect fill="#E2E2F0" height="41.24" rx="2.5" ry="2.5" style="stroke:#181818;stroke-width:0.5;" width="120" x="762" y="442.2277"/><text fill="#000000" font-family="sans-serif" font-size="20" lengthAdjust="spacing" textLength="106" x="769" y="470.6077">Repositorio</text><rect fill="#FFFFFF" height="303.6798" style="stroke:#181818;stroke-width:1.0;" width="10" x="181" y="130.5479"/><rect fill="#FFFFFF" height="262.4398" style="stroke:#181818;stroke-width:1.0;" width="10" x="361" y="171.7878"/><rect fill="#FFFFFF" height="221.1999" style="stroke:#181818;stroke-width:1.0;" width="10" x="541" y="213.0278"/><rect fill="#FFFFFF" height="179.9599" style="stroke:#181818;stroke-width:1.0;" width="10" x="817" y="254.2678"/><polygon fill="#181818" points="169,126.5479,179,130.5479,169,134.5479,173,130.5479" style="stroke:#181818;stroke-width:1.0;"/><line style="stroke:#181818;stroke-width:1.0;" x1="0" x2="175" y1="130.5479" y2="130.5479"/><text fill="#000000" font-family="sans-serif" font-size="20" lengthAdjust="spacing" textLength="162" x="7" y="122.6879">get(api/buildings)</text><polygon fill="#181818" points="349,167.7878,359,171.7878,349,175.7878,353,171.7878" style="stroke:#181818;stroke-width:1.0;"/><line style="stroke:#181818;stroke-width:1.0;" x1="191" x2="355" y1="171.7878" y2="171.7878"/><text fill="#000000" font-family="sans-serif" font-size="20" lengthAdjust="spacing" textLength="151" x="198" y="163.9278">getAllBuildings()</text><polygon fill="#181818" points="529,209.0278,539,213.0278,529,217.0278,533,213.0278" style="stroke:#181818;stroke-width:1.0;"/><line style="stroke:#181818;stroke-width:1.0;" x1="371" x2="535" y1="213.0278" y2="213.0278"/><text fill="#000000" font-family="sans-serif" font-size="20" lengthAdjust="spacing" textLength="151" x="378" y="205.1678">getAllBuildings()</text><polygon fill="#181818" points="805,250.2678,815,254.2678,805,258.2678,809,254.2678" style="stroke:#181818;stroke-width:1.0;"/><line style="stroke:#181818;stroke-width:1.0;" x1="551" x2="811" y1="254.2678" y2="254.2678"/><text fill="#000000" font-family="sans-serif" font-size="20" lengthAdjust="spacing" textLength="247" x="558" y="246.4078">buildings=getAllBuildings()</text><polygon fill="#181818" points="382,291.5078,372,295.5078,382,299.5078,378,295.5078" style="stroke:#181818;stroke-width:1.0;"/><line style="stroke:#181818;stroke-width:1.0;stroke-dasharray:2.0,2.0;" x1="376" x2="540" y1="295.5078" y2="295.5078"/><text fill="#000000" font-family="sans-serif" font-size="20" lengthAdjust="spacing" textLength="127" x="388" y="287.6478">buildingsDTO</text><polygon fill="#181818" points="202,332.7477,192,336.7477,202,340.7477,198,336.7477" style="stroke:#181818;stroke-width:1.0;"/><line style="stroke:#181818;stroke-width:1.0;stroke-dasharray:2.0,2.0;" x1="196" x2="360" y1="336.7477" y2="336.7477"/><text fill="#000000" font-family="sans-serif" font-size="20" lengthAdjust="spacing" textLength="139" x="208" y="328.8877">Resposta HTTP</text><polygon fill="#181818" points="11,373.9877,1,377.9877,11,381.9877,7,377.9877" style="stroke:#181818;stroke-width:1.0;"/><line style="stroke:#181818;stroke-width:1.0;stroke-dasharray:2.0,2.0;" x1="5" x2="180" y1="377.9877" y2="377.9877"/><text fill="#000000" font-family="sans-serif" font-size="20" lengthAdjust="spacing" textLength="139" x="17" y="370.1277">Resposta HTTP</text><path d="M556,390.9877 L556,427.9877 L1248,427.9877 L1248,400.9877 L1238,390.9877 L556,390.9877 " fill="#FEFFDD" style="stroke:#181818;stroke-width:0.5;"/><path d="M1238,390.9877 L1238,400.9877 L1248,400.9877 L1238,390.9877 " fill="#FEFFDD" style="stroke:#181818;stroke-width:0.5;"/><text fill="#000000" font-family="sans-serif" font-size="20" lengthAdjust="spacing" textLength="671" x="562" y="417.3677">O DTO não está representado por questões de simplicidade (Ver US150).</text><!--SRC=[VPBFJW8n4CRlVOe99pYieeanCMhYdnWF9XX0xtKxu8JIMTjP3hwDyUpH9-3575ZONKWawQ7JcUyttxHDCmg5ZNRkEP-X0uSJMtfvu20Z-aGuxHiXyGWlevFpFcJmH4bi16772NIXeydo9oTEnYX8AAV21e7Ea4l13jW4wzrkyaxvaRt7kAvemjso4SO5vHLbizzhWWKd4ex4LQicDWQowwetNC0KfMiBEduhoJiAqzGpDXTQMCrM_gfAbJHcAjsDzxTRLRSbQvbkIHImSNfOlHrdMxposfXNRUtqwW2bFMzDsf-X9jsF1oshMUjwXfWK91OUn-DdSvbb_sHCO3sDD7qNu4azn00K3M7vpO19bbyGiOYOC8Xr30L7-2XNYLzC-iCWqRpm-eREQj1zLPFwkyxwlIE3mS6gnHy0]--></g></svg>