<?xml version="1.0" encoding="UTF-8" standalone="no"?><svg xmlns="http://www.w3.org/2000/svg" xmlns:xlink="http://www.w3.org/1999/xlink" contentStyleType="text/css" height="530px" preserveAspectRatio="none" style="width:1904px;height:530px;background:#FFFFFF;" version="1.1" viewBox="0 0 1904 530" width="1904px" zoomAndPan="magnify"><defs/><g><text fill="#000000" font-family="sans-serif" font-size="14" font-weight="bold" lengthAdjust="spacing" textLength="328" x="787" y="29.9659">US180 - Listar edifícios com min e max de pisos</text><rect fill="#FFFFFF" height="344.9198" style="stroke:#181818;stroke-width:1.0;" width="10" x="319" y="130.5479"/><rect fill="#FFFFFF" height="303.6798" style="stroke:#181818;stroke-width:1.0;" width="10" x="631" y="171.7878"/><rect fill="#FFFFFF" height="303.6798" style="stroke:#181818;stroke-width:1.0;" width="10" x="1149" y="171.7878"/><rect fill="#FFFFFF" height="262.4398" style="stroke:#181818;stroke-width:1.0;" width="10" x="1833" y="213.0278"/><line style="stroke:#181818;stroke-width:0.5;stroke-dasharray:5.0,5.0;" x1="324" x2="324" y1="87.3079" y2="484.4677"/><line style="stroke:#181818;stroke-width:0.5;stroke-dasharray:5.0,5.0;" x1="635.5" x2="635.5" y1="87.3079" y2="484.4677"/><line style="stroke:#181818;stroke-width:0.5;stroke-dasharray:5.0,5.0;" x1="1154" x2="1154" y1="87.3079" y2="484.4677"/><line style="stroke:#181818;stroke-width:0.5;stroke-dasharray:5.0,5.0;" x1="1838" x2="1838" y1="87.3079" y2="484.4677"/><rect fill="#E2E2F0" height="41.24" rx="2.5" ry="2.5" style="stroke:#181818;stroke-width:0.5;" width="68" x="290" y="45.0679"/><text fill="#000000" font-family="sans-serif" font-size="20" lengthAdjust="spacing" textLength="54" x="297" y="73.4479">Route</text><rect fill="#E2E2F0" height="41.24" rx="2.5" ry="2.5" style="stroke:#181818;stroke-width:0.5;" width="68" x="290" y="483.4677"/><text fill="#000000" font-family="sans-serif" font-size="20" lengthAdjust="spacing" textLength="54" x="297" y="511.8476">Route</text><rect fill="#E2E2F0" height="41.24" rx="2.5" ry="2.5" style="stroke:#181818;stroke-width:0.5;" width="107" x="582.5" y="45.0679"/><text fill="#000000" font-family="sans-serif" font-size="20" lengthAdjust="spacing" textLength="93" x="589.5" y="73.4479">Controller</text><rect fill="#E2E2F0" height="41.24" rx="2.5" ry="2.5" style="stroke:#181818;stroke-width:0.5;" width="107" x="582.5" y="483.4677"/><text fill="#000000" font-family="sans-serif" font-size="20" lengthAdjust="spacing" textLength="93" x="589.5" y="511.8476">Controller</text><rect fill="#E2E2F0" height="41.24" rx="2.5" ry="2.5" style="stroke:#181818;stroke-width:0.5;" width="80" x="1114" y="45.0679"/><text fill="#000000" font-family="sans-serif" font-size="20" lengthAdjust="spacing" textLength="66" x="1121" y="73.4479">Service</text><rect fill="#E2E2F0" height="41.24" rx="2.5" ry="2.5" style="stroke:#181818;stroke-width:0.5;" width="80" x="1114" y="483.4677"/><text fill="#000000" font-family="sans-serif" font-size="20" lengthAdjust="spacing" textLength="66" x="1121" y="511.8476">Service</text><rect fill="#E2E2F0" height="41.24" rx="2.5" ry="2.5" style="stroke:#181818;stroke-width:0.5;" width="120" x="1778" y="45.0679"/><text fill="#000000" font-family="sans-serif" font-size="20" lengthAdjust="spacing" textLength="106" x="1785" y="73.4479">Repositorio</text><rect fill="#E2E2F0" height="41.24" rx="2.5" ry="2.5" style="stroke:#181818;stroke-width:0.5;" width="120" x="1778" y="483.4677"/><text fill="#000000" font-family="sans-serif" font-size="20" lengthAdjust="spacing" textLength="106" x="1785" y="511.8476">Repositorio</text><rect fill="#FFFFFF" height="344.9198" style="stroke:#181818;stroke-width:1.0;" width="10" x="319" y="130.5479"/><rect fill="#FFFFFF" height="303.6798" style="stroke:#181818;stroke-width:1.0;" width="10" x="631" y="171.7878"/><rect fill="#FFFFFF" height="303.6798" style="stroke:#181818;stroke-width:1.0;" width="10" x="1149" y="171.7878"/><rect fill="#FFFFFF" height="262.4398" style="stroke:#181818;stroke-width:1.0;" width="10" x="1833" y="213.0278"/><polygon fill="#181818" points="307,126.5479,317,130.5479,307,134.5479,311,130.5479" style="stroke:#181818;stroke-width:1.0;"/><line style="stroke:#181818;stroke-width:1.0;" x1="0" x2="313" y1="130.5479" y2="130.5479"/><text fill="#000000" font-family="sans-serif" font-size="20" lengthAdjust="spacing" textLength="300" x="7" y="122.6879">get(api/buildings/minmaxfloors)</text><polygon fill="#181818" points="619,167.7878,629,171.7878,619,175.7878,623,171.7878" style="stroke:#181818;stroke-width:1.0;"/><line style="stroke:#181818;stroke-width:1.0;" x1="329" x2="625" y1="171.7878" y2="171.7878"/><text fill="#000000" font-family="sans-serif" font-size="20" lengthAdjust="spacing" textLength="283" x="336" y="163.9278">getBuildingsByMinMaxFloors()</text><polygon fill="#181818" points="1137,209.0278,1147,213.0278,1137,217.0278,1141,213.0278" style="stroke:#181818;stroke-width:1.0;"/><line style="stroke:#181818;stroke-width:1.0;" x1="641" x2="1143" y1="213.0278" y2="213.0278"/><text fill="#000000" font-family="sans-serif" font-size="20" lengthAdjust="spacing" textLength="484" x="648" y="205.1678">getBuildingsByMinMaxFloors(minFloors, maxFloors)</text><polygon fill="#181818" points="1821,250.2678,1831,254.2678,1821,258.2678,1825,254.2678" style="stroke:#181818;stroke-width:1.0;"/><line style="stroke:#181818;stroke-width:1.0;" x1="1159" x2="1827" y1="254.2678" y2="254.2678"/><text fill="#000000" font-family="sans-serif" font-size="20" lengthAdjust="spacing" textLength="650" x="1166" y="246.4078">buildingsByFloor=getBuildingsByMinMaxFloors(minFloors, maxFloors)</text><polygon fill="#181818" points="1821,291.5078,1831,295.5078,1821,299.5078,1825,295.5078" style="stroke:#181818;stroke-width:1.0;"/><line style="stroke:#181818;stroke-width:1.0;" x1="1159" x2="1827" y1="295.5078" y2="295.5078"/><text fill="#000000" font-family="sans-serif" font-size="20" lengthAdjust="spacing" textLength="319" x="1166" y="287.6478">findByDomainId(buildingsByFloor)</text><polygon fill="#181818" points="652,332.7477,642,336.7477,652,340.7477,648,336.7477" style="stroke:#181818;stroke-width:1.0;"/><line style="stroke:#181818;stroke-width:1.0;stroke-dasharray:2.0,2.0;" x1="646" x2="1148" y1="336.7477" y2="336.7477"/><text fill="#000000" font-family="sans-serif" font-size="20" lengthAdjust="spacing" textLength="96" x="658" y="328.8877">floorDTOs</text><polygon fill="#181818" points="340,373.9877,330,377.9877,340,381.9877,336,377.9877" style="stroke:#181818;stroke-width:1.0;"/><line style="stroke:#181818;stroke-width:1.0;stroke-dasharray:2.0,2.0;" x1="334" x2="630" y1="377.9877" y2="377.9877"/><text fill="#000000" font-family="sans-serif" font-size="20" lengthAdjust="spacing" textLength="139" x="346" y="370.1277">Resposta HTTP</text><polygon fill="#181818" points="11,415.2277,1,419.2277,11,423.2277,7,419.2277" style="stroke:#181818;stroke-width:1.0;"/><line style="stroke:#181818;stroke-width:1.0;stroke-dasharray:2.0,2.0;" x1="5" x2="318" y1="419.2277" y2="419.2277"/><text fill="#000000" font-family="sans-serif" font-size="20" lengthAdjust="spacing" textLength="139" x="17" y="411.3677">Resposta HTTP</text><path d="M1164,432.2277 L1164,469.2277 L1856,469.2277 L1856,442.2277 L1846,432.2277 L1164,432.2277 " fill="#FEFFDD" style="stroke:#181818;stroke-width:0.5;"/><path d="M1846,432.2277 L1846,442.2277 L1856,442.2277 L1846,432.2277 " fill="#FEFFDD" style="stroke:#181818;stroke-width:0.5;"/><text fill="#000000" font-family="sans-serif" font-size="20" lengthAdjust="spacing" textLength="671" x="1170" y="458.6077">O DTO não está representado por questões de simplicidade (Ver US150).</text><!--SRC=[bPB1JW9138RlynGD9qXSGHCJOzG34gA9H0FeVTZfOiFkT9qPZFesnhD7du0Ni-m2ks0myJRjJB__RwT-HZRNJcSfnpCqO33HypJqsOOHlICSTrIWa28yZ8vEEn31BVcW7Q2XPF4L4tk8EOECB21a-bK0a9DdhvHW0yMKQnkWCUHvm0Pe3yLf-_9Ar1odARhYHHLkFnkXUw6ufApEEoAOiwV0ZhYKgcAb8BeijU4CfXYQEgVsP4wf8JlrRMb0t2Sfi_CjfUD0BrgUbcRBCgcld9MGxhg- -pOWEz2l_GBGh15gpMnoQ_CrdC1NsJ_1OhCy7Io7tVzbjzRm2bUqNQN5zwHY5u2BV-ljHITaJVUjnvacUsEQkqejLPNkJhCOVMzyvsjJYMfVDaGlIa73zNXyhywZQC-DiYnPHzEd09niHdq7mWQx-6H07nOVu31twD46RHXoTl0yNrvyer-kiASiJsMlZ9QW-IWEPVzFEgr3XTR0Kk87]--></g></svg>