<?xml version="1.0" encoding="UTF-8" standalone="no"?><svg xmlns="http://www.w3.org/2000/svg" xmlns:xlink="http://www.w3.org/1999/xlink" contentStyleType="text/css" height="530px" preserveAspectRatio="none" style="width:1199px;height:530px;background:#FFFFFF;" version="1.1" viewBox="0 0 1199 530" width="1199px" zoomAndPan="magnify"><defs/><g><text fill="#000000" font-family="sans-serif" font-size="14" font-weight="bold" lengthAdjust="spacing" textLength="197" x="499.5" y="29.9659">US190 - Criar piso de edifício</text><rect fill="#FFFFFF" height="344.9198" style="stroke:#181818;stroke-width:1.0;" width="10" x="161" y="130.5479"/><rect fill="#FFFFFF" height="303.6798" style="stroke:#181818;stroke-width:1.0;" width="10" x="334" y="171.7878"/><rect fill="#FFFFFF" height="262.4398" style="stroke:#181818;stroke-width:1.0;" width="10" x="485" y="213.0278"/><rect fill="#FFFFFF" height="179.9599" style="stroke:#181818;stroke-width:1.0;" width="10" x="685" y="295.5078"/><line style="stroke:#181818;stroke-width:0.5;stroke-dasharray:5.0,5.0;" x1="166" x2="166" y1="87.3079" y2="484.4677"/><line style="stroke:#181818;stroke-width:0.5;stroke-dasharray:5.0,5.0;" x1="338.5" x2="338.5" y1="87.3079" y2="484.4677"/><line style="stroke:#181818;stroke-width:0.5;stroke-dasharray:5.0,5.0;" x1="490" x2="490" y1="87.3079" y2="484.4677"/><line style="stroke:#181818;stroke-width:0.5;stroke-dasharray:5.0,5.0;" x1="690" x2="690" y1="87.3079" y2="484.4677"/><rect fill="#E2E2F0" height="41.24" rx="2.5" ry="2.5" style="stroke:#181818;stroke-width:0.5;" width="68" x="132" y="45.0679"/><text fill="#000000" font-family="sans-serif" font-size="20" lengthAdjust="spacing" textLength="54" x="139" y="73.4479">Route</text><rect fill="#E2E2F0" height="41.24" rx="2.5" ry="2.5" style="stroke:#181818;stroke-width:0.5;" width="68" x="132" y="483.4677"/><text fill="#000000" font-family="sans-serif" font-size="20" lengthAdjust="spacing" textLength="54" x="139" y="511.8476">Route</text><rect fill="#E2E2F0" height="41.24" rx="2.5" ry="2.5" style="stroke:#181818;stroke-width:0.5;" width="107" x="285.5" y="45.0679"/><text fill="#000000" font-family="sans-serif" font-size="20" lengthAdjust="spacing" textLength="93" x="292.5" y="73.4479">Controller</text><rect fill="#E2E2F0" height="41.24" rx="2.5" ry="2.5" style="stroke:#181818;stroke-width:0.5;" width="107" x="285.5" y="483.4677"/><text fill="#000000" font-family="sans-serif" font-size="20" lengthAdjust="spacing" textLength="93" x="292.5" y="511.8476">Controller</text><rect fill="#E2E2F0" height="41.24" rx="2.5" ry="2.5" style="stroke:#181818;stroke-width:0.5;" width="80" x="450" y="45.0679"/><text fill="#000000" font-family="sans-serif" font-size="20" lengthAdjust="spacing" textLength="66" x="457" y="73.4479">Service</text><rect fill="#E2E2F0" height="41.24" rx="2.5" ry="2.5" style="stroke:#181818;stroke-width:0.5;" width="80" x="450" y="483.4677"/><text fill="#000000" font-family="sans-serif" font-size="20" lengthAdjust="spacing" textLength="66" x="457" y="511.8476">Service</text><rect fill="#E2E2F0" height="41.24" rx="2.5" ry="2.5" style="stroke:#181818;stroke-width:0.5;" width="120" x="630" y="45.0679"/><text fill="#000000" font-family="sans-serif" font-size="20" lengthAdjust="spacing" textLength="106" x="637" y="73.4479">Repositorio</text><rect fill="#E2E2F0" height="41.24" rx="2.5" ry="2.5" style="stroke:#181818;stroke-width:0.5;" width="120" x="630" y="483.4677"/><text fill="#000000" font-family="sans-serif" font-size="20" lengthAdjust="spacing" textLength="106" x="637" y="511.8476">Repositorio</text><rect fill="#FFFFFF" height="344.9198" style="stroke:#181818;stroke-width:1.0;" width="10" x="161" y="130.5479"/><rect fill="#FFFFFF" height="303.6798" style="stroke:#181818;stroke-width:1.0;" width="10" x="334" y="171.7878"/><rect fill="#FFFFFF" height="262.4398" style="stroke:#181818;stroke-width:1.0;" width="10" x="485" y="213.0278"/><rect fill="#FFFFFF" height="179.9599" style="stroke:#181818;stroke-width:1.0;" width="10" x="685" y="295.5078"/><polygon fill="#181818" points="149,126.5479,159,130.5479,149,134.5479,153,130.5479" style="stroke:#181818;stroke-width:1.0;"/><line style="stroke:#181818;stroke-width:1.0;" x1="0" x2="155" y1="130.5479" y2="130.5479"/><text fill="#000000" font-family="sans-serif" font-size="20" lengthAdjust="spacing" textLength="142" x="7" y="122.6879">post(api/floors)</text><polygon fill="#181818" points="322,167.7878,332,171.7878,322,175.7878,326,171.7878" style="stroke:#181818;stroke-width:1.0;"/><line style="stroke:#181818;stroke-width:1.0;" x1="171" x2="328" y1="171.7878" y2="171.7878"/><text fill="#000000" font-family="sans-serif" font-size="20" lengthAdjust="spacing" textLength="117" x="178" y="163.9278">createFloor()</text><polygon fill="#181818" points="473,209.0278,483,213.0278,473,217.0278,477,213.0278" style="stroke:#181818;stroke-width:1.0;"/><line style="stroke:#181818;stroke-width:1.0;" x1="344" x2="479" y1="213.0278" y2="213.0278"/><text fill="#000000" font-family="sans-serif" font-size="20" lengthAdjust="spacing" textLength="117" x="351" y="205.1678">createFloor()</text><polygon fill="#181818" points="473,250.2678,483,254.2678,473,258.2678,477,254.2678" style="stroke:#181818;stroke-width:1.0;"/><line style="stroke:#181818;stroke-width:1.0;" x1="344" x2="479" y1="254.2678" y2="254.2678"/><text fill="#000000" font-family="sans-serif" font-size="20" lengthAdjust="spacing" textLength="86" x="351" y="246.4078">floorDTO</text><polygon fill="#181818" points="673,291.5078,683,295.5078,673,299.5078,677,295.5078" style="stroke:#181818;stroke-width:1.0;"/><line style="stroke:#181818;stroke-width:1.0;" x1="495" x2="679" y1="295.5078" y2="295.5078"/><text fill="#000000" font-family="sans-serif" font-size="20" lengthAdjust="spacing" textLength="171" x="502" y="287.6478">save(DTObuilding)</text><polygon fill="#181818" points="355,332.7477,345,336.7477,355,340.7477,351,336.7477" style="stroke:#181818;stroke-width:1.0;"/><line style="stroke:#181818;stroke-width:1.0;stroke-dasharray:2.0,2.0;" x1="349" x2="484" y1="336.7477" y2="336.7477"/><text fill="#000000" font-family="sans-serif" font-size="20" lengthAdjust="spacing" textLength="117" x="361" y="328.8877">DTObuilding</text><polygon fill="#181818" points="182,373.9877,172,377.9877,182,381.9877,178,377.9877" style="stroke:#181818;stroke-width:1.0;"/><line style="stroke:#181818;stroke-width:1.0;stroke-dasharray:2.0,2.0;" x1="176" x2="333" y1="377.9877" y2="377.9877"/><text fill="#000000" font-family="sans-serif" font-size="20" lengthAdjust="spacing" textLength="139" x="188" y="370.1277">Resposta HTTP</text><polygon fill="#181818" points="11,415.2277,1,419.2277,11,423.2277,7,419.2277" style="stroke:#181818;stroke-width:1.0;"/><line style="stroke:#181818;stroke-width:1.0;stroke-dasharray:2.0,2.0;" x1="5" x2="160" y1="419.2277" y2="419.2277"/><text fill="#000000" font-family="sans-serif" font-size="20" lengthAdjust="spacing" textLength="139" x="17" y="411.3677">Resposta HTTP</text><path d="M500,432.2277 L500,469.2277 L1192,469.2277 L1192,442.2277 L1182,432.2277 L500,432.2277 " fill="#FEFFDD" style="stroke:#181818;stroke-width:0.5;"/><path d="M1182,432.2277 L1182,442.2277 L1192,442.2277 L1182,432.2277 " fill="#FEFFDD" style="stroke:#181818;stroke-width:0.5;"/><text fill="#000000" font-family="sans-serif" font-size="20" lengthAdjust="spacing" textLength="671" x="506" y="458.6077">O DTO não está representado por questões de simplicidade (Ver US150).</text><!--SRC=[TL8nJWCn4EpzYXNLfJW8I1GWH1CKqGKbWTwSzy8gZjVOlXJy1b5Jye9yZBrSadCYfVFkpkpCs8vBSbu7lR9SBT60mLetDetPfHbz8TmCLQ9a4LvdrtT3A64KI0Vm55cmW8RgpMz5h9HiILIHrox1nPIRX1UW8snFnyEHB0ziBOOjeY-FOJCCQwgwBRlpYGXwZfGu47TIVQqKb8-TDjo3j5EXFLtLbZd4WT9LehMMMUUkmmcXjoAiAg10nYsbo2YPtGmkv9t7yynzY7EqhRkd-KJjMss4FfCWebvZ8OZtXgmXjyYJPE4F_DD86JLpKMPNDSNOtfQ6v_dyHJsKvPc9SYpTG8kF15mVearQ2N2R7mQCQVCD0Nt0Y2vfm_8E0JwRTl27iVq-aLRUodiQBKNn9XxbczqE1vSAdO5MuXy0]--></g></svg>