<?xml version="1.0" encoding="UTF-8" standalone="no"?><svg xmlns="http://www.w3.org/2000/svg" xmlns:xlink="http://www.w3.org/1999/xlink" contentStyleType="text/css" height="571px" preserveAspectRatio="none" style="width:1354px;height:571px;background:#FFFFFF;" version="1.1" viewBox="0 0 1354 571" width="1354px" zoomAndPan="magnify"><defs/><g><text fill="#000000" font-family="sans-serif" font-size="14" font-weight="bold" lengthAdjust="spacing" textLength="309" x="521" y="29.9659">US200 - Editar informação de piso de edifício</text><rect fill="#FFFFFF" height="386.1598" style="stroke:#181818;stroke-width:1.0;" width="10" x="314" y="130.5479"/><rect fill="#FFFFFF" height="344.9198" style="stroke:#181818;stroke-width:1.0;" width="10" x="487" y="171.7878"/><rect fill="#FFFFFF" height="303.6798" style="stroke:#181818;stroke-width:1.0;" width="10" x="640" y="213.0278"/><rect fill="#FFFFFF" height="179.9599" style="stroke:#181818;stroke-width:1.0;" width="10" x="996" y="336.7477"/><line style="stroke:#181818;stroke-width:0.5;stroke-dasharray:5.0,5.0;" x1="319" x2="319" y1="87.3079" y2="525.7076"/><line style="stroke:#181818;stroke-width:0.5;stroke-dasharray:5.0,5.0;" x1="491.5" x2="491.5" y1="87.3079" y2="525.7076"/><line style="stroke:#181818;stroke-width:0.5;stroke-dasharray:5.0,5.0;" x1="645" x2="645" y1="87.3079" y2="525.7076"/><line style="stroke:#181818;stroke-width:0.5;stroke-dasharray:5.0,5.0;" x1="1001" x2="1001" y1="87.3079" y2="525.7076"/><rect fill="#E2E2F0" height="41.24" rx="2.5" ry="2.5" style="stroke:#181818;stroke-width:0.5;" width="68" x="285" y="45.0679"/><text fill="#000000" font-family="sans-serif" font-size="20" lengthAdjust="spacing" textLength="54" x="292" y="73.4479">Route</text><rect fill="#E2E2F0" height="41.24" rx="2.5" ry="2.5" style="stroke:#181818;stroke-width:0.5;" width="68" x="285" y="524.7076"/><text fill="#000000" font-family="sans-serif" font-size="20" lengthAdjust="spacing" textLength="54" x="292" y="553.0876">Route</text><rect fill="#E2E2F0" height="41.24" rx="2.5" ry="2.5" style="stroke:#181818;stroke-width:0.5;" width="107" x="438.5" y="45.0679"/><text fill="#000000" font-family="sans-serif" font-size="20" lengthAdjust="spacing" textLength="93" x="445.5" y="73.4479">Controller</text><rect fill="#E2E2F0" height="41.24" rx="2.5" ry="2.5" style="stroke:#181818;stroke-width:0.5;" width="107" x="438.5" y="524.7076"/><text fill="#000000" font-family="sans-serif" font-size="20" lengthAdjust="spacing" textLength="93" x="445.5" y="553.0876">Controller</text><rect fill="#E2E2F0" height="41.24" rx="2.5" ry="2.5" style="stroke:#181818;stroke-width:0.5;" width="80" x="605" y="45.0679"/><text fill="#000000" font-family="sans-serif" font-size="20" lengthAdjust="spacing" textLength="66" x="612" y="73.4479">Service</text><rect fill="#E2E2F0" height="41.24" rx="2.5" ry="2.5" style="stroke:#181818;stroke-width:0.5;" width="80" x="605" y="524.7076"/><text fill="#000000" font-family="sans-serif" font-size="20" lengthAdjust="spacing" textLength="66" x="612" y="553.0876">Service</text><rect fill="#E2E2F0" height="41.24" rx="2.5" ry="2.5" style="stroke:#181818;stroke-width:0.5;" width="120" x="941" y="45.0679"/><text fill="#000000" font-family="sans-serif" font-size="20" lengthAdjust="spacing" textLength="106" x="948" y="73.4479">Repositorio</text><rect fill="#E2E2F0" height="41.24" rx="2.5" ry="2.5" style="stroke:#181818;stroke-width:0.5;" width="120" x="941" y="524.7076"/><text fill="#000000" font-family="sans-serif" font-size="20" lengthAdjust="spacing" textLength="106" x="948" y="553.0876">Repositorio</text><rect fill="#FFFFFF" height="386.1598" style="stroke:#181818;stroke-width:1.0;" width="10" x="314" y="130.5479"/><rect fill="#FFFFFF" height="344.9198" style="stroke:#181818;stroke-width:1.0;" width="10" x="487" y="171.7878"/><rect fill="#FFFFFF" height="303.6798" style="stroke:#181818;stroke-width:1.0;" width="10" x="640" y="213.0278"/><rect fill="#FFFFFF" height="179.9599" style="stroke:#181818;stroke-width:1.0;" width="10" x="996" y="336.7477"/><polygon fill="#181818" points="302,126.5479,312,130.5479,302,134.5479,306,130.5479" style="stroke:#181818;stroke-width:1.0;"/><line style="stroke:#181818;stroke-width:1.0;" x1="0" x2="308" y1="130.5479" y2="130.5479"/><text fill="#000000" font-family="sans-serif" font-size="20" lengthAdjust="spacing" textLength="295" x="7" y="122.6879">patch(api/floors); put(api/floors)</text><polygon fill="#181818" points="475,167.7878,485,171.7878,475,175.7878,479,171.7878" style="stroke:#181818;stroke-width:1.0;"/><line style="stroke:#181818;stroke-width:1.0;" x1="324" x2="481" y1="171.7878" y2="171.7878"/><text fill="#000000" font-family="sans-serif" font-size="20" lengthAdjust="spacing" textLength="124" x="331" y="163.9278">updateFloor()</text><polygon fill="#181818" points="628,209.0278,638,213.0278,628,217.0278,632,213.0278" style="stroke:#181818;stroke-width:1.0;"/><line style="stroke:#181818;stroke-width:1.0;" x1="497" x2="634" y1="213.0278" y2="213.0278"/><text fill="#000000" font-family="sans-serif" font-size="20" lengthAdjust="spacing" textLength="124" x="504" y="205.1678">updateFloor()</text><polygon fill="#181818" points="628,250.2678,638,254.2678,628,258.2678,632,254.2678" style="stroke:#181818;stroke-width:1.0;"/><line style="stroke:#181818;stroke-width:1.0;" x1="497" x2="634" y1="254.2678" y2="254.2678"/><text fill="#000000" font-family="sans-serif" font-size="20" lengthAdjust="spacing" textLength="86" x="504" y="246.4078">floorDTO</text><polygon fill="#181818" points="989,291.5078,999,295.5078,989,299.5078,993,295.5078" style="stroke:#181818;stroke-width:1.0;"/><line style="stroke:#181818;stroke-width:1.0;" x1="650" x2="995" y1="295.5078" y2="295.5078"/><text fill="#000000" font-family="sans-serif" font-size="20" lengthAdjust="spacing" textLength="327" x="657" y="287.6478">floor=findByDomainId(floorDTO.id)</text><polygon fill="#181818" points="984,332.7477,994,336.7477,984,340.7477,988,336.7477" style="stroke:#181818;stroke-width:1.0;"/><line style="stroke:#181818;stroke-width:1.0;" x1="650" x2="990" y1="336.7477" y2="336.7477"/><text fill="#000000" font-family="sans-serif" font-size="20" lengthAdjust="spacing" textLength="98" x="657" y="328.8877">save(floor)</text><polygon fill="#181818" points="508,373.9877,498,377.9877,508,381.9877,504,377.9877" style="stroke:#181818;stroke-width:1.0;"/><line style="stroke:#181818;stroke-width:1.0;stroke-dasharray:2.0,2.0;" x1="502" x2="639" y1="377.9877" y2="377.9877"/><text fill="#000000" font-family="sans-serif" font-size="20" lengthAdjust="spacing" textLength="86" x="514" y="370.1277">DTOfloor</text><polygon fill="#181818" points="335,415.2277,325,419.2277,335,423.2277,331,419.2277" style="stroke:#181818;stroke-width:1.0;"/><line style="stroke:#181818;stroke-width:1.0;stroke-dasharray:2.0,2.0;" x1="329" x2="486" y1="419.2277" y2="419.2277"/><text fill="#000000" font-family="sans-serif" font-size="20" lengthAdjust="spacing" textLength="139" x="341" y="411.3677">Resposta HTTP</text><polygon fill="#181818" points="11,456.4677,1,460.4677,11,464.4677,7,460.4677" style="stroke:#181818;stroke-width:1.0;"/><line style="stroke:#181818;stroke-width:1.0;stroke-dasharray:2.0,2.0;" x1="5" x2="313" y1="460.4677" y2="460.4677"/><text fill="#000000" font-family="sans-serif" font-size="20" lengthAdjust="spacing" textLength="139" x="17" y="452.6077">Resposta HTTP</text><path d="M655,473.4677 L655,510.4677 L1347,510.4677 L1347,483.4677 L1337,473.4677 L655,473.4677 " fill="#FEFFDD" style="stroke:#181818;stroke-width:0.5;"/><path d="M1337,473.4677 L1337,483.4677 L1347,483.4677 L1337,473.4677 " fill="#FEFFDD" style="stroke:#181818;stroke-width:0.5;"/><text fill="#000000" font-family="sans-serif" font-size="20" lengthAdjust="spacing" textLength="671" x="661" y="499.8476">O DTO não está representado por questões de simplicidade (Ver US150).</text><!--SRC=[TL8zJyCm4DtzAqwTqY6bL6BXQu1ImLJK3tOhlj1JKv-ndKhmRn034oE_e7yC9saRKocJVNVllNjtEhScRQILcuApDIfGcCkoy1FMVauV2AEXyEGBXELyD1n22W-AlBH0EcUxaRlltHS74XXozOkAyjrFHYn4aFMKaP7QGs_6fSSUI0Vrxt_nFdIpN1HeQqGR_eVDqMufQrJs_vCcQDYHPqlSj6fZ8I2zRNh39HZfirKY3Ptb1RDr_IimfOyJGcQUjZAW6xyDCqYqve9EQLI0J2fA4b6Y0I9u8EzTTpCFOtNHQdVZnLGSKjLGxPG7n4rEMjszZtaZIJ-fv40RaEftKvtSOWEDnuzsU6IUxY58rxp8TngjUuOkY7W9Zul5ixXEquwAq1oobbvN7ZW_BcDQwOEkBWsTtts2HMFHeVPICHYsy5PMXLzqrGawsfWYt8II8KXUWi7b_FnYs1y8r0gg5dy0]--></g></svg>