<?xml version="1.0" encoding="UTF-8" standalone="no"?><svg xmlns="http://www.w3.org/2000/svg" xmlns:xlink="http://www.w3.org/1999/xlink" contentStyleType="text/css" height="489px" preserveAspectRatio="none" style="width:1219px;height:489px;background:#FFFFFF;" version="1.1" viewBox="0 0 1219 489" width="1219px" zoomAndPan="magnify"><defs/><g><text fill="#000000" font-family="sans-serif" font-size="14" font-weight="bold" lengthAdjust="spacing" textLength="301" x="457.5" y="29.9659">US210 - Listar todos os pisos de um edifício</text><rect fill="#FFFFFF" height="303.6798" style="stroke:#181818;stroke-width:1.0;" width="10" x="181" y="130.5479"/><rect fill="#FFFFFF" height="262.4398" style="stroke:#181818;stroke-width:1.0;" width="10" x="354" y="171.7878"/><rect fill="#FFFFFF" height="221.1999" style="stroke:#181818;stroke-width:1.0;" width="10" x="505" y="213.0278"/><rect fill="#FFFFFF" height="179.9599" style="stroke:#181818;stroke-width:1.0;" width="10" x="711" y="254.2678"/><line style="stroke:#181818;stroke-width:0.5;stroke-dasharray:5.0,5.0;" x1="186" x2="186" y1="87.3079" y2="443.2277"/><line style="stroke:#181818;stroke-width:0.5;stroke-dasharray:5.0,5.0;" x1="358.5" x2="358.5" y1="87.3079" y2="443.2277"/><line style="stroke:#181818;stroke-width:0.5;stroke-dasharray:5.0,5.0;" x1="510" x2="510" y1="87.3079" y2="443.2277"/><line style="stroke:#181818;stroke-width:0.5;stroke-dasharray:5.0,5.0;" x1="716" x2="716" y1="87.3079" y2="443.2277"/><rect fill="#E2E2F0" height="41.24" rx="2.5" ry="2.5" style="stroke:#181818;stroke-width:0.5;" width="68" x="152" y="45.0679"/><text fill="#000000" font-family="sans-serif" font-size="20" lengthAdjust="spacing" textLength="54" x="159" y="73.4479">Route</text><rect fill="#E2E2F0" height="41.24" rx="2.5" ry="2.5" style="stroke:#181818;stroke-width:0.5;" width="68" x="152" y="442.2277"/><text fill="#000000" font-family="sans-serif" font-size="20" lengthAdjust="spacing" textLength="54" x="159" y="470.6077">Route</text><rect fill="#E2E2F0" height="41.24" rx="2.5" ry="2.5" style="stroke:#181818;stroke-width:0.5;" width="107" x="305.5" y="45.0679"/><text fill="#000000" font-family="sans-serif" font-size="20" lengthAdjust="spacing" textLength="93" x="312.5" y="73.4479">Controller</text><rect fill="#E2E2F0" height="41.24" rx="2.5" ry="2.5" style="stroke:#181818;stroke-width:0.5;" width="107" x="305.5" y="442.2277"/><text fill="#000000" font-family="sans-serif" font-size="20" lengthAdjust="spacing" textLength="93" x="312.5" y="470.6077">Controller</text><rect fill="#E2E2F0" height="41.24" rx="2.5" ry="2.5" style="stroke:#181818;stroke-width:0.5;" width="80" x="470" y="45.0679"/><text fill="#000000" font-family="sans-serif" font-size="20" lengthAdjust="spacing" textLength="66" x="477" y="73.4479">Service</text><rect fill="#E2E2F0" height="41.24" rx="2.5" ry="2.5" style="stroke:#181818;stroke-width:0.5;" width="80" x="470" y="442.2277"/><text fill="#000000" font-family="sans-serif" font-size="20" lengthAdjust="spacing" textLength="66" x="477" y="470.6077">Service</text><rect fill="#E2E2F0" height="41.24" rx="2.5" ry="2.5" style="stroke:#181818;stroke-width:0.5;" width="120" x="656" y="45.0679"/><text fill="#000000" font-family="sans-serif" font-size="20" lengthAdjust="spacing" textLength="106" x="663" y="73.4479">Repositorio</text><rect fill="#E2E2F0" height="41.24" rx="2.5" ry="2.5" style="stroke:#181818;stroke-width:0.5;" width="120" x="656" y="442.2277"/><text fill="#000000" font-family="sans-serif" font-size="20" lengthAdjust="spacing" textLength="106" x="663" y="470.6077">Repositorio</text><rect fill="#FFFFFF" height="303.6798" style="stroke:#181818;stroke-width:1.0;" width="10" x="181" y="130.5479"/><rect fill="#FFFFFF" height="262.4398" style="stroke:#181818;stroke-width:1.0;" width="10" x="354" y="171.7878"/><rect fill="#FFFFFF" height="221.1999" style="stroke:#181818;stroke-width:1.0;" width="10" x="505" y="213.0278"/><rect fill="#FFFFFF" height="179.9599" style="stroke:#181818;stroke-width:1.0;" width="10" x="711" y="254.2678"/><polygon fill="#181818" points="169,126.5479,179,130.5479,169,134.5479,173,130.5479" style="stroke:#181818;stroke-width:1.0;"/><line style="stroke:#181818;stroke-width:1.0;" x1="0" x2="175" y1="130.5479" y2="130.5479"/><text fill="#000000" font-family="sans-serif" font-size="20" lengthAdjust="spacing" textLength="162" x="7" y="122.6879">get(api/buildings)</text><polygon fill="#181818" points="342,167.7878,352,171.7878,342,175.7878,346,171.7878" style="stroke:#181818;stroke-width:1.0;"/><line style="stroke:#181818;stroke-width:1.0;" x1="191" x2="348" y1="171.7878" y2="171.7878"/><text fill="#000000" font-family="sans-serif" font-size="20" lengthAdjust="spacing" textLength="122" x="198" y="163.9278">getAllFloors()</text><polygon fill="#181818" points="493,209.0278,503,213.0278,493,217.0278,497,213.0278" style="stroke:#181818;stroke-width:1.0;"/><line style="stroke:#181818;stroke-width:1.0;" x1="364" x2="499" y1="213.0278" y2="213.0278"/><text fill="#000000" font-family="sans-serif" font-size="20" lengthAdjust="spacing" textLength="122" x="371" y="205.1678">getAllFloors()</text><polygon fill="#181818" points="699,250.2678,709,254.2678,699,258.2678,703,254.2678" style="stroke:#181818;stroke-width:1.0;"/><line style="stroke:#181818;stroke-width:1.0;" x1="515" x2="705" y1="254.2678" y2="254.2678"/><text fill="#000000" font-family="sans-serif" font-size="20" lengthAdjust="spacing" textLength="177" x="522" y="246.4078">floor=getAllFloors()</text><polygon fill="#181818" points="375,291.5078,365,295.5078,375,299.5078,371,295.5078" style="stroke:#181818;stroke-width:1.0;"/><line style="stroke:#181818;stroke-width:1.0;stroke-dasharray:2.0,2.0;" x1="369" x2="504" y1="295.5078" y2="295.5078"/><text fill="#000000" font-family="sans-serif" font-size="20" lengthAdjust="spacing" textLength="86" x="381" y="287.6478">floorDTO</text><polygon fill="#181818" points="202,332.7477,192,336.7477,202,340.7477,198,336.7477" style="stroke:#181818;stroke-width:1.0;"/><line style="stroke:#181818;stroke-width:1.0;stroke-dasharray:2.0,2.0;" x1="196" x2="353" y1="336.7477" y2="336.7477"/><text fill="#000000" font-family="sans-serif" font-size="20" lengthAdjust="spacing" textLength="139" x="208" y="328.8877">Resposta HTTP</text><polygon fill="#181818" points="11,373.9877,1,377.9877,11,381.9877,7,377.9877" style="stroke:#181818;stroke-width:1.0;"/><line style="stroke:#181818;stroke-width:1.0;stroke-dasharray:2.0,2.0;" x1="5" x2="180" y1="377.9877" y2="377.9877"/><text fill="#000000" font-family="sans-serif" font-size="20" lengthAdjust="spacing" textLength="139" x="17" y="370.1277">Resposta HTTP</text><path d="M520,390.9877 L520,427.9877 L1212,427.9877 L1212,400.9877 L1202,390.9877 L520,390.9877 " fill="#FEFFDD" style="stroke:#181818;stroke-width:0.5;"/><path d="M1202,390.9877 L1202,400.9877 L1212,400.9877 L1202,390.9877 " fill="#FEFFDD" style="stroke:#181818;stroke-width:0.5;"/><text fill="#000000" font-family="sans-serif" font-size="20" lengthAdjust="spacing" textLength="671" x="526" y="417.3677">O DTO não está representado por questões de simplicidade (Ver US150).</text><!--SRC=[VPB1Ji9048Rl-nGJJd2e0eaNeoP6GpoOO2XuNxjJdB1qrjqf1z_6UFRe4_1YRbkWXGIJfjdfpF__t-ushAXmskkrvMo51WpckhGouK9I-aGO3vMGM8H5EXuD8O5d2g8z21iE41z78RuDGha6D9HlVp9YfQAdK4PE5mAz6PU2FT01wjLnyo56UROMVJtHbiTZAVeDPOtBRdqIWeu32NlY9ggjbOBahic6QrYYzBMZoxUIhA5Y6GPAPq8R7RiDNpCP9IrCexktTcAPVUXtD1tYpdnKxp3_aUutif-iA5liACmhoUqvUNUB1ujJxDhYSJxjm2MTqvXXY2QYuMa-Vr4tINAcemgENpqjtmKuFv1F8Lf3iVrcm23RB_3eF0OiH1i6nnu-oghnY_LF4cZjRBmoesFHVus0YtHqDHnSA2mCL15_]--></g></svg>