<?xml version="1.0" encoding="UTF-8" standalone="no"?><svg xmlns="http://www.w3.org/2000/svg" xmlns:xlink="http://www.w3.org/1999/xlink" contentStyleType="text/css" height="708px" preserveAspectRatio="none" style="width:1662px;height:708px;background:#FFFFFF;" version="1.1" viewBox="0 0 1662 708" width="1662px" zoomAndPan="magnify"><defs/><g><text fill="#000000" font-family="sans-serif" font-size="14" font-weight="bold" lengthAdjust="spacing" textLength="464" x="597.5" y="29.9659">US220 - Listar pisos de edifício com passagem para outros edifícios</text><rect fill="#FFFFFF" height="522.8797" style="stroke:#181818;stroke-width:1.0;" width="10" x="358" y="130.5479"/><rect fill="#FFFFFF" height="481.6397" style="stroke:#181818;stroke-width:1.0;" width="10" x="606" y="171.7878"/><rect fill="#FFFFFF" height="440.3997" style="stroke:#181818;stroke-width:1.0;" width="10" x="948" y="213.0278"/><rect fill="#FFFFFF" height="184.9599" style="stroke:#181818;stroke-width:1.0;" width="10" x="1324" y="468.4677"/><line style="stroke:#181818;stroke-width:0.5;stroke-dasharray:5.0,5.0;" x1="363" x2="363" y1="87.3079" y2="662.4276"/><line style="stroke:#181818;stroke-width:0.5;stroke-dasharray:5.0,5.0;" x1="610.5" x2="610.5" y1="87.3079" y2="662.4276"/><line style="stroke:#181818;stroke-width:0.5;stroke-dasharray:5.0,5.0;" x1="953" x2="953" y1="87.3079" y2="662.4276"/><line style="stroke:#181818;stroke-width:0.5;stroke-dasharray:5.0,5.0;" x1="1329" x2="1329" y1="87.3079" y2="662.4276"/><rect fill="#E2E2F0" height="41.24" rx="2.5" ry="2.5" style="stroke:#181818;stroke-width:0.5;" width="68" x="329" y="45.0679"/><text fill="#000000" font-family="sans-serif" font-size="20" lengthAdjust="spacing" textLength="54" x="336" y="73.4479">Route</text><rect fill="#E2E2F0" height="41.24" rx="2.5" ry="2.5" style="stroke:#181818;stroke-width:0.5;" width="68" x="329" y="661.4276"/><text fill="#000000" font-family="sans-serif" font-size="20" lengthAdjust="spacing" textLength="54" x="336" y="689.8075">Route</text><rect fill="#E2E2F0" height="41.24" rx="2.5" ry="2.5" style="stroke:#181818;stroke-width:0.5;" width="107" x="557.5" y="45.0679"/><text fill="#000000" font-family="sans-serif" font-size="20" lengthAdjust="spacing" textLength="93" x="564.5" y="73.4479">Controller</text><rect fill="#E2E2F0" height="41.24" rx="2.5" ry="2.5" style="stroke:#181818;stroke-width:0.5;" width="107" x="557.5" y="661.4276"/><text fill="#000000" font-family="sans-serif" font-size="20" lengthAdjust="spacing" textLength="93" x="564.5" y="689.8075">Controller</text><rect fill="#E2E2F0" height="41.24" rx="2.5" ry="2.5" style="stroke:#181818;stroke-width:0.5;" width="80" x="913" y="45.0679"/><text fill="#000000" font-family="sans-serif" font-size="20" lengthAdjust="spacing" textLength="66" x="920" y="73.4479">Service</text><rect fill="#E2E2F0" height="41.24" rx="2.5" ry="2.5" style="stroke:#181818;stroke-width:0.5;" width="80" x="913" y="661.4276"/><text fill="#000000" font-family="sans-serif" font-size="20" lengthAdjust="spacing" textLength="66" x="920" y="689.8075">Service</text><rect fill="#E2E2F0" height="41.24" rx="2.5" ry="2.5" style="stroke:#181818;stroke-width:0.5;" width="120" x="1269" y="45.0679"/><text fill="#000000" font-family="sans-serif" font-size="20" lengthAdjust="spacing" textLength="106" x="1276" y="73.4479">Repositorio</text><rect fill="#E2E2F0" height="41.24" rx="2.5" ry="2.5" style="stroke:#181818;stroke-width:0.5;" width="120" x="1269" y="661.4276"/><text fill="#000000" font-family="sans-serif" font-size="20" lengthAdjust="spacing" textLength="106" x="1276" y="689.8075">Repositorio</text><rect fill="#FFFFFF" height="522.8797" style="stroke:#181818;stroke-width:1.0;" width="10" x="358" y="130.5479"/><rect fill="#FFFFFF" height="481.6397" style="stroke:#181818;stroke-width:1.0;" width="10" x="606" y="171.7878"/><rect fill="#FFFFFF" height="440.3997" style="stroke:#181818;stroke-width:1.0;" width="10" x="948" y="213.0278"/><rect fill="#FFFFFF" height="184.9599" style="stroke:#181818;stroke-width:1.0;" width="10" x="1324" y="468.4677"/><polygon fill="#181818" points="346,126.5479,356,130.5479,346,134.5479,350,130.5479" style="stroke:#181818;stroke-width:1.0;"/><line style="stroke:#181818;stroke-width:1.0;" x1="0" x2="352" y1="130.5479" y2="130.5479"/><text fill="#000000" font-family="sans-serif" font-size="20" lengthAdjust="spacing" textLength="339" x="7" y="122.6879">get(api/bridges/:id/buldings-bridges)</text><polygon fill="#181818" points="594,167.7878,604,171.7878,594,175.7878,598,171.7878" style="stroke:#181818;stroke-width:1.0;"/><line style="stroke:#181818;stroke-width:1.0;" x1="368" x2="600" y1="171.7878" y2="171.7878"/><text fill="#000000" font-family="sans-serif" font-size="20" lengthAdjust="spacing" textLength="219" x="375" y="163.9278">getBridgesForBuilding()</text><polygon fill="#181818" points="936,209.0278,946,213.0278,936,217.0278,940,213.0278" style="stroke:#181818;stroke-width:1.0;"/><line style="stroke:#181818;stroke-width:1.0;" x1="616" x2="942" y1="213.0278" y2="213.0278"/><text fill="#000000" font-family="sans-serif" font-size="20" lengthAdjust="spacing" textLength="313" x="623" y="205.1678">getBridgesForBuilding(buildingId)</text><polygon fill="#181818" points="1317,250.2678,1327,254.2678,1317,258.2678,1321,254.2678" style="stroke:#181818;stroke-width:1.0;"/><line style="stroke:#181818;stroke-width:1.0;" x1="958" x2="1323" y1="254.2678" y2="254.2678"/><text fill="#000000" font-family="sans-serif" font-size="20" lengthAdjust="spacing" textLength="258" x="965" y="246.4078">findByDomainId(buildingId)</text><polygon fill="#181818" points="969,291.5078,959,295.5078,969,299.5078,965,295.5078" style="stroke:#181818;stroke-width:1.0;"/><line style="stroke:#181818;stroke-width:1.0;stroke-dasharray:2.0,2.0;" x1="963" x2="1328" y1="295.5078" y2="295.5078"/><text fill="#000000" font-family="sans-serif" font-size="20" lengthAdjust="spacing" textLength="75" x="975" y="287.6478">building</text><polygon fill="#181818" points="1317,332.7477,1327,336.7477,1317,340.7477,1321,336.7477" style="stroke:#181818;stroke-width:1.0;"/><line style="stroke:#181818;stroke-width:1.0;" x1="958" x2="1323" y1="336.7477" y2="336.7477"/><text fill="#000000" font-family="sans-serif" font-size="20" lengthAdjust="spacing" textLength="313" x="965" y="328.8877">getBridgesForBuilding(buildingId)</text><polygon fill="#181818" points="969,373.9877,959,377.9877,969,381.9877,965,377.9877" style="stroke:#181818;stroke-width:1.0;"/><line style="stroke:#181818;stroke-width:1.0;stroke-dasharray:2.0,2.0;" x1="963" x2="1328" y1="377.9877" y2="377.9877"/><text fill="#000000" font-family="sans-serif" font-size="20" lengthAdjust="spacing" textLength="70" x="975" y="370.1277">bridges</text><polygon fill="#181818" points="1317,415.2277,1327,419.2277,1317,423.2277,1321,419.2277" style="stroke:#181818;stroke-width:1.0;"/><line style="stroke:#181818;stroke-width:1.0;" x1="958" x2="1323" y1="419.2277" y2="419.2277"/><text fill="#000000" font-family="sans-serif" font-size="20" lengthAdjust="spacing" textLength="347" x="965" y="411.3677">floor=findByDomainId(bridge.floorId)</text><line style="stroke:#181818;stroke-width:1.0;" x1="958" x2="1005" y1="455.4677" y2="455.4677"/><line style="stroke:#181818;stroke-width:1.0;" x1="1005" x2="1005" y1="455.4677" y2="468.4677"/><line style="stroke:#181818;stroke-width:1.0;" x1="964" x2="1005" y1="468.4677" y2="468.4677"/><polygon fill="#181818" points="974,464.4677,964,468.4677,974,472.4677,970,468.4677" style="stroke:#181818;stroke-width:1.0;"/><text fill="#000000" font-family="sans-serif" font-size="20" lengthAdjust="spacing" textLength="209" x="970" y="447.6077">Create(buildingBridge)</text><polygon fill="#181818" points="627,510.7076,617,514.7076,627,518.7076,623,514.7076" style="stroke:#181818;stroke-width:1.0;"/><line style="stroke:#181818;stroke-width:1.0;stroke-dasharray:2.0,2.0;" x1="621" x2="947" y1="514.7076" y2="514.7076"/><text fill="#000000" font-family="sans-serif" font-size="20" lengthAdjust="spacing" textLength="188" x="633" y="506.8476">buildingBridgesDTO</text><polygon fill="#181818" points="379,551.9476,369,555.9476,379,559.9476,375,555.9476" style="stroke:#181818;stroke-width:1.0;"/><line style="stroke:#181818;stroke-width:1.0;stroke-dasharray:2.0,2.0;" x1="373" x2="605" y1="555.9476" y2="555.9476"/><text fill="#000000" font-family="sans-serif" font-size="20" lengthAdjust="spacing" textLength="139" x="385" y="548.0876">Resposta HTTP</text><polygon fill="#181818" points="11,593.1876,1,597.1876,11,601.1876,7,597.1876" style="stroke:#181818;stroke-width:1.0;"/><line style="stroke:#181818;stroke-width:1.0;stroke-dasharray:2.0,2.0;" x1="5" x2="357" y1="597.1876" y2="597.1876"/><text fill="#000000" font-family="sans-serif" font-size="20" lengthAdjust="spacing" textLength="139" x="17" y="589.3276">Resposta HTTP</text><path d="M963,610.1876 L963,647.1876 L1655,647.1876 L1655,620.1876 L1645,610.1876 L963,610.1876 " fill="#FEFFDD" style="stroke:#181818;stroke-width:0.5;"/><path d="M1645,610.1876 L1645,620.1876 L1655,620.1876 L1645,610.1876 " fill="#FEFFDD" style="stroke:#181818;stroke-width:0.5;"/><text fill="#000000" font-family="sans-serif" font-size="20" lengthAdjust="spacing" textLength="671" x="969" y="636.5676">O DTO não está representado por questões de simplicidade (Ver US150).</text><!--SRC=[XPF1JiCm38RlUGgBqpYKZKbS9k0mq0GI4eWDxbdZ5MjT798K2Tu6SUR84-p5I9kjpIODRaxi__FlEdLBqaPQkIevNw82XGjPbNx2sa_f0s4u49vyYV0q7Gu7aC4TEIyj67BiGZMWeiNwEoU6d5TWf7Eom3gm4hZoDbIr9Kw8SEyf9oErXwF7K81781qqqMxoAbYmN9Pecuhkk5isHVj6UQHiuhqcQDYHPqiSMtLd8I2xZBrX10NwdZJKdrjI1Rh-Y5H_NfMATE6opUMnaBcdDna4qN8K1qhdBwB6KJ1XEwweWVGISJ9D8WoOpGW76VDDSAiIsdRkhRWUgfioi1QarVZzcbUIzAtQWII5MTT_1DkQmz3_3HvaHzaVVajcUx7lkb6TDBcQdgXRyfN5y45Q4z5VkhHa-Qr-VtkxQdSzkq-Mb2KlvX5Tm7a9DxFPWpZFiWCPeJdSMYfUFF2YNTSz13JezHS3Eh_-18l6eaFjfM8mRE6rgXC_sFnfZbQc3CzQoN3eFGUhJzFJiy7nYK2je6xn2m00]--></g></svg>