<?xml version="1.0" encoding="UTF-8" standalone="no"?><svg xmlns="http://www.w3.org/2000/svg" xmlns:xlink="http://www.w3.org/1999/xlink" contentStyleType="text/css" height="530px" preserveAspectRatio="none" style="width:1224px;height:530px;background:#FFFFFF;" version="1.1" viewBox="0 0 1224 530" width="1224px" zoomAndPan="magnify"><defs/><g><text fill="#000000" font-family="sans-serif" font-size="14" font-weight="bold" lengthAdjust="spacing" textLength="265" x="478" y="29.9659">US240 - Criar passagem entre edifícios</text><rect fill="#FFFFFF" height="344.9198" style="stroke:#181818;stroke-width:1.0;" width="10" x="177" y="130.5479"/><rect fill="#FFFFFF" height="303.6798" style="stroke:#181818;stroke-width:1.0;" width="10" x="350" y="171.7878"/><rect fill="#FFFFFF" height="262.4398" style="stroke:#181818;stroke-width:1.0;" width="10" x="510" y="213.0278"/><rect fill="#FFFFFF" height="179.9599" style="stroke:#181818;stroke-width:1.0;" width="10" x="695" y="295.5078"/><line style="stroke:#181818;stroke-width:0.5;stroke-dasharray:5.0,5.0;" x1="182" x2="182" y1="87.3079" y2="484.4677"/><line style="stroke:#181818;stroke-width:0.5;stroke-dasharray:5.0,5.0;" x1="354.5" x2="354.5" y1="87.3079" y2="484.4677"/><line style="stroke:#181818;stroke-width:0.5;stroke-dasharray:5.0,5.0;" x1="515" x2="515" y1="87.3079" y2="484.4677"/><line style="stroke:#181818;stroke-width:0.5;stroke-dasharray:5.0,5.0;" x1="700" x2="700" y1="87.3079" y2="484.4677"/><rect fill="#E2E2F0" height="41.24" rx="2.5" ry="2.5" style="stroke:#181818;stroke-width:0.5;" width="68" x="148" y="45.0679"/><text fill="#000000" font-family="sans-serif" font-size="20" lengthAdjust="spacing" textLength="54" x="155" y="73.4479">Route</text><rect fill="#E2E2F0" height="41.24" rx="2.5" ry="2.5" style="stroke:#181818;stroke-width:0.5;" width="68" x="148" y="483.4677"/><text fill="#000000" font-family="sans-serif" font-size="20" lengthAdjust="spacing" textLength="54" x="155" y="511.8476">Route</text><rect fill="#E2E2F0" height="41.24" rx="2.5" ry="2.5" style="stroke:#181818;stroke-width:0.5;" width="107" x="301.5" y="45.0679"/><text fill="#000000" font-family="sans-serif" font-size="20" lengthAdjust="spacing" textLength="93" x="308.5" y="73.4479">Controller</text><rect fill="#E2E2F0" height="41.24" rx="2.5" ry="2.5" style="stroke:#181818;stroke-width:0.5;" width="107" x="301.5" y="483.4677"/><text fill="#000000" font-family="sans-serif" font-size="20" lengthAdjust="spacing" textLength="93" x="308.5" y="511.8476">Controller</text><rect fill="#E2E2F0" height="41.24" rx="2.5" ry="2.5" style="stroke:#181818;stroke-width:0.5;" width="80" x="475" y="45.0679"/><text fill="#000000" font-family="sans-serif" font-size="20" lengthAdjust="spacing" textLength="66" x="482" y="73.4479">Service</text><rect fill="#E2E2F0" height="41.24" rx="2.5" ry="2.5" style="stroke:#181818;stroke-width:0.5;" width="80" x="475" y="483.4677"/><text fill="#000000" font-family="sans-serif" font-size="20" lengthAdjust="spacing" textLength="66" x="482" y="511.8476">Service</text><rect fill="#E2E2F0" height="41.24" rx="2.5" ry="2.5" style="stroke:#181818;stroke-width:0.5;" width="120" x="640" y="45.0679"/><text fill="#000000" font-family="sans-serif" font-size="20" lengthAdjust="spacing" textLength="106" x="647" y="73.4479">Repositorio</text><rect fill="#E2E2F0" height="41.24" rx="2.5" ry="2.5" style="stroke:#181818;stroke-width:0.5;" width="120" x="640" y="483.4677"/><text fill="#000000" font-family="sans-serif" font-size="20" lengthAdjust="spacing" textLength="106" x="647" y="511.8476">Repositorio</text><rect fill="#FFFFFF" height="344.9198" style="stroke:#181818;stroke-width:1.0;" width="10" x="177" y="130.5479"/><rect fill="#FFFFFF" height="303.6798" style="stroke:#181818;stroke-width:1.0;" width="10" x="350" y="171.7878"/><rect fill="#FFFFFF" height="262.4398" style="stroke:#181818;stroke-width:1.0;" width="10" x="510" y="213.0278"/><rect fill="#FFFFFF" height="179.9599" style="stroke:#181818;stroke-width:1.0;" width="10" x="695" y="295.5078"/><polygon fill="#181818" points="165,126.5479,175,130.5479,165,134.5479,169,130.5479" style="stroke:#181818;stroke-width:1.0;"/><line style="stroke:#181818;stroke-width:1.0;" x1="0" x2="171" y1="130.5479" y2="130.5479"/><text fill="#000000" font-family="sans-serif" font-size="20" lengthAdjust="spacing" textLength="158" x="7" y="122.6879">post(api/bridges)</text><polygon fill="#181818" points="338,167.7878,348,171.7878,338,175.7878,342,171.7878" style="stroke:#181818;stroke-width:1.0;"/><line style="stroke:#181818;stroke-width:1.0;" x1="187" x2="344" y1="171.7878" y2="171.7878"/><text fill="#000000" font-family="sans-serif" font-size="20" lengthAdjust="spacing" textLength="131" x="194" y="163.9278">createBridge()</text><polygon fill="#181818" points="498,209.0278,508,213.0278,498,217.0278,502,213.0278" style="stroke:#181818;stroke-width:1.0;"/><line style="stroke:#181818;stroke-width:1.0;" x1="360" x2="504" y1="213.0278" y2="213.0278"/><text fill="#000000" font-family="sans-serif" font-size="20" lengthAdjust="spacing" textLength="131" x="367" y="205.1678">createBridge()</text><polygon fill="#181818" points="498,250.2678,508,254.2678,498,258.2678,502,254.2678" style="stroke:#181818;stroke-width:1.0;"/><line style="stroke:#181818;stroke-width:1.0;" x1="360" x2="504" y1="254.2678" y2="254.2678"/><text fill="#000000" font-family="sans-serif" font-size="20" lengthAdjust="spacing" textLength="102" x="367" y="246.4078">bridgeDTO</text><polygon fill="#181818" points="683,291.5078,693,295.5078,683,299.5078,687,295.5078" style="stroke:#181818;stroke-width:1.0;"/><line style="stroke:#181818;stroke-width:1.0;" x1="520" x2="689" y1="295.5078" y2="295.5078"/><text fill="#000000" font-family="sans-serif" font-size="20" lengthAdjust="spacing" textLength="156" x="527" y="287.6478">save(bridgeDTO)</text><polygon fill="#181818" points="371,332.7477,361,336.7477,371,340.7477,367,336.7477" style="stroke:#181818;stroke-width:1.0;"/><line style="stroke:#181818;stroke-width:1.0;stroke-dasharray:2.0,2.0;" x1="365" x2="509" y1="336.7477" y2="336.7477"/><text fill="#000000" font-family="sans-serif" font-size="20" lengthAdjust="spacing" textLength="102" x="377" y="328.8877">DTObridge</text><polygon fill="#181818" points="198,373.9877,188,377.9877,198,381.9877,194,377.9877" style="stroke:#181818;stroke-width:1.0;"/><line style="stroke:#181818;stroke-width:1.0;stroke-dasharray:2.0,2.0;" x1="192" x2="349" y1="377.9877" y2="377.9877"/><text fill="#000000" font-family="sans-serif" font-size="20" lengthAdjust="spacing" textLength="139" x="204" y="370.1277">Resposta HTTP</text><polygon fill="#181818" points="11,415.2277,1,419.2277,11,423.2277,7,419.2277" style="stroke:#181818;stroke-width:1.0;"/><line style="stroke:#181818;stroke-width:1.0;stroke-dasharray:2.0,2.0;" x1="5" x2="176" y1="419.2277" y2="419.2277"/><text fill="#000000" font-family="sans-serif" font-size="20" lengthAdjust="spacing" textLength="139" x="17" y="411.3677">Resposta HTTP</text><path d="M525,432.2277 L525,469.2277 L1217,469.2277 L1217,442.2277 L1207,432.2277 L525,432.2277 " fill="#FEFFDD" style="stroke:#181818;stroke-width:0.5;"/><path d="M1207,432.2277 L1207,442.2277 L1217,442.2277 L1207,432.2277 " fill="#FEFFDD" style="stroke:#181818;stroke-width:0.5;"/><text fill="#000000" font-family="sans-serif" font-size="20" lengthAdjust="spacing" textLength="671" x="531" y="458.6077">O DTO não está representado por questões de simplicidade (Ver US150).</text><!--SRC=[VLB1JW8n4BttAoQSbiCg4hqOuq6CyOPXmVkuEwmJbhQsXOD_Opnxz0luCMSfi8K4RvsPz_hUczOlM5jqk6nCkQ0AAfhZgWbFHeU2Fmc60nKuD0IpOdWzW1n6Zj61HU-nfYMG3ew0AfvlVaesNYcvBN395dM0tiIi0lK0FMnFnyEHY3ZJDEIsYAuyXXNarbp6MtRd4n6ondCmZasKwcgb8B-Fsd0BqWuPMhvySrpLvFiAoy1hb66q5u72wBm8hNGaa8Sj9qiuYU44B-oTot-e-npdUD7WutIizhqsHfTB81xNb1rmQPGa_e5zcaaeaPjOo9DLJSYtsq9udavVr5sUdvaeRQJhk7uFOEQ7NEDM0FJcsm3viFa2HzQHbz-2bP5tSF2nQWU_vENBWUUbRUGzAvGYUnM7i-BgPj2_KAGhQ2N-0000]--></g></svg>