<?xml version="1.0" encoding="UTF-8" standalone="no"?><svg xmlns="http://www.w3.org/2000/svg" xmlns:xlink="http://www.w3.org/1999/xlink" contentStyleType="text/css" height="571px" preserveAspectRatio="none" style="width:1458px;height:571px;background:#FFFFFF;" version="1.1" viewBox="0 0 1458 571" width="1458px" zoomAndPan="magnify"><defs/><g><text fill="#000000" font-family="sans-serif" font-size="14" font-weight="bold" lengthAdjust="spacing" textLength="273" x="591" y="29.9659">US250 - Editar passagem entre edifícios</text><rect fill="#FFFFFF" height="386.1598" style="stroke:#181818;stroke-width:1.0;" width="10" x="404" y="130.5479"/><rect fill="#FFFFFF" height="344.9198" style="stroke:#181818;stroke-width:1.0;" width="10" x="577" y="171.7878"/><rect fill="#FFFFFF" height="303.6798" style="stroke:#181818;stroke-width:1.0;" width="10" x="744" y="213.0278"/><rect fill="#FFFFFF" height="179.9599" style="stroke:#181818;stroke-width:1.0;" width="10" x="1087" y="336.7477"/><line style="stroke:#181818;stroke-width:0.5;stroke-dasharray:5.0,5.0;" x1="409" x2="409" y1="87.3079" y2="525.7076"/><line style="stroke:#181818;stroke-width:0.5;stroke-dasharray:5.0,5.0;" x1="581.5" x2="581.5" y1="87.3079" y2="525.7076"/><line style="stroke:#181818;stroke-width:0.5;stroke-dasharray:5.0,5.0;" x1="749" x2="749" y1="87.3079" y2="525.7076"/><line style="stroke:#181818;stroke-width:0.5;stroke-dasharray:5.0,5.0;" x1="1092" x2="1092" y1="87.3079" y2="525.7076"/><rect fill="#E2E2F0" height="41.24" rx="2.5" ry="2.5" style="stroke:#181818;stroke-width:0.5;" width="68" x="375" y="45.0679"/><text fill="#000000" font-family="sans-serif" font-size="20" lengthAdjust="spacing" textLength="54" x="382" y="73.4479">Route</text><rect fill="#E2E2F0" height="41.24" rx="2.5" ry="2.5" style="stroke:#181818;stroke-width:0.5;" width="68" x="375" y="524.7076"/><text fill="#000000" font-family="sans-serif" font-size="20" lengthAdjust="spacing" textLength="54" x="382" y="553.0876">Route</text><rect fill="#E2E2F0" height="41.24" rx="2.5" ry="2.5" style="stroke:#181818;stroke-width:0.5;" width="107" x="528.5" y="45.0679"/><text fill="#000000" font-family="sans-serif" font-size="20" lengthAdjust="spacing" textLength="93" x="535.5" y="73.4479">Controller</text><rect fill="#E2E2F0" height="41.24" rx="2.5" ry="2.5" style="stroke:#181818;stroke-width:0.5;" width="107" x="528.5" y="524.7076"/><text fill="#000000" font-family="sans-serif" font-size="20" lengthAdjust="spacing" textLength="93" x="535.5" y="553.0876">Controller</text><rect fill="#E2E2F0" height="41.24" rx="2.5" ry="2.5" style="stroke:#181818;stroke-width:0.5;" width="80" x="709" y="45.0679"/><text fill="#000000" font-family="sans-serif" font-size="20" lengthAdjust="spacing" textLength="66" x="716" y="73.4479">Service</text><rect fill="#E2E2F0" height="41.24" rx="2.5" ry="2.5" style="stroke:#181818;stroke-width:0.5;" width="80" x="709" y="524.7076"/><text fill="#000000" font-family="sans-serif" font-size="20" lengthAdjust="spacing" textLength="66" x="716" y="553.0876">Service</text><rect fill="#E2E2F0" height="41.24" rx="2.5" ry="2.5" style="stroke:#181818;stroke-width:0.5;" width="120" x="1032" y="45.0679"/><text fill="#000000" font-family="sans-serif" font-size="20" lengthAdjust="spacing" textLength="106" x="1039" y="73.4479">Repositorio</text><rect fill="#E2E2F0" height="41.24" rx="2.5" ry="2.5" style="stroke:#181818;stroke-width:0.5;" width="120" x="1032" y="524.7076"/><text fill="#000000" font-family="sans-serif" font-size="20" lengthAdjust="spacing" textLength="106" x="1039" y="553.0876">Repositorio</text><rect fill="#FFFFFF" height="386.1598" style="stroke:#181818;stroke-width:1.0;" width="10" x="404" y="130.5479"/><rect fill="#FFFFFF" height="344.9198" style="stroke:#181818;stroke-width:1.0;" width="10" x="577" y="171.7878"/><rect fill="#FFFFFF" height="303.6798" style="stroke:#181818;stroke-width:1.0;" width="10" x="744" y="213.0278"/><rect fill="#FFFFFF" height="179.9599" style="stroke:#181818;stroke-width:1.0;" width="10" x="1087" y="336.7477"/><polygon fill="#181818" points="392,126.5479,402,130.5479,392,134.5479,396,130.5479" style="stroke:#181818;stroke-width:1.0;"/><line style="stroke:#181818;stroke-width:1.0;" x1="0" x2="398" y1="130.5479" y2="130.5479"/><text fill="#000000" font-family="sans-serif" font-size="20" lengthAdjust="spacing" textLength="385" x="7" y="122.6879">patch(api/bridges/:id); put(api/bridges/:id)</text><polygon fill="#181818" points="565,167.7878,575,171.7878,565,175.7878,569,171.7878" style="stroke:#181818;stroke-width:1.0;"/><line style="stroke:#181818;stroke-width:1.0;" x1="414" x2="571" y1="171.7878" y2="171.7878"/><text fill="#000000" font-family="sans-serif" font-size="20" lengthAdjust="spacing" textLength="138" x="421" y="163.9278">updateBridge()</text><polygon fill="#181818" points="732,209.0278,742,213.0278,732,217.0278,736,213.0278" style="stroke:#181818;stroke-width:1.0;"/><line style="stroke:#181818;stroke-width:1.0;" x1="587" x2="738" y1="213.0278" y2="213.0278"/><text fill="#000000" font-family="sans-serif" font-size="20" lengthAdjust="spacing" textLength="138" x="594" y="205.1678">updateBridge()</text><polygon fill="#181818" points="732,250.2678,742,254.2678,732,258.2678,736,254.2678" style="stroke:#181818;stroke-width:1.0;"/><line style="stroke:#181818;stroke-width:1.0;" x1="587" x2="738" y1="254.2678" y2="254.2678"/><text fill="#000000" font-family="sans-serif" font-size="20" lengthAdjust="spacing" textLength="102" x="594" y="246.4078">bridgeDTO</text><polygon fill="#181818" points="1080,291.5078,1090,295.5078,1080,299.5078,1084,295.5078" style="stroke:#181818;stroke-width:1.0;"/><line style="stroke:#181818;stroke-width:1.0;" x1="754" x2="1086" y1="295.5078" y2="295.5078"/><text fill="#000000" font-family="sans-serif" font-size="20" lengthAdjust="spacing" textLength="314" x="761" y="287.6478">bridge=findByDomainId(bridgeId)</text><polygon fill="#181818" points="1075,332.7477,1085,336.7477,1075,340.7477,1079,336.7477" style="stroke:#181818;stroke-width:1.0;"/><line style="stroke:#181818;stroke-width:1.0;" x1="754" x2="1081" y1="336.7477" y2="336.7477"/><text fill="#000000" font-family="sans-serif" font-size="20" lengthAdjust="spacing" textLength="114" x="761" y="328.8877">save(bridge)</text><polygon fill="#181818" points="598,373.9877,588,377.9877,598,381.9877,594,377.9877" style="stroke:#181818;stroke-width:1.0;"/><line style="stroke:#181818;stroke-width:1.0;stroke-dasharray:2.0,2.0;" x1="592" x2="743" y1="377.9877" y2="377.9877"/><text fill="#000000" font-family="sans-serif" font-size="20" lengthAdjust="spacing" textLength="102" x="604" y="370.1277">DTObridge</text><polygon fill="#181818" points="425,415.2277,415,419.2277,425,423.2277,421,419.2277" style="stroke:#181818;stroke-width:1.0;"/><line style="stroke:#181818;stroke-width:1.0;stroke-dasharray:2.0,2.0;" x1="419" x2="576" y1="419.2277" y2="419.2277"/><text fill="#000000" font-family="sans-serif" font-size="20" lengthAdjust="spacing" textLength="139" x="431" y="411.3677">Resposta HTTP</text><polygon fill="#181818" points="11,456.4677,1,460.4677,11,464.4677,7,460.4677" style="stroke:#181818;stroke-width:1.0;"/><line style="stroke:#181818;stroke-width:1.0;stroke-dasharray:2.0,2.0;" x1="5" x2="403" y1="460.4677" y2="460.4677"/><text fill="#000000" font-family="sans-serif" font-size="20" lengthAdjust="spacing" textLength="139" x="17" y="452.6077">Resposta HTTP</text><path d="M759,473.4677 L759,510.4677 L1451,510.4677 L1451,483.4677 L1441,473.4677 L759,473.4677 " fill="#FEFFDD" style="stroke:#181818;stroke-width:0.5;"/><path d="M1441,473.4677 L1441,483.4677 L1451,483.4677 L1441,473.4677 " fill="#FEFFDD" style="stroke:#181818;stroke-width:0.5;"/><text fill="#000000" font-family="sans-serif" font-size="20" lengthAdjust="spacing" textLength="671" x="765" y="499.8476">O DTO não está representado por questões de simplicidade (Ver US150).</text><!--SRC=[VLBBRi8m4BpxArOzXKCAHU927mTAgtAY8j2x6szWHMAxjeFK_atLSu_z0dwi2m4IgEZDkpkpCxEoNvAsqiaYD-aI5IZCP9c7HwD3GXy8tOu857A4MTBjTI261qL1Eh3IUpd70b07Xu2AilLtIiOBmUi2fMIb3d0nCMN02v0Ujg_ZuJshE9FdwBQ8kZo69UXMb5PRTkyJ4RJ6Kp2EJ2LLrq90V5TfGvzTXtGHIKljLqTgZhxT9zMw1bk6FrqXqq0hoRpAURM3bzKsUMDf5KC6MrxKu3IoDF3CtWNuXxgFU8vNcHnEnsBVsoIi8nyWjnbfDNWVcaAI7gceweuusbcYbolSuPe7QDppG3sz11kgY0tZSUFs4_Iy9KXucawVnKqSdva8RRZhQBu8OBB3DSOR0T3hBmFem_eJ75g7dh-VL0QiSV1MRWO_wFaJWwV2vln1bEGYUc67i-IgrsbT2jGADXA_]--></g></svg>