<?xml version="1.0" encoding="UTF-8" standalone="no"?><svg xmlns="http://www.w3.org/2000/svg" xmlns:xlink="http://www.w3.org/1999/xlink" contentStyleType="text/css" height="489px" preserveAspectRatio="none" style="width:1772px;height:489px;background:#FFFFFF;" version="1.1" viewBox="0 0 1772 489" width="1772px" zoomAndPan="magnify"><defs/><g><text fill="#000000" font-family="sans-serif" font-size="14" font-weight="bold" lengthAdjust="spacing" textLength="285" x="742" y="29.9659">US260 - Listar passagens entre 2 edifícios</text><rect fill="#FFFFFF" height="303.6798" style="stroke:#181818;stroke-width:1.0;" width="10" x="258" y="130.5479"/><rect fill="#FFFFFF" height="262.4398" style="stroke:#181818;stroke-width:1.0;" width="10" x="567" y="171.7878"/><rect fill="#FFFFFF" height="221.1999" style="stroke:#181818;stroke-width:1.0;" width="10" x="1058" y="213.0278"/><rect fill="#FFFFFF" height="179.9599" style="stroke:#181818;stroke-width:1.0;" width="10" x="1630" y="254.2678"/><line style="stroke:#181818;stroke-width:0.5;stroke-dasharray:5.0,5.0;" x1="263" x2="263" y1="87.3079" y2="443.2277"/><line style="stroke:#181818;stroke-width:0.5;stroke-dasharray:5.0,5.0;" x1="571.5" x2="571.5" y1="87.3079" y2="443.2277"/><line style="stroke:#181818;stroke-width:0.5;stroke-dasharray:5.0,5.0;" x1="1063" x2="1063" y1="87.3079" y2="443.2277"/><line style="stroke:#181818;stroke-width:0.5;stroke-dasharray:5.0,5.0;" x1="1635" x2="1635" y1="87.3079" y2="443.2277"/><rect fill="#E2E2F0" height="41.24" rx="2.5" ry="2.5" style="stroke:#181818;stroke-width:0.5;" width="68" x="229" y="45.0679"/><text fill="#000000" font-family="sans-serif" font-size="20" lengthAdjust="spacing" textLength="54" x="236" y="73.4479">Route</text><rect fill="#E2E2F0" height="41.24" rx="2.5" ry="2.5" style="stroke:#181818;stroke-width:0.5;" width="68" x="229" y="442.2277"/><text fill="#000000" font-family="sans-serif" font-size="20" lengthAdjust="spacing" textLength="54" x="236" y="470.6077">Route</text><rect fill="#E2E2F0" height="41.24" rx="2.5" ry="2.5" style="stroke:#181818;stroke-width:0.5;" width="107" x="518.5" y="45.0679"/><text fill="#000000" font-family="sans-serif" font-size="20" lengthAdjust="spacing" textLength="93" x="525.5" y="73.4479">Controller</text><rect fill="#E2E2F0" height="41.24" rx="2.5" ry="2.5" style="stroke:#181818;stroke-width:0.5;" width="107" x="518.5" y="442.2277"/><text fill="#000000" font-family="sans-serif" font-size="20" lengthAdjust="spacing" textLength="93" x="525.5" y="470.6077">Controller</text><rect fill="#E2E2F0" height="41.24" rx="2.5" ry="2.5" style="stroke:#181818;stroke-width:0.5;" width="80" x="1023" y="45.0679"/><text fill="#000000" font-family="sans-serif" font-size="20" lengthAdjust="spacing" textLength="66" x="1030" y="73.4479">Service</text><rect fill="#E2E2F0" height="41.24" rx="2.5" ry="2.5" style="stroke:#181818;stroke-width:0.5;" width="80" x="1023" y="442.2277"/><text fill="#000000" font-family="sans-serif" font-size="20" lengthAdjust="spacing" textLength="66" x="1030" y="470.6077">Service</text><rect fill="#E2E2F0" height="41.24" rx="2.5" ry="2.5" style="stroke:#181818;stroke-width:0.5;" width="120" x="1575" y="45.0679"/><text fill="#000000" font-family="sans-serif" font-size="20" lengthAdjust="spacing" textLength="106" x="1582" y="73.4479">Repositorio</text><rect fill="#E2E2F0" height="41.24" rx="2.5" ry="2.5" style="stroke:#181818;stroke-width:0.5;" width="120" x="1575" y="442.2277"/><text fill="#000000" font-family="sans-serif" font-size="20" lengthAdjust="spacing" textLength="106" x="1582" y="470.6077">Repositorio</text><rect fill="#FFFFFF" height="303.6798" style="stroke:#181818;stroke-width:1.0;" width="10" x="258" y="130.5479"/><rect fill="#FFFFFF" height="262.4398" style="stroke:#181818;stroke-width:1.0;" width="10" x="567" y="171.7878"/><rect fill="#FFFFFF" height="221.1999" style="stroke:#181818;stroke-width:1.0;" width="10" x="1058" y="213.0278"/><rect fill="#FFFFFF" height="179.9599" style="stroke:#181818;stroke-width:1.0;" width="10" x="1630" y="254.2678"/><polygon fill="#181818" points="246,126.5479,256,130.5479,246,134.5479,250,130.5479" style="stroke:#181818;stroke-width:1.0;"/><line style="stroke:#181818;stroke-width:1.0;" x1="0" x2="252" y1="130.5479" y2="130.5479"/><text fill="#000000" font-family="sans-serif" font-size="20" lengthAdjust="spacing" textLength="239" x="7" y="122.6879">get(api/bridges/buildings)</text><polygon fill="#181818" points="555,167.7878,565,171.7878,555,175.7878,559,171.7878" style="stroke:#181818;stroke-width:1.0;"/><line style="stroke:#181818;stroke-width:1.0;" x1="268" x2="561" y1="171.7878" y2="171.7878"/><text fill="#000000" font-family="sans-serif" font-size="20" lengthAdjust="spacing" textLength="280" x="275" y="163.9278">getBridgesBetweenBuildings()</text><polygon fill="#181818" points="1046,209.0278,1056,213.0278,1046,217.0278,1050,213.0278" style="stroke:#181818;stroke-width:1.0;"/><line style="stroke:#181818;stroke-width:1.0;" x1="577" x2="1052" y1="213.0278" y2="213.0278"/><text fill="#000000" font-family="sans-serif" font-size="20" lengthAdjust="spacing" textLength="462" x="584" y="205.1678">getBridgesBetweenBuildings(building1, building2)</text><polygon fill="#181818" points="1618,250.2678,1628,254.2678,1618,258.2678,1622,254.2678" style="stroke:#181818;stroke-width:1.0;"/><line style="stroke:#181818;stroke-width:1.0;" x1="1068" x2="1624" y1="254.2678" y2="254.2678"/><text fill="#000000" font-family="sans-serif" font-size="20" lengthAdjust="spacing" textLength="543" x="1075" y="246.4078">bridges=getBridgesBetweenBuildings(building1, building2)</text><polygon fill="#181818" points="588,291.5078,578,295.5078,588,299.5078,584,295.5078" style="stroke:#181818;stroke-width:1.0;"/><line style="stroke:#181818;stroke-width:1.0;stroke-dasharray:2.0,2.0;" x1="582" x2="1057" y1="295.5078" y2="295.5078"/><text fill="#000000" font-family="sans-serif" font-size="20" lengthAdjust="spacing" textLength="112" x="594" y="287.6478">bridgesDTO</text><polygon fill="#181818" points="279,332.7477,269,336.7477,279,340.7477,275,336.7477" style="stroke:#181818;stroke-width:1.0;"/><line style="stroke:#181818;stroke-width:1.0;stroke-dasharray:2.0,2.0;" x1="273" x2="566" y1="336.7477" y2="336.7477"/><text fill="#000000" font-family="sans-serif" font-size="20" lengthAdjust="spacing" textLength="139" x="285" y="328.8877">Resposta HTTP</text><polygon fill="#181818" points="11,373.9877,1,377.9877,11,381.9877,7,377.9877" style="stroke:#181818;stroke-width:1.0;"/><line style="stroke:#181818;stroke-width:1.0;stroke-dasharray:2.0,2.0;" x1="5" x2="257" y1="377.9877" y2="377.9877"/><text fill="#000000" font-family="sans-serif" font-size="20" lengthAdjust="spacing" textLength="139" x="17" y="370.1277">Resposta HTTP</text><path d="M1073,390.9877 L1073,427.9877 L1765,427.9877 L1765,400.9877 L1755,390.9877 L1073,390.9877 " fill="#FEFFDD" style="stroke:#181818;stroke-width:0.5;"/><path d="M1755,390.9877 L1755,400.9877 L1765,400.9877 L1755,390.9877 " fill="#FEFFDD" style="stroke:#181818;stroke-width:0.5;"/><text fill="#000000" font-family="sans-serif" font-size="20" lengthAdjust="spacing" textLength="671" x="1079" y="417.3677">O DTO não está representado por questões de simplicidade (Ver US150).</text><!--SRC=[dPA_JWCn3CRtF8NLgPKu-aU20G53GOW1gQZNigSNzx2Q9Y7n5OctGSoCF45VZ9IxwrqhmS0Mn_RlysSvhCWuwULQsso52XGkPQ7vpXfEwGrXD11Ch17cwUXy00ayK63fmSaGP8uc01hsiGvGqNBxcP4DGaGYKqPE6eREr1QC7P01Vbw7oPievAtMw7ygcl2mB4M_eQoaLEyZ4NGs45jFjfHgOY4WkIwruG9ovAvqr5zuKZc6_g8WhSZaeITanhIHiQgSi-o8hSrGPV-uR1qZloAQSGtejWWj7wtkoAg6_njKppGyWVevQi7h1TIidRl6RaHNtgx-Bz5UtrxcU1MLpEriqZAPj7OznH0nBE5-DdiKbqdoIqOO6tyzvSyCThdtDu681hFzi821j-_WqNaCyU2aik2iXvTYb_Z24EyM0gsTZWUXP0owJt74UJey6_HE1He5Eubl]--></g></svg>