<?xml version="1.0" encoding="UTF-8" standalone="no"?><svg xmlns="http://www.w3.org/2000/svg" xmlns:xlink="http://www.w3.org/1999/xlink" contentStyleType="text/css" height="530px" preserveAspectRatio="none" style="width:1254px;height:530px;background:#FFFFFF;" version="1.1" viewBox="0 0 1254 530" width="1254px" zoomAndPan="magnify"><defs/><g><text fill="#000000" font-family="sans-serif" font-size="14" font-weight="bold" lengthAdjust="spacing" textLength="233" x="509" y="29.9659">US270 - Criar elevador em edifício</text><rect fill="#FFFFFF" height="344.9198" style="stroke:#181818;stroke-width:1.0;" width="10" x="192" y="130.5479"/><rect fill="#FFFFFF" height="303.6798" style="stroke:#181818;stroke-width:1.0;" width="10" x="366" y="171.7878"/><rect fill="#FFFFFF" height="262.4398" style="stroke:#181818;stroke-width:1.0;" width="10" x="540" y="213.0278"/><rect fill="#FFFFFF" height="179.9599" style="stroke:#181818;stroke-width:1.0;" width="10" x="740" y="295.5078"/><line style="stroke:#181818;stroke-width:0.5;stroke-dasharray:5.0,5.0;" x1="197" x2="197" y1="87.3079" y2="484.4677"/><line style="stroke:#181818;stroke-width:0.5;stroke-dasharray:5.0,5.0;" x1="370.5" x2="370.5" y1="87.3079" y2="484.4677"/><line style="stroke:#181818;stroke-width:0.5;stroke-dasharray:5.0,5.0;" x1="545" x2="545" y1="87.3079" y2="484.4677"/><line style="stroke:#181818;stroke-width:0.5;stroke-dasharray:5.0,5.0;" x1="745" x2="745" y1="87.3079" y2="484.4677"/><rect fill="#E2E2F0" height="41.24" rx="2.5" ry="2.5" style="stroke:#181818;stroke-width:0.5;" width="68" x="163" y="45.0679"/><text fill="#000000" font-family="sans-serif" font-size="20" lengthAdjust="spacing" textLength="54" x="170" y="73.4479">Route</text><rect fill="#E2E2F0" height="41.24" rx="2.5" ry="2.5" style="stroke:#181818;stroke-width:0.5;" width="68" x="163" y="483.4677"/><text fill="#000000" font-family="sans-serif" font-size="20" lengthAdjust="spacing" textLength="54" x="170" y="511.8476">Route</text><rect fill="#E2E2F0" height="41.24" rx="2.5" ry="2.5" style="stroke:#181818;stroke-width:0.5;" width="107" x="317.5" y="45.0679"/><text fill="#000000" font-family="sans-serif" font-size="20" lengthAdjust="spacing" textLength="93" x="324.5" y="73.4479">Controller</text><rect fill="#E2E2F0" height="41.24" rx="2.5" ry="2.5" style="stroke:#181818;stroke-width:0.5;" width="107" x="317.5" y="483.4677"/><text fill="#000000" font-family="sans-serif" font-size="20" lengthAdjust="spacing" textLength="93" x="324.5" y="511.8476">Controller</text><rect fill="#E2E2F0" height="41.24" rx="2.5" ry="2.5" style="stroke:#181818;stroke-width:0.5;" width="80" x="505" y="45.0679"/><text fill="#000000" font-family="sans-serif" font-size="20" lengthAdjust="spacing" textLength="66" x="512" y="73.4479">Service</text><rect fill="#E2E2F0" height="41.24" rx="2.5" ry="2.5" style="stroke:#181818;stroke-width:0.5;" width="80" x="505" y="483.4677"/><text fill="#000000" font-family="sans-serif" font-size="20" lengthAdjust="spacing" textLength="66" x="512" y="511.8476">Service</text><rect fill="#E2E2F0" height="41.24" rx="2.5" ry="2.5" style="stroke:#181818;stroke-width:0.5;" width="120" x="685" y="45.0679"/><text fill="#000000" font-family="sans-serif" font-size="20" lengthAdjust="spacing" textLength="106" x="692" y="73.4479">Repositorio</text><rect fill="#E2E2F0" height="41.24" rx="2.5" ry="2.5" style="stroke:#181818;stroke-width:0.5;" width="120" x="685" y="483.4677"/><text fill="#000000" font-family="sans-serif" font-size="20" lengthAdjust="spacing" textLength="106" x="692" y="511.8476">Repositorio</text><rect fill="#FFFFFF" height="344.9198" style="stroke:#181818;stroke-width:1.0;" width="10" x="192" y="130.5479"/><rect fill="#FFFFFF" height="303.6798" style="stroke:#181818;stroke-width:1.0;" width="10" x="366" y="171.7878"/><rect fill="#FFFFFF" height="262.4398" style="stroke:#181818;stroke-width:1.0;" width="10" x="540" y="213.0278"/><rect fill="#FFFFFF" height="179.9599" style="stroke:#181818;stroke-width:1.0;" width="10" x="740" y="295.5078"/><polygon fill="#181818" points="180,126.5479,190,130.5479,180,134.5479,184,130.5479" style="stroke:#181818;stroke-width:1.0;"/><line style="stroke:#181818;stroke-width:1.0;" x1="0" x2="186" y1="130.5479" y2="130.5479"/><text fill="#000000" font-family="sans-serif" font-size="20" lengthAdjust="spacing" textLength="173" x="7" y="122.6879">post(api/elevators)</text><polygon fill="#181818" points="354,167.7878,364,171.7878,354,175.7878,358,171.7878" style="stroke:#181818;stroke-width:1.0;"/><line style="stroke:#181818;stroke-width:1.0;" x1="202" x2="360" y1="171.7878" y2="171.7878"/><text fill="#000000" font-family="sans-serif" font-size="20" lengthAdjust="spacing" textLength="145" x="209" y="163.9278">createElevator()</text><polygon fill="#181818" points="528,209.0278,538,213.0278,528,217.0278,532,213.0278" style="stroke:#181818;stroke-width:1.0;"/><line style="stroke:#181818;stroke-width:1.0;" x1="376" x2="534" y1="213.0278" y2="213.0278"/><text fill="#000000" font-family="sans-serif" font-size="20" lengthAdjust="spacing" textLength="145" x="383" y="205.1678">createElevator()</text><polygon fill="#181818" points="528,250.2678,538,254.2678,528,258.2678,532,254.2678" style="stroke:#181818;stroke-width:1.0;"/><line style="stroke:#181818;stroke-width:1.0;" x1="376" x2="534" y1="254.2678" y2="254.2678"/><text fill="#000000" font-family="sans-serif" font-size="20" lengthAdjust="spacing" textLength="117" x="383" y="246.4078">elevatorDTO</text><polygon fill="#181818" points="728,291.5078,738,295.5078,728,299.5078,732,295.5078" style="stroke:#181818;stroke-width:1.0;"/><line style="stroke:#181818;stroke-width:1.0;" x1="550" x2="734" y1="295.5078" y2="295.5078"/><text fill="#000000" font-family="sans-serif" font-size="20" lengthAdjust="spacing" textLength="171" x="557" y="287.6478">save(DTOelevator)</text><polygon fill="#181818" points="387,332.7477,377,336.7477,387,340.7477,383,336.7477" style="stroke:#181818;stroke-width:1.0;"/><line style="stroke:#181818;stroke-width:1.0;stroke-dasharray:2.0,2.0;" x1="381" x2="539" y1="336.7477" y2="336.7477"/><text fill="#000000" font-family="sans-serif" font-size="20" lengthAdjust="spacing" textLength="117" x="393" y="328.8877">DTOelevator</text><polygon fill="#181818" points="213,373.9877,203,377.9877,213,381.9877,209,377.9877" style="stroke:#181818;stroke-width:1.0;"/><line style="stroke:#181818;stroke-width:1.0;stroke-dasharray:2.0,2.0;" x1="207" x2="365" y1="377.9877" y2="377.9877"/><text fill="#000000" font-family="sans-serif" font-size="20" lengthAdjust="spacing" textLength="139" x="219" y="370.1277">Resposta HTTP</text><polygon fill="#181818" points="11,415.2277,1,419.2277,11,423.2277,7,419.2277" style="stroke:#181818;stroke-width:1.0;"/><line style="stroke:#181818;stroke-width:1.0;stroke-dasharray:2.0,2.0;" x1="5" x2="191" y1="419.2277" y2="419.2277"/><text fill="#000000" font-family="sans-serif" font-size="20" lengthAdjust="spacing" textLength="139" x="17" y="411.3677">Resposta HTTP</text><path d="M555,432.2277 L555,469.2277 L1247,469.2277 L1247,442.2277 L1237,432.2277 L555,432.2277 " fill="#FEFFDD" style="stroke:#181818;stroke-width:0.5;"/><path d="M1237,432.2277 L1237,442.2277 L1247,442.2277 L1237,432.2277 " fill="#FEFFDD" style="stroke:#181818;stroke-width:0.5;"/><text fill="#000000" font-family="sans-serif" font-size="20" lengthAdjust="spacing" textLength="671" x="561" y="458.6077">O DTO não está representado por questões de simplicidade (Ver US150).</text><!--SRC=[VLAxJWCn4Epz5QjKb-8WH4982D4445rGBg6txlPW5SS-x4qA_WPHK_85-J7sNZadKkXslJEUcRN3ccoblTuObw-nW09BlJNyv2ndz8amdIWcDWYhR7epWHHcdhG7DBZJXPDY0rXGkV_9oIabDp7bL6dBC5guBUC8T82cEXxEHC0xOz0tYA4zXcNeTvItjtJrYGXMBX0xJwwL6dgb5AJthJZSWfnpeYkwRBmB8eoLpfcanivX2nNEO4U8kKU1F7Qi9695hYE6y3kh_vBxEEUOlSs7vLprftMS8Q20WjvX8eWU74UADd7WdsQBg96HD5hR0aEzEGtFo-MBkalJCnFhvD3Jspk3Am_XvhK2sFst0moy_mAFbSU0bkNto9Du-DZMWryCylKWqAOoyhQ5bYPv5OkhxEfwChvGQ0ke9Vu0]--></g></svg>