<?xml version="1.0" encoding="UTF-8" standalone="no"?><svg xmlns="http://www.w3.org/2000/svg" xmlns:xlink="http://www.w3.org/1999/xlink" contentStyleType="text/css" height="571px" preserveAspectRatio="none" style="width:1466px;height:571px;background:#FFFFFF;" version="1.1" viewBox="0 0 1466 571" width="1466px" zoomAndPan="magnify"><defs/><g><text fill="#000000" font-family="sans-serif" font-size="14" font-weight="bold" lengthAdjust="spacing" textLength="241" x="611" y="29.9659">US280 - Editar elevador em edifício</text><rect fill="#FFFFFF" height="386.1598" style="stroke:#181818;stroke-width:1.0;" width="10" x="390" y="130.5479"/><rect fill="#FFFFFF" height="344.9198" style="stroke:#181818;stroke-width:1.0;" width="10" x="571" y="171.7878"/><rect fill="#FFFFFF" height="303.6798" style="stroke:#181818;stroke-width:1.0;" width="10" x="752" y="213.0278"/><rect fill="#FFFFFF" height="179.9599" style="stroke:#181818;stroke-width:1.0;" width="10" x="1170" y="336.7477"/><line style="stroke:#181818;stroke-width:0.5;stroke-dasharray:5.0,5.0;" x1="395" x2="395" y1="87.3079" y2="525.7076"/><line style="stroke:#181818;stroke-width:0.5;stroke-dasharray:5.0,5.0;" x1="575.5" x2="575.5" y1="87.3079" y2="525.7076"/><line style="stroke:#181818;stroke-width:0.5;stroke-dasharray:5.0,5.0;" x1="757" x2="757" y1="87.3079" y2="525.7076"/><line style="stroke:#181818;stroke-width:0.5;stroke-dasharray:5.0,5.0;" x1="1175" x2="1175" y1="87.3079" y2="525.7076"/><rect fill="#E2E2F0" height="41.24" rx="2.5" ry="2.5" style="stroke:#181818;stroke-width:0.5;" width="68" x="361" y="45.0679"/><text fill="#000000" font-family="sans-serif" font-size="20" lengthAdjust="spacing" textLength="54" x="368" y="73.4479">Route</text><rect fill="#E2E2F0" height="41.24" rx="2.5" ry="2.5" style="stroke:#181818;stroke-width:0.5;" width="68" x="361" y="524.7076"/><text fill="#000000" font-family="sans-serif" font-size="20" lengthAdjust="spacing" textLength="54" x="368" y="553.0876">Route</text><rect fill="#E2E2F0" height="41.24" rx="2.5" ry="2.5" style="stroke:#181818;stroke-width:0.5;" width="107" x="522.5" y="45.0679"/><text fill="#000000" font-family="sans-serif" font-size="20" lengthAdjust="spacing" textLength="93" x="529.5" y="73.4479">Controller</text><rect fill="#E2E2F0" height="41.24" rx="2.5" ry="2.5" style="stroke:#181818;stroke-width:0.5;" width="107" x="522.5" y="524.7076"/><text fill="#000000" font-family="sans-serif" font-size="20" lengthAdjust="spacing" textLength="93" x="529.5" y="553.0876">Controller</text><rect fill="#E2E2F0" height="41.24" rx="2.5" ry="2.5" style="stroke:#181818;stroke-width:0.5;" width="80" x="717" y="45.0679"/><text fill="#000000" font-family="sans-serif" font-size="20" lengthAdjust="spacing" textLength="66" x="724" y="73.4479">Service</text><rect fill="#E2E2F0" height="41.24" rx="2.5" ry="2.5" style="stroke:#181818;stroke-width:0.5;" width="80" x="717" y="524.7076"/><text fill="#000000" font-family="sans-serif" font-size="20" lengthAdjust="spacing" textLength="66" x="724" y="553.0876">Service</text><rect fill="#E2E2F0" height="41.24" rx="2.5" ry="2.5" style="stroke:#181818;stroke-width:0.5;" width="120" x="1115" y="45.0679"/><text fill="#000000" font-family="sans-serif" font-size="20" lengthAdjust="spacing" textLength="106" x="1122" y="73.4479">Repositorio</text><rect fill="#E2E2F0" height="41.24" rx="2.5" ry="2.5" style="stroke:#181818;stroke-width:0.5;" width="120" x="1115" y="524.7076"/><text fill="#000000" font-family="sans-serif" font-size="20" lengthAdjust="spacing" textLength="106" x="1122" y="553.0876">Repositorio</text><rect fill="#FFFFFF" height="386.1598" style="stroke:#181818;stroke-width:1.0;" width="10" x="390" y="130.5479"/><rect fill="#FFFFFF" height="344.9198" style="stroke:#181818;stroke-width:1.0;" width="10" x="571" y="171.7878"/><rect fill="#FFFFFF" height="303.6798" style="stroke:#181818;stroke-width:1.0;" width="10" x="752" y="213.0278"/><rect fill="#FFFFFF" height="179.9599" style="stroke:#181818;stroke-width:1.0;" width="10" x="1170" y="336.7477"/><polygon fill="#181818" points="378,126.5479,388,130.5479,378,134.5479,382,130.5479" style="stroke:#181818;stroke-width:1.0;"/><line style="stroke:#181818;stroke-width:1.0;" x1="0" x2="384" y1="130.5479" y2="130.5479"/><text fill="#000000" font-family="sans-serif" font-size="20" lengthAdjust="spacing" textLength="371" x="7" y="122.6879">patch(api/elevators/); put(api/elevators/)</text><polygon fill="#181818" points="559,167.7878,569,171.7878,559,175.7878,563,171.7878" style="stroke:#181818;stroke-width:1.0;"/><line style="stroke:#181818;stroke-width:1.0;" x1="400" x2="565" y1="171.7878" y2="171.7878"/><text fill="#000000" font-family="sans-serif" font-size="20" lengthAdjust="spacing" textLength="152" x="407" y="163.9278">updateElevator()</text><polygon fill="#181818" points="740,209.0278,750,213.0278,740,217.0278,744,213.0278" style="stroke:#181818;stroke-width:1.0;"/><line style="stroke:#181818;stroke-width:1.0;" x1="581" x2="746" y1="213.0278" y2="213.0278"/><text fill="#000000" font-family="sans-serif" font-size="20" lengthAdjust="spacing" textLength="152" x="588" y="205.1678">updateElevator()</text><polygon fill="#181818" points="740,250.2678,750,254.2678,740,258.2678,744,254.2678" style="stroke:#181818;stroke-width:1.0;"/><line style="stroke:#181818;stroke-width:1.0;" x1="581" x2="746" y1="254.2678" y2="254.2678"/><text fill="#000000" font-family="sans-serif" font-size="20" lengthAdjust="spacing" textLength="117" x="588" y="246.4078">elevatorDTO</text><polygon fill="#181818" points="1163,291.5078,1173,295.5078,1163,299.5078,1167,295.5078" style="stroke:#181818;stroke-width:1.0;"/><line style="stroke:#181818;stroke-width:1.0;" x1="762" x2="1169" y1="295.5078" y2="295.5078"/><text fill="#000000" font-family="sans-serif" font-size="20" lengthAdjust="spacing" textLength="389" x="769" y="287.6478">elevator=findByDomainId(elevatorDTO.id)</text><polygon fill="#181818" points="1158,332.7477,1168,336.7477,1158,340.7477,1162,336.7477" style="stroke:#181818;stroke-width:1.0;"/><line style="stroke:#181818;stroke-width:1.0;" x1="762" x2="1164" y1="336.7477" y2="336.7477"/><text fill="#000000" font-family="sans-serif" font-size="20" lengthAdjust="spacing" textLength="129" x="769" y="328.8877">save(elevator)</text><polygon fill="#181818" points="592,373.9877,582,377.9877,592,381.9877,588,377.9877" style="stroke:#181818;stroke-width:1.0;"/><line style="stroke:#181818;stroke-width:1.0;stroke-dasharray:2.0,2.0;" x1="586" x2="751" y1="377.9877" y2="377.9877"/><text fill="#000000" font-family="sans-serif" font-size="20" lengthAdjust="spacing" textLength="117" x="598" y="370.1277">DTOelevator</text><polygon fill="#181818" points="411,415.2277,401,419.2277,411,423.2277,407,419.2277" style="stroke:#181818;stroke-width:1.0;"/><line style="stroke:#181818;stroke-width:1.0;stroke-dasharray:2.0,2.0;" x1="405" x2="570" y1="419.2277" y2="419.2277"/><text fill="#000000" font-family="sans-serif" font-size="20" lengthAdjust="spacing" textLength="139" x="417" y="411.3677">Resposta HTTP</text><polygon fill="#181818" points="11,456.4677,1,460.4677,11,464.4677,7,460.4677" style="stroke:#181818;stroke-width:1.0;"/><line style="stroke:#181818;stroke-width:1.0;stroke-dasharray:2.0,2.0;" x1="5" x2="389" y1="460.4677" y2="460.4677"/><text fill="#000000" font-family="sans-serif" font-size="20" lengthAdjust="spacing" textLength="139" x="17" y="452.6077">Resposta HTTP</text><path d="M767,473.4677 L767,510.4677 L1459,510.4677 L1459,483.4677 L1449,473.4677 L767,473.4677 " fill="#FEFFDD" style="stroke:#181818;stroke-width:0.5;"/><path d="M1449,473.4677 L1449,483.4677 L1459,483.4677 L1449,473.4677 " fill="#FEFFDD" style="stroke:#181818;stroke-width:0.5;"/><text fill="#000000" font-family="sans-serif" font-size="20" lengthAdjust="spacing" textLength="671" x="773" y="499.8476">O DTO não está representado por questões de simplicidade (Ver US150).</text><!--SRC=[VLBDJiCm3BxdAInEtQ7Rc8I4-3l0Xk0qj1_kKUCoQsqIadGIl0tYp94ds8lXhkkMJHgtsFv-RCT-ITfA9yl2P4jKe32NLH4UZGvJ-aGOz4MWK23CfuFBFgGmKXIa0onm9PNXHmceA5__P6I4OAb06Lcf0vnDJ1Nm3AI7pUkm-C0EpXG5kWrY7nx2fkXMb3Kgs_UH2LhZAHX7fh7Qnq90UjTumnLO6R958YtrDhqpmlSwrs2hS9mKCWl40MxxRXHOQjyawrLMCMIqfIKHAvebOZ1_Ey2_v7R8Kyosp-5iBDfiFUL-x0XqcvDMznz3KqhIpog9o5rIdTC2NgvmXuuN4crtHpxU3Aktr6YCDFgB2NhM2HAUPhCNSPEc9of26yuwUbi4CFbkD-FQ0lJwsm3wiFu2XzQXHntu9C7oLRvNTU4NFHyqU2fjmGUZ90V9A_SudvvVz3jTWLf1RV47]--></g></svg>