<?xml version="1.0" encoding="UTF-8" standalone="no"?><svg xmlns="http://www.w3.org/2000/svg" xmlns:xlink="http://www.w3.org/1999/xlink" contentStyleType="text/css" height="489px" preserveAspectRatio="none" style="width:1253px;height:489px;background:#FFFFFF;" version="1.1" viewBox="0 0 1253 489" width="1253px" zoomAndPan="magnify"><defs/><g><text fill="#000000" font-family="sans-serif" font-size="14" font-weight="bold" lengthAdjust="spacing" textLength="254" x="498" y="29.9659">US290 - Listar elevadores em edifício</text><rect fill="#FFFFFF" height="303.6798" style="stroke:#181818;stroke-width:1.0;" width="10" x="181" y="130.5479"/><rect fill="#FFFFFF" height="262.4398" style="stroke:#181818;stroke-width:1.0;" width="10" x="360" y="171.7878"/><rect fill="#FFFFFF" height="221.1999" style="stroke:#181818;stroke-width:1.0;" width="10" x="539" y="213.0278"/><rect fill="#FFFFFF" height="179.9599" style="stroke:#181818;stroke-width:1.0;" width="10" x="814" y="254.2678"/><line style="stroke:#181818;stroke-width:0.5;stroke-dasharray:5.0,5.0;" x1="186" x2="186" y1="87.3079" y2="443.2277"/><line style="stroke:#181818;stroke-width:0.5;stroke-dasharray:5.0,5.0;" x1="364.5" x2="364.5" y1="87.3079" y2="443.2277"/><line style="stroke:#181818;stroke-width:0.5;stroke-dasharray:5.0,5.0;" x1="544" x2="544" y1="87.3079" y2="443.2277"/><line style="stroke:#181818;stroke-width:0.5;stroke-dasharray:5.0,5.0;" x1="819" x2="819" y1="87.3079" y2="443.2277"/><rect fill="#E2E2F0" height="41.24" rx="2.5" ry="2.5" style="stroke:#181818;stroke-width:0.5;" width="68" x="152" y="45.0679"/><text fill="#000000" font-family="sans-serif" font-size="20" lengthAdjust="spacing" textLength="54" x="159" y="73.4479">Route</text><rect fill="#E2E2F0" height="41.24" rx="2.5" ry="2.5" style="stroke:#181818;stroke-width:0.5;" width="68" x="152" y="442.2277"/><text fill="#000000" font-family="sans-serif" font-size="20" lengthAdjust="spacing" textLength="54" x="159" y="470.6077">Route</text><rect fill="#E2E2F0" height="41.24" rx="2.5" ry="2.5" style="stroke:#181818;stroke-width:0.5;" width="107" x="311.5" y="45.0679"/><text fill="#000000" font-family="sans-serif" font-size="20" lengthAdjust="spacing" textLength="93" x="318.5" y="73.4479">Controller</text><rect fill="#E2E2F0" height="41.24" rx="2.5" ry="2.5" style="stroke:#181818;stroke-width:0.5;" width="107" x="311.5" y="442.2277"/><text fill="#000000" font-family="sans-serif" font-size="20" lengthAdjust="spacing" textLength="93" x="318.5" y="470.6077">Controller</text><rect fill="#E2E2F0" height="41.24" rx="2.5" ry="2.5" style="stroke:#181818;stroke-width:0.5;" width="80" x="504" y="45.0679"/><text fill="#000000" font-family="sans-serif" font-size="20" lengthAdjust="spacing" textLength="66" x="511" y="73.4479">Service</text><rect fill="#E2E2F0" height="41.24" rx="2.5" ry="2.5" style="stroke:#181818;stroke-width:0.5;" width="80" x="504" y="442.2277"/><text fill="#000000" font-family="sans-serif" font-size="20" lengthAdjust="spacing" textLength="66" x="511" y="470.6077">Service</text><rect fill="#E2E2F0" height="41.24" rx="2.5" ry="2.5" style="stroke:#181818;stroke-width:0.5;" width="120" x="759" y="45.0679"/><text fill="#000000" font-family="sans-serif" font-size="20" lengthAdjust="spacing" textLength="106" x="766" y="73.4479">Repositorio</text><rect fill="#E2E2F0" height="41.24" rx="2.5" ry="2.5" style="stroke:#181818;stroke-width:0.5;" width="120" x="759" y="442.2277"/><text fill="#000000" font-family="sans-serif" font-size="20" lengthAdjust="spacing" textLength="106" x="766" y="470.6077">Repositorio</text><rect fill="#FFFFFF" height="303.6798" style="stroke:#181818;stroke-width:1.0;" width="10" x="181" y="130.5479"/><rect fill="#FFFFFF" height="262.4398" style="stroke:#181818;stroke-width:1.0;" width="10" x="360" y="171.7878"/><rect fill="#FFFFFF" height="221.1999" style="stroke:#181818;stroke-width:1.0;" width="10" x="539" y="213.0278"/><rect fill="#FFFFFF" height="179.9599" style="stroke:#181818;stroke-width:1.0;" width="10" x="814" y="254.2678"/><polygon fill="#181818" points="169,126.5479,179,130.5479,169,134.5479,173,130.5479" style="stroke:#181818;stroke-width:1.0;"/><line style="stroke:#181818;stroke-width:1.0;" x1="0" x2="175" y1="130.5479" y2="130.5479"/><text fill="#000000" font-family="sans-serif" font-size="20" lengthAdjust="spacing" textLength="162" x="7" y="122.6879">get(api/elevators)</text><polygon fill="#181818" points="348,167.7878,358,171.7878,348,175.7878,352,171.7878" style="stroke:#181818;stroke-width:1.0;"/><line style="stroke:#181818;stroke-width:1.0;" x1="191" x2="354" y1="171.7878" y2="171.7878"/><text fill="#000000" font-family="sans-serif" font-size="20" lengthAdjust="spacing" textLength="150" x="198" y="163.9278">getAllElevators()</text><polygon fill="#181818" points="527,209.0278,537,213.0278,527,217.0278,531,213.0278" style="stroke:#181818;stroke-width:1.0;"/><line style="stroke:#181818;stroke-width:1.0;" x1="370" x2="533" y1="213.0278" y2="213.0278"/><text fill="#000000" font-family="sans-serif" font-size="20" lengthAdjust="spacing" textLength="150" x="377" y="205.1678">getAllElevators()</text><polygon fill="#181818" points="802,250.2678,812,254.2678,802,258.2678,806,254.2678" style="stroke:#181818;stroke-width:1.0;"/><line style="stroke:#181818;stroke-width:1.0;" x1="549" x2="808" y1="254.2678" y2="254.2678"/><text fill="#000000" font-family="sans-serif" font-size="20" lengthAdjust="spacing" textLength="246" x="556" y="246.4078">elevators=getAllElevators()</text><polygon fill="#181818" points="381,291.5078,371,295.5078,381,299.5078,377,295.5078" style="stroke:#181818;stroke-width:1.0;"/><line style="stroke:#181818;stroke-width:1.0;stroke-dasharray:2.0,2.0;" x1="375" x2="538" y1="295.5078" y2="295.5078"/><text fill="#000000" font-family="sans-serif" font-size="20" lengthAdjust="spacing" textLength="127" x="387" y="287.6478">elevatorsDTO</text><polygon fill="#181818" points="202,332.7477,192,336.7477,202,340.7477,198,336.7477" style="stroke:#181818;stroke-width:1.0;"/><line style="stroke:#181818;stroke-width:1.0;stroke-dasharray:2.0,2.0;" x1="196" x2="359" y1="336.7477" y2="336.7477"/><text fill="#000000" font-family="sans-serif" font-size="20" lengthAdjust="spacing" textLength="139" x="208" y="328.8877">Resposta HTTP</text><polygon fill="#181818" points="11,373.9877,1,377.9877,11,381.9877,7,377.9877" style="stroke:#181818;stroke-width:1.0;"/><line style="stroke:#181818;stroke-width:1.0;stroke-dasharray:2.0,2.0;" x1="5" x2="180" y1="377.9877" y2="377.9877"/><text fill="#000000" font-family="sans-serif" font-size="20" lengthAdjust="spacing" textLength="139" x="17" y="370.1277">Resposta HTTP</text><path d="M554,390.9877 L554,427.9877 L1246,427.9877 L1246,400.9877 L1236,390.9877 L554,390.9877 " fill="#FEFFDD" style="stroke:#181818;stroke-width:0.5;"/><path d="M1236,390.9877 L1236,400.9877 L1246,400.9877 L1236,390.9877 " fill="#FEFFDD" style="stroke:#181818;stroke-width:0.5;"/><text fill="#000000" font-family="sans-serif" font-size="20" lengthAdjust="spacing" textLength="671" x="560" y="417.3677">O DTO não está representado por questões de simplicidade (Ver US150).</text><!--SRC=[VPBDJW913CVlynGD9pYi8ea7ZPWOF-B11CE2zybEmOPXPfmf77mRuzcZJy2BMLZs0nAvjTl-__rrjcb1BkYebzON2pHWSAPNbf-yuvm-4GPznSGMOPeFhlgGmGibrX7GubeR7p41BW4DpJO_1Ncbn8ofeA0TGsViLumTq0bsqM7nNcP4Rot6NKUJ7hRb6DTKb2xx-6W81f-8VIHVZcfofI2xBMV3DSoHkphG-OvTwgcdTC4aCUxvoawHD32bxixQnqhLRSbQq2s96En9JwkhTQhcBMi3BzgQT7Z2fRrlxNIyG-tqC1crKBFMyumnYH5hU9vCNjLDblrJKSxBrqZpTmO_gvSOWLY3stnxmCIRBuWOv3pGiTm911_XOxKj_Ch968H4os3b7nejIVTD8AVvnMM_TwRG6TYE-0C0]--></g></svg>