<?xml version="1.0" encoding="UTF-8" standalone="no"?><svg xmlns="http://www.w3.org/2000/svg" xmlns:xlink="http://www.w3.org/1999/xlink" contentStyleType="text/css" height="530px" preserveAspectRatio="none" style="width:1543px;height:530px;background:#FFFFFF;" version="1.1" viewBox="0 0 1543 530" width="1543px" zoomAndPan="magnify"><defs/><g><text fill="#000000" font-family="sans-serif" font-size="14" font-weight="bold" lengthAdjust="spacing" textLength="249" x="645.5" y="29.9659">US310 - Criar sala de piso de edifício</text><rect fill="#FFFFFF" height="344.9198" style="stroke:#181818;stroke-width:1.0;" width="10" x="502" y="130.5479"/><rect fill="#FFFFFF" height="303.6798" style="stroke:#181818;stroke-width:1.0;" width="10" x="675" y="171.7878"/><rect fill="#FFFFFF" height="262.4398" style="stroke:#181818;stroke-width:1.0;" width="10" x="829" y="213.0278"/><rect fill="#FFFFFF" height="179.9599" style="stroke:#181818;stroke-width:1.0;" width="10" x="1005" y="295.5078"/><line style="stroke:#181818;stroke-width:0.5;stroke-dasharray:5.0,5.0;" x1="507" x2="507" y1="87.3079" y2="484.4677"/><line style="stroke:#181818;stroke-width:0.5;stroke-dasharray:5.0,5.0;" x1="679.5" x2="679.5" y1="87.3079" y2="484.4677"/><line style="stroke:#181818;stroke-width:0.5;stroke-dasharray:5.0,5.0;" x1="834" x2="834" y1="87.3079" y2="484.4677"/><line style="stroke:#181818;stroke-width:0.5;stroke-dasharray:5.0,5.0;" x1="1010" x2="1010" y1="87.3079" y2="484.4677"/><rect fill="#E2E2F0" height="41.24" rx="2.5" ry="2.5" style="stroke:#181818;stroke-width:0.5;" width="68" x="473" y="45.0679"/><text fill="#000000" font-family="sans-serif" font-size="20" lengthAdjust="spacing" textLength="54" x="480" y="73.4479">Route</text><rect fill="#E2E2F0" height="41.24" rx="2.5" ry="2.5" style="stroke:#181818;stroke-width:0.5;" width="68" x="473" y="483.4677"/><text fill="#000000" font-family="sans-serif" font-size="20" lengthAdjust="spacing" textLength="54" x="480" y="511.8476">Route</text><rect fill="#E2E2F0" height="41.24" rx="2.5" ry="2.5" style="stroke:#181818;stroke-width:0.5;" width="107" x="626.5" y="45.0679"/><text fill="#000000" font-family="sans-serif" font-size="20" lengthAdjust="spacing" textLength="93" x="633.5" y="73.4479">Controller</text><rect fill="#E2E2F0" height="41.24" rx="2.5" ry="2.5" style="stroke:#181818;stroke-width:0.5;" width="107" x="626.5" y="483.4677"/><text fill="#000000" font-family="sans-serif" font-size="20" lengthAdjust="spacing" textLength="93" x="633.5" y="511.8476">Controller</text><rect fill="#E2E2F0" height="41.24" rx="2.5" ry="2.5" style="stroke:#181818;stroke-width:0.5;" width="80" x="794" y="45.0679"/><text fill="#000000" font-family="sans-serif" font-size="20" lengthAdjust="spacing" textLength="66" x="801" y="73.4479">Service</text><rect fill="#E2E2F0" height="41.24" rx="2.5" ry="2.5" style="stroke:#181818;stroke-width:0.5;" width="80" x="794" y="483.4677"/><text fill="#000000" font-family="sans-serif" font-size="20" lengthAdjust="spacing" textLength="66" x="801" y="511.8476">Service</text><rect fill="#E2E2F0" height="41.24" rx="2.5" ry="2.5" style="stroke:#181818;stroke-width:0.5;" width="120" x="950" y="45.0679"/><text fill="#000000" font-family="sans-serif" font-size="20" lengthAdjust="spacing" textLength="106" x="957" y="73.4479">Repositorio</text><rect fill="#E2E2F0" height="41.24" rx="2.5" ry="2.5" style="stroke:#181818;stroke-width:0.5;" width="120" x="950" y="483.4677"/><text fill="#000000" font-family="sans-serif" font-size="20" lengthAdjust="spacing" textLength="106" x="957" y="511.8476">Repositorio</text><rect fill="#FFFFFF" height="344.9198" style="stroke:#181818;stroke-width:1.0;" width="10" x="502" y="130.5479"/><rect fill="#FFFFFF" height="303.6798" style="stroke:#181818;stroke-width:1.0;" width="10" x="675" y="171.7878"/><rect fill="#FFFFFF" height="262.4398" style="stroke:#181818;stroke-width:1.0;" width="10" x="829" y="213.0278"/><rect fill="#FFFFFF" height="179.9599" style="stroke:#181818;stroke-width:1.0;" width="10" x="1005" y="295.5078"/><polygon fill="#181818" points="490,126.5479,500,130.5479,490,134.5479,494,130.5479" style="stroke:#181818;stroke-width:1.0;"/><line style="stroke:#181818;stroke-width:1.0;" x1="0" x2="496" y1="130.5479" y2="130.5479"/><text fill="#000000" font-family="sans-serif" font-size="20" lengthAdjust="spacing" textLength="483" x="7" y="122.6879">post(api/buildings/:buildingId/floors/:floorId/rooms)</text><polygon fill="#181818" points="663,167.7878,673,171.7878,663,175.7878,667,171.7878" style="stroke:#181818;stroke-width:1.0;"/><line style="stroke:#181818;stroke-width:1.0;" x1="512" x2="669" y1="171.7878" y2="171.7878"/><text fill="#000000" font-family="sans-serif" font-size="20" lengthAdjust="spacing" textLength="125" x="519" y="163.9278">createRoom()</text><polygon fill="#181818" points="817,209.0278,827,213.0278,817,217.0278,821,213.0278" style="stroke:#181818;stroke-width:1.0;"/><line style="stroke:#181818;stroke-width:1.0;" x1="685" x2="823" y1="213.0278" y2="213.0278"/><text fill="#000000" font-family="sans-serif" font-size="20" lengthAdjust="spacing" textLength="125" x="692" y="205.1678">createRoom()</text><polygon fill="#181818" points="817,250.2678,827,254.2678,817,258.2678,821,254.2678" style="stroke:#181818;stroke-width:1.0;"/><line style="stroke:#181818;stroke-width:1.0;" x1="685" x2="823" y1="254.2678" y2="254.2678"/><text fill="#000000" font-family="sans-serif" font-size="20" lengthAdjust="spacing" textLength="93" x="692" y="246.4078">roomDTO</text><polygon fill="#181818" points="993,291.5078,1003,295.5078,993,299.5078,997,295.5078" style="stroke:#181818;stroke-width:1.0;"/><line style="stroke:#181818;stroke-width:1.0;" x1="839" x2="999" y1="295.5078" y2="295.5078"/><text fill="#000000" font-family="sans-serif" font-size="20" lengthAdjust="spacing" textLength="147" x="846" y="287.6478">save(roomDTO)</text><polygon fill="#181818" points="696,332.7477,686,336.7477,696,340.7477,692,336.7477" style="stroke:#181818;stroke-width:1.0;"/><line style="stroke:#181818;stroke-width:1.0;stroke-dasharray:2.0,2.0;" x1="690" x2="828" y1="336.7477" y2="336.7477"/><text fill="#000000" font-family="sans-serif" font-size="20" lengthAdjust="spacing" textLength="93" x="702" y="328.8877">DTOroom</text><polygon fill="#181818" points="523,373.9877,513,377.9877,523,381.9877,519,377.9877" style="stroke:#181818;stroke-width:1.0;"/><line style="stroke:#181818;stroke-width:1.0;stroke-dasharray:2.0,2.0;" x1="517" x2="674" y1="377.9877" y2="377.9877"/><text fill="#000000" font-family="sans-serif" font-size="20" lengthAdjust="spacing" textLength="139" x="529" y="370.1277">Resposta HTTP</text><polygon fill="#181818" points="11,415.2277,1,419.2277,11,423.2277,7,419.2277" style="stroke:#181818;stroke-width:1.0;"/><line style="stroke:#181818;stroke-width:1.0;stroke-dasharray:2.0,2.0;" x1="5" x2="501" y1="419.2277" y2="419.2277"/><text fill="#000000" font-family="sans-serif" font-size="20" lengthAdjust="spacing" textLength="139" x="17" y="411.3677">Resposta HTTP</text><path d="M844,432.2277 L844,469.2277 L1536,469.2277 L1536,442.2277 L1526,432.2277 L844,432.2277 " fill="#FEFFDD" style="stroke:#181818;stroke-width:0.5;"/><path d="M1526,432.2277 L1526,442.2277 L1536,442.2277 L1526,432.2277 " fill="#FEFFDD" style="stroke:#181818;stroke-width:0.5;"/><text fill="#000000" font-family="sans-serif" font-size="20" lengthAdjust="spacing" textLength="671" x="850" y="458.6077">O DTO não está representado por questões de simplicidade (Ver US150).</text><!--SRC=[TL9DJm8n4BttLqmuBOSLq7WXnWl6w0d3WlUw7N12wQnjbuF_ndZsw2_WZpbbmLr8E7K-tdiphsrOawkqrnlBvHeD65pgsiP7Th6WJuJheOeKBSAYk1aD8OU99-qXQAi52nK5JYSQMkv-IcAbH2rIIPLs4NephYFsG0VOHwVDYGpnR2twFQ9DJs45-YsLZSeXFXk25GUAx8cRKMsk5EJtpMmOWvHZfYiQlDLa3RbL68oFuRCPB2spbzB-bDmpRq9VwJBILej0Ow4H4zLsNv4kFGfa9eoim-XOwg25U_1naNZqUOcLLdkOJzMnaaoshWKGz1Qp0wfheNCr_znpBq99pCxml7E9Cmpf7ZKypUSlwYxFBtIKOwbwMhr7uEM_escI1xVxPi0GTr_WiV8Oq4LjM5x8mqUT6hyOqiSAjAcilBJHacIlij-Y6DqE-rSAdO4quWy0]--></g></svg>