<?xml version="1.0" encoding="UTF-8" standalone="no"?><svg xmlns="http://www.w3.org/2000/svg" xmlns:xlink="http://www.w3.org/1999/xlink" contentStyleType="text/css" height="613px" preserveAspectRatio="none" style="width:1606px;height:613px;background:#FFFFFF;" version="1.1" viewBox="0 0 1606 613" width="1606px" zoomAndPan="magnify"><defs/><g><text fill="#000000" font-family="sans-serif" font-size="14" font-weight="bold" lengthAdjust="spacing" textLength="284" x="659.5" y="29.9659">US350 - Adicionar um novo tipo de robot</text><rect fill="#FFFFFF" height="427.3997" style="stroke:#181818;stroke-width:1.0;" width="10" x="202" y="130.5479"/><rect fill="#FFFFFF" height="386.1598" style="stroke:#181818;stroke-width:1.0;" width="10" x="400" y="171.7878"/><rect fill="#FFFFFF" height="344.9198" style="stroke:#181818;stroke-width:1.0;" width="10" x="598" y="213.0278"/><rect fill="#FFFFFF" height="179.9599" style="stroke:#181818;stroke-width:1.0;" width="10" x="798" y="377.9877"/><rect fill="#FFFFFF" height="303.6798" style="stroke:#181818;stroke-width:1.0;" width="10" x="896" y="254.2678"/><line style="stroke:#181818;stroke-width:0.5;stroke-dasharray:5.0,5.0;" x1="207" x2="207" y1="87.3079" y2="566.9476"/><line style="stroke:#181818;stroke-width:0.5;stroke-dasharray:5.0,5.0;" x1="404.5" x2="404.5" y1="87.3079" y2="566.9476"/><line style="stroke:#181818;stroke-width:0.5;stroke-dasharray:5.0,5.0;" x1="603" x2="603" y1="87.3079" y2="566.9476"/><line style="stroke:#181818;stroke-width:0.5;stroke-dasharray:5.0,5.0;" x1="803" x2="803" y1="87.3079" y2="566.9476"/><line style="stroke:#181818;stroke-width:0.5;stroke-dasharray:5.0,5.0;" x1="901" x2="901" y1="87.3079" y2="566.9476"/><rect fill="#E2E2F0" height="41.24" rx="2.5" ry="2.5" style="stroke:#181818;stroke-width:0.5;" width="68" x="173" y="45.0679"/><text fill="#000000" font-family="sans-serif" font-size="20" lengthAdjust="spacing" textLength="54" x="180" y="73.4479">Route</text><rect fill="#E2E2F0" height="41.24" rx="2.5" ry="2.5" style="stroke:#181818;stroke-width:0.5;" width="68" x="173" y="565.9476"/><text fill="#000000" font-family="sans-serif" font-size="20" lengthAdjust="spacing" textLength="54" x="180" y="594.3276">Route</text><rect fill="#E2E2F0" height="41.24" rx="2.5" ry="2.5" style="stroke:#181818;stroke-width:0.5;" width="107" x="351.5" y="45.0679"/><text fill="#000000" font-family="sans-serif" font-size="20" lengthAdjust="spacing" textLength="93" x="358.5" y="73.4479">Controller</text><rect fill="#E2E2F0" height="41.24" rx="2.5" ry="2.5" style="stroke:#181818;stroke-width:0.5;" width="107" x="351.5" y="565.9476"/><text fill="#000000" font-family="sans-serif" font-size="20" lengthAdjust="spacing" textLength="93" x="358.5" y="594.3276">Controller</text><rect fill="#E2E2F0" height="41.24" rx="2.5" ry="2.5" style="stroke:#181818;stroke-width:0.5;" width="80" x="563" y="45.0679"/><text fill="#000000" font-family="sans-serif" font-size="20" lengthAdjust="spacing" textLength="66" x="570" y="73.4479">Service</text><rect fill="#E2E2F0" height="41.24" rx="2.5" ry="2.5" style="stroke:#181818;stroke-width:0.5;" width="80" x="563" y="565.9476"/><text fill="#000000" font-family="sans-serif" font-size="20" lengthAdjust="spacing" textLength="66" x="570" y="594.3276">Service</text><rect fill="#E2E2F0" height="41.24" rx="2.5" ry="2.5" style="stroke:#181818;stroke-width:0.5;" width="120" x="743" y="45.0679"/><text fill="#000000" font-family="sans-serif" font-size="20" lengthAdjust="spacing" textLength="106" x="750" y="73.4479">Repositorio</text><rect fill="#E2E2F0" height="41.24" rx="2.5" ry="2.5" style="stroke:#181818;stroke-width:0.5;" width="120" x="743" y="565.9476"/><text fill="#000000" font-family="sans-serif" font-size="20" lengthAdjust="spacing" textLength="106" x="750" y="594.3276">Repositorio</text><rect fill="#E2E2F0" height="41.24" rx="2.5" ry="2.5" style="stroke:#181818;stroke-width:0.5;" width="56" x="873" y="45.0679"/><text fill="#000000" font-family="sans-serif" font-size="20" lengthAdjust="spacing" textLength="42" x="880" y="73.4479">DTO</text><rect fill="#E2E2F0" height="41.24" rx="2.5" ry="2.5" style="stroke:#181818;stroke-width:0.5;" width="56" x="873" y="565.9476"/><text fill="#000000" font-family="sans-serif" font-size="20" lengthAdjust="spacing" textLength="42" x="880" y="594.3276">DTO</text><rect fill="#FFFFFF" height="427.3997" style="stroke:#181818;stroke-width:1.0;" width="10" x="202" y="130.5479"/><rect fill="#FFFFFF" height="386.1598" style="stroke:#181818;stroke-width:1.0;" width="10" x="400" y="171.7878"/><rect fill="#FFFFFF" height="344.9198" style="stroke:#181818;stroke-width:1.0;" width="10" x="598" y="213.0278"/><rect fill="#FFFFFF" height="179.9599" style="stroke:#181818;stroke-width:1.0;" width="10" x="798" y="377.9877"/><rect fill="#FFFFFF" height="303.6798" style="stroke:#181818;stroke-width:1.0;" width="10" x="896" y="254.2678"/><polygon fill="#181818" points="190,126.5479,200,130.5479,190,134.5479,194,130.5479" style="stroke:#181818;stroke-width:1.0;"/><line style="stroke:#181818;stroke-width:1.0;" x1="0" x2="196" y1="130.5479" y2="130.5479"/><text fill="#000000" font-family="sans-serif" font-size="20" lengthAdjust="spacing" textLength="183" x="7" y="122.6879">post(api/robotType)</text><polygon fill="#181818" points="388,167.7878,398,171.7878,388,175.7878,392,171.7878" style="stroke:#181818;stroke-width:1.0;"/><line style="stroke:#181818;stroke-width:1.0;" x1="212" x2="394" y1="171.7878" y2="171.7878"/><text fill="#000000" font-family="sans-serif" font-size="20" lengthAdjust="spacing" textLength="169" x="219" y="163.9278">createRobotType()</text><polygon fill="#181818" points="586,209.0278,596,213.0278,586,217.0278,590,213.0278" style="stroke:#181818;stroke-width:1.0;"/><line style="stroke:#181818;stroke-width:1.0;" x1="410" x2="592" y1="213.0278" y2="213.0278"/><text fill="#000000" font-family="sans-serif" font-size="20" lengthAdjust="spacing" textLength="169" x="417" y="205.1678">createRobotType()</text><polygon fill="#181818" points="586,250.2678,596,254.2678,586,258.2678,590,254.2678" style="stroke:#181818;stroke-width:1.0;"/><line style="stroke:#181818;stroke-width:1.0;" x1="410" x2="592" y1="254.2678" y2="254.2678"/><text fill="#000000" font-family="sans-serif" font-size="20" lengthAdjust="spacing" textLength="137" x="417" y="246.4078">robotTypeDTO</text><polygon fill="#181818" points="884,291.5078,894,295.5078,884,299.5078,888,295.5078" style="stroke:#181818;stroke-width:1.0;"/><line style="stroke:#181818;stroke-width:1.0;" x1="608" x2="890" y1="295.5078" y2="295.5078"/><text fill="#000000" font-family="sans-serif" font-size="20" lengthAdjust="spacing" textLength="137" x="615" y="287.6478">robotTypeDTO</text><polygon fill="#181818" points="619,332.7477,609,336.7477,619,340.7477,615,336.7477" style="stroke:#181818;stroke-width:1.0;"/><line style="stroke:#181818;stroke-width:1.0;stroke-dasharray:2.0,2.0;" x1="613" x2="895" y1="336.7477" y2="336.7477"/><text fill="#000000" font-family="sans-serif" font-size="20" lengthAdjust="spacing" textLength="137" x="625" y="328.8877">DTOrobotType</text><polygon fill="#181818" points="786,373.9877,796,377.9877,786,381.9877,790,377.9877" style="stroke:#181818;stroke-width:1.0;"/><line style="stroke:#181818;stroke-width:1.0;" x1="608" x2="792" y1="377.9877" y2="377.9877"/><text fill="#000000" font-family="sans-serif" font-size="20" lengthAdjust="spacing" textLength="171" x="615" y="370.1277">save(DTObuilding)</text><polygon fill="#181818" points="421,415.2277,411,419.2277,421,423.2277,417,419.2277" style="stroke:#181818;stroke-width:1.0;"/><line style="stroke:#181818;stroke-width:1.0;stroke-dasharray:2.0,2.0;" x1="415" x2="597" y1="419.2277" y2="419.2277"/><text fill="#000000" font-family="sans-serif" font-size="20" lengthAdjust="spacing" textLength="152" x="427" y="411.3677">robotTypeResult</text><polygon fill="#181818" points="223,456.4677,213,460.4677,223,464.4677,219,460.4677" style="stroke:#181818;stroke-width:1.0;"/><line style="stroke:#181818;stroke-width:1.0;stroke-dasharray:2.0,2.0;" x1="217" x2="399" y1="460.4677" y2="460.4677"/><text fill="#000000" font-family="sans-serif" font-size="20" lengthAdjust="spacing" textLength="139" x="229" y="452.6077">Resposta HTTP</text><polygon fill="#181818" points="11,497.7076,1,501.7076,11,505.7076,7,501.7076" style="stroke:#181818;stroke-width:1.0;"/><line style="stroke:#181818;stroke-width:1.0;stroke-dasharray:2.0,2.0;" x1="5" x2="201" y1="501.7076" y2="501.7076"/><text fill="#000000" font-family="sans-serif" font-size="20" lengthAdjust="spacing" textLength="139" x="17" y="493.8476">Resposta HTTP</text><path d="M217,514.7076 L217,551.7076 L1599,551.7076 L1599,524.7076 L1589,514.7076 L217,514.7076 " fill="#FEFFDD" style="stroke:#181818;stroke-width:0.5;"/><path d="M1589,514.7076 L1589,524.7076 L1599,524.7076 L1589,514.7076 " fill="#FEFFDD" style="stroke:#181818;stroke-width:0.5;"/><text fill="#000000" font-family="sans-serif" font-size="20" lengthAdjust="spacing" textLength="1361" x="223" y="541.0876">Algumas situações não estão representado por questões de simplicidade, como por exemplo interfaces e conversões de json para dto e vice-versa.</text><!--SRC=[VPDBJiCm48RtFiMego8Hg41i44AgG8WTg2q7SEDfCKqymPv4m7LOS09Eq8inRjhKgLHMiMU-VvvEM5bNQQ_BWl8L6Z2uq7N13-HuQhyGBaQABHS8BzFBgn5aC3Osj-IqXxe4Hmq1suf41vxcn4f9D1QaqevXCA6QSG0wmERKTzv94az5WNv3xAzzR8g-iNaRPNi-I88L1SlaBRMfzlS-U3zxsW3oLIgxRMk2Qn2SXxgovviMPfyLdYYTissqkDl2MrGq-of5c7iKPB9J3HDPqaqYaG3R5lvNx_ey9kqAZQrqgdZPCOBBzH2DfgmNIImTaOgJ8GeLT8D3GUUrBOnrotG-oRGx_U6WkXGJ3FAyahwoP0_YZAlGy3YRFQkRB3lYKOx4wktobO4MsmsDYsLTodAbbbglVzQ_6C2jlmamSFnuh3m6TAmDoSOzlDVH4p5vlC6MLI4FnMY3fv1JsJBuWM8di8xHBtGkC8hNDUZ3JleMo47yXy2mP8CuWIm2-aoXCn2B_GC0]--></g></svg>