<?xml version="1.0" encoding="UTF-8" standalone="no"?><svg xmlns="http://www.w3.org/2000/svg" xmlns:xlink="http://www.w3.org/1999/xlink" contentStyleType="text/css" height="598px" preserveAspectRatio="none" style="width:1461px;height:598px;background:#FFFFFF;" version="1.1" viewBox="0 0 1461 598" width="1461px" zoomAndPan="magnify"><defs/><g><text fill="#000000" font-family="sans-serif" font-size="14" font-weight="bold" lengthAdjust="spacing" textLength="281" x="588.5" y="29.9659">US360 - Adicionar um novo robot à frota</text><rect fill="#FFFFFF" height="329.6798" style="stroke:#181818;stroke-width:1.0;" width="10" x="168" y="130.5479"/><rect fill="#FFFFFF" height="247.1999" style="stroke:#181818;stroke-width:1.0;" width="10" x="433" y="171.7878"/><rect fill="#FFFFFF" height="164.7199" style="stroke:#181818;stroke-width:1.0;" width="10" x="680" y="213.0278"/><rect fill="#FFFFFF" height="30" style="stroke:#181818;stroke-width:1.0;" width="10" x="1083" y="306.5078"/><line style="stroke:#181818;stroke-width:0.5;stroke-dasharray:5.0,5.0;" x1="173" x2="173" y1="87.3079" y2="552.7076"/><line style="stroke:#181818;stroke-width:0.5;stroke-dasharray:5.0,5.0;" x1="437.5" x2="437.5" y1="87.3079" y2="552.7076"/><line style="stroke:#181818;stroke-width:0.5;stroke-dasharray:5.0,5.0;" x1="685" x2="685" y1="87.3079" y2="552.7076"/><line style="stroke:#181818;stroke-width:0.5;stroke-dasharray:5.0,5.0;" x1="983" x2="983" y1="257.1478" y2="552.7076"/><line style="stroke:#181818;stroke-width:0.5;stroke-dasharray:5.0,5.0;" x1="1088" x2="1088" y1="87.3079" y2="552.7076"/><rect fill="#E2E2F0" height="41.24" rx="2.5" ry="2.5" style="stroke:#181818;stroke-width:0.5;" width="68" x="139" y="45.0679"/><text fill="#000000" font-family="sans-serif" font-size="20" lengthAdjust="spacing" textLength="54" x="146" y="73.4479">Route</text><rect fill="#E2E2F0" height="41.24" rx="2.5" ry="2.5" style="stroke:#181818;stroke-width:0.5;" width="68" x="139" y="551.7076"/><text fill="#000000" font-family="sans-serif" font-size="20" lengthAdjust="spacing" textLength="54" x="146" y="580.0876">Route</text><rect fill="#E2E2F0" height="41.24" rx="2.5" ry="2.5" style="stroke:#181818;stroke-width:0.5;" width="107" x="384.5" y="45.0679"/><text fill="#000000" font-family="sans-serif" font-size="20" lengthAdjust="spacing" textLength="93" x="391.5" y="73.4479">Controller</text><rect fill="#E2E2F0" height="41.24" rx="2.5" ry="2.5" style="stroke:#181818;stroke-width:0.5;" width="107" x="384.5" y="551.7076"/><text fill="#000000" font-family="sans-serif" font-size="20" lengthAdjust="spacing" textLength="93" x="391.5" y="580.0876">Controller</text><rect fill="#E2E2F0" height="41.24" rx="2.5" ry="2.5" style="stroke:#181818;stroke-width:0.5;" width="80" x="645" y="45.0679"/><text fill="#000000" font-family="sans-serif" font-size="20" lengthAdjust="spacing" textLength="66" x="652" y="73.4479">Service</text><rect fill="#E2E2F0" height="41.24" rx="2.5" ry="2.5" style="stroke:#181818;stroke-width:0.5;" width="80" x="645" y="551.7076"/><text fill="#000000" font-family="sans-serif" font-size="20" lengthAdjust="spacing" textLength="66" x="652" y="580.0876">Service</text><rect fill="#E2E2F0" height="41.24" rx="2.5" ry="2.5" style="stroke:#181818;stroke-width:0.5;" width="69" x="949" y="551.7076"/><text fill="#000000" font-family="sans-serif" font-size="20" lengthAdjust="spacing" textLength="55" x="956" y="580.0876">Robot</text><rect fill="#E2E2F0" height="41.24" rx="2.5" ry="2.5" style="stroke:#181818;stroke-width:0.5;" width="120" x="1028" y="45.0679"/><text fill="#000000" font-family="sans-serif" font-size="20" lengthAdjust="spacing" textLength="106" x="1035" y="73.4479">Repositorio</text><rect fill="#E2E2F0" height="41.24" rx="2.5" ry="2.5" style="stroke:#181818;stroke-width:0.5;" width="120" x="1028" y="551.7076"/><text fill="#000000" font-family="sans-serif" font-size="20" lengthAdjust="spacing" textLength="106" x="1035" y="580.0876">Repositorio</text><rect fill="#FFFFFF" height="329.6798" style="stroke:#181818;stroke-width:1.0;" width="10" x="168" y="130.5479"/><rect fill="#FFFFFF" height="247.1999" style="stroke:#181818;stroke-width:1.0;" width="10" x="433" y="171.7878"/><rect fill="#FFFFFF" height="164.7199" style="stroke:#181818;stroke-width:1.0;" width="10" x="680" y="213.0278"/><rect fill="#FFFFFF" height="30" style="stroke:#181818;stroke-width:1.0;" width="10" x="1083" y="306.5078"/><polygon fill="#181818" points="156,126.5479,166,130.5479,156,134.5479,160,130.5479" style="stroke:#181818;stroke-width:1.0;"/><line style="stroke:#181818;stroke-width:1.0;" x1="0" x2="162" y1="130.5479" y2="130.5479"/><text fill="#000000" font-family="sans-serif" font-size="20" lengthAdjust="spacing" textLength="149" x="7" y="122.6879">post(api/robots)</text><polygon fill="#181818" points="421,167.7878,431,171.7878,421,175.7878,425,171.7878" style="stroke:#181818;stroke-width:1.0;"/><line style="stroke:#181818;stroke-width:1.0;" x1="178" x2="427" y1="171.7878" y2="171.7878"/><text fill="#000000" font-family="sans-serif" font-size="20" lengthAdjust="spacing" textLength="236" x="185" y="163.9278">createRobot(req,res,next)</text><polygon fill="#181818" points="668,209.0278,678,213.0278,668,217.0278,672,213.0278" style="stroke:#181818;stroke-width:1.0;"/><line style="stroke:#181818;stroke-width:1.0;" x1="443" x2="674" y1="213.0278" y2="213.0278"/><text fill="#000000" font-family="sans-serif" font-size="20" lengthAdjust="spacing" textLength="218" x="450" y="205.1678">createRobot(robotDTO)</text><polygon fill="#181818" points="937,250.2678,947,254.2678,937,258.2678,941,254.2678" style="stroke:#181818;stroke-width:1.0;"/><line style="stroke:#181818;stroke-width:1.0;" x1="690" x2="943" y1="254.2678" y2="254.2678"/><text fill="#000000" font-family="sans-serif" font-size="20" lengthAdjust="spacing" textLength="235" x="697" y="246.4078">robot = create(robotDTO)</text><rect fill="#E2E2F0" height="41.24" rx="2.5" ry="2.5" style="stroke:#181818;stroke-width:0.5;" width="69" x="949" y="221.0278"/><text fill="#000000" font-family="sans-serif" font-size="20" lengthAdjust="spacing" textLength="55" x="956" y="249.4078">Robot</text><polygon fill="#181818" points="1071,302.5078,1081,306.5078,1071,310.5078,1075,306.5078" style="stroke:#181818;stroke-width:1.0;"/><line style="stroke:#181818;stroke-width:1.0;" x1="690" x2="1077" y1="306.5078" y2="306.5078"/><text fill="#000000" font-family="sans-serif" font-size="20" lengthAdjust="spacing" textLength="105" x="697" y="298.6478">save(robot)</text><polygon fill="#181818" points="454,373.7477,444,377.7477,454,381.7477,450,377.7477" style="stroke:#181818;stroke-width:1.0;"/><line style="stroke:#181818;stroke-width:1.0;stroke-dasharray:2.0,2.0;" x1="448" x2="684" y1="377.7477" y2="377.7477"/><text fill="#000000" font-family="sans-serif" font-size="20" lengthAdjust="spacing" textLength="93" x="460" y="369.8877">robotDTO</text><polygon fill="#181818" points="189,414.9877,179,418.9877,189,422.9877,185,418.9877" style="stroke:#181818;stroke-width:1.0;"/><line style="stroke:#181818;stroke-width:1.0;stroke-dasharray:2.0,2.0;" x1="183" x2="437" y1="418.9877" y2="418.9877"/><text fill="#000000" font-family="sans-serif" font-size="20" lengthAdjust="spacing" textLength="139" x="195" y="411.1277">Resposta HTTP</text><polygon fill="#181818" points="11,456.2277,1,460.2277,11,464.2277,7,460.2277" style="stroke:#181818;stroke-width:1.0;"/><line style="stroke:#181818;stroke-width:1.0;stroke-dasharray:2.0,2.0;" x1="5" x2="172" y1="460.2277" y2="460.2277"/><text fill="#000000" font-family="sans-serif" font-size="20" lengthAdjust="spacing" textLength="139" x="17" y="452.3677">Resposta HTTP</text><path d="M690,473.2277 L690,537.2277 L1454,537.2277 L1454,483.2277 L1444,473.2277 L690,473.2277 " fill="#FEFFDD" style="stroke:#181818;stroke-width:0.5;"/><path d="M1444,473.2277 L1444,483.2277 L1454,483.2277 L1444,473.2277 " fill="#FEFFDD" style="stroke:#181818;stroke-width:0.5;"/><text fill="#000000" font-family="sans-serif" font-size="20" lengthAdjust="spacing" textLength="707" x="696" y="499.6077">Algumas situações não estão representadas por forma a simplificar a leitura</text><text fill="#000000" font-family="sans-serif" font-size="20" lengthAdjust="spacing" textLength="743" x="696" y="526.8476">do diagrama, por exemplo interfaces e conversões de json para dto e vice-versa.</text><!--SRC=[XLFDRjGm4BxxAKOzbMe35PLwg4gb2eIuWRhR1vZ6ayLjuWdZILJnD4WS-WGymRuOav_Tk2iaBiau_lvc7AUd45iKR6ekdyY3fmgxMZzpr7NuIV3-t6dGck1-VN5v3WNS-b06ZYZGDH2vPn1-O8NTBwY45PqpEJLCYr7Xv8uxfHF016FrUlEZkGZNDSc8M9QlOMkIFfIJobmVcrY2sSIgeqrgEGLb2Jn1bhLpKDnCmU0AxBEUOXlUZGsbDmvB3JtQtXHzmXbXoMciKiWWe- -fq8-LK5f5UjQCdlMLKKreRkPOPNX-sdpD5FPTxmbZQaETdHbtcl-7MIEZv-YbQMCax6TStcGs5q___7mGF1x2tZCdxZClm28RzXsbOTu8NpQRRpaj6zPrKVmVFvsDYsorXErt1QuEthVrjclipAs13dSlkp-K8Ev-Cr3IuINKsdbHLFI6QbcWOcaGq1XDMuSgbFQZ8zHa0eBEC_Y0Mxikk1hXz4o6OmXHIIeiJP-WvDYJfD7D4pmcZZ3SCV1gpZ0aAmO0ldKKFGpH_m80]--></g></svg>