<?xml version="1.0" encoding="UTF-8" standalone="no"?><svg xmlns="http://www.w3.org/2000/svg" xmlns:xlink="http://www.w3.org/1999/xlink" contentStyleType="text/css" height="683px" preserveAspectRatio="none" style="width:1307px;height:683px;background:#FFFFFF;" version="1.1" viewBox="0 0 1307 683" width="1307px" zoomAndPan="magnify"><defs/><g><text fill="#000000" font-family="sans-serif" font-size="14" font-weight="bold" lengthAdjust="spacing" textLength="163" x="570.5" y="29.9659">US370 - Inibir um robot</text><rect fill="#FFFFFF" height="359.9198" style="stroke:#181818;stroke-width:1.0;" width="10" x="328" y="130.5479"/><rect fill="#FFFFFF" height="277.4398" style="stroke:#181818;stroke-width:1.0;" width="10" x="600" y="171.7878"/><rect fill="#FFFFFF" height="194.9599" style="stroke:#181818;stroke-width:1.0;" width="10" x="854" y="213.0278"/><rect fill="#FFFFFF" height="41.24" style="stroke:#181818;stroke-width:1.0;" width="10" x="1162" y="254.2678"/><rect fill="#FFFFFF" height="30" style="stroke:#181818;stroke-width:1.0;" width="10" x="1162" y="336.7477"/><line style="stroke:#181818;stroke-width:0.5;stroke-dasharray:5.0,5.0;" x1="333" x2="333" y1="87.3079" y2="637.4276"/><line style="stroke:#181818;stroke-width:0.5;stroke-dasharray:5.0,5.0;" x1="604.5" x2="604.5" y1="87.3079" y2="637.4276"/><line style="stroke:#181818;stroke-width:0.5;stroke-dasharray:5.0,5.0;" x1="859" x2="859" y1="87.3079" y2="637.4276"/><line style="stroke:#181818;stroke-width:0.5;stroke-dasharray:5.0,5.0;" x1="1167" x2="1167" y1="87.3079" y2="637.4276"/><rect fill="#E2E2F0" height="41.24" rx="2.5" ry="2.5" style="stroke:#181818;stroke-width:0.5;" width="68" x="299" y="45.0679"/><text fill="#000000" font-family="sans-serif" font-size="20" lengthAdjust="spacing" textLength="54" x="306" y="73.4479">Route</text><rect fill="#E2E2F0" height="41.24" rx="2.5" ry="2.5" style="stroke:#181818;stroke-width:0.5;" width="68" x="299" y="636.4276"/><text fill="#000000" font-family="sans-serif" font-size="20" lengthAdjust="spacing" textLength="54" x="306" y="664.8075">Route</text><rect fill="#E2E2F0" height="41.24" rx="2.5" ry="2.5" style="stroke:#181818;stroke-width:0.5;" width="107" x="551.5" y="45.0679"/><text fill="#000000" font-family="sans-serif" font-size="20" lengthAdjust="spacing" textLength="93" x="558.5" y="73.4479">Controller</text><rect fill="#E2E2F0" height="41.24" rx="2.5" ry="2.5" style="stroke:#181818;stroke-width:0.5;" width="107" x="551.5" y="636.4276"/><text fill="#000000" font-family="sans-serif" font-size="20" lengthAdjust="spacing" textLength="93" x="558.5" y="664.8075">Controller</text><rect fill="#E2E2F0" height="41.24" rx="2.5" ry="2.5" style="stroke:#181818;stroke-width:0.5;" width="80" x="819" y="45.0679"/><text fill="#000000" font-family="sans-serif" font-size="20" lengthAdjust="spacing" textLength="66" x="826" y="73.4479">Service</text><rect fill="#E2E2F0" height="41.24" rx="2.5" ry="2.5" style="stroke:#181818;stroke-width:0.5;" width="80" x="819" y="636.4276"/><text fill="#000000" font-family="sans-serif" font-size="20" lengthAdjust="spacing" textLength="66" x="826" y="664.8075">Service</text><rect fill="#E2E2F0" height="41.24" rx="2.5" ry="2.5" style="stroke:#181818;stroke-width:0.5;" width="120" x="1107" y="45.0679"/><text fill="#000000" font-family="sans-serif" font-size="20" lengthAdjust="spacing" textLength="106" x="1114" y="73.4479">Repositorio</text><rect fill="#E2E2F0" height="41.24" rx="2.5" ry="2.5" style="stroke:#181818;stroke-width:0.5;" width="120" x="1107" y="636.4276"/><text fill="#000000" font-family="sans-serif" font-size="20" lengthAdjust="spacing" textLength="106" x="1114" y="664.8075">Repositorio</text><rect fill="#FFFFFF" height="359.9198" style="stroke:#181818;stroke-width:1.0;" width="10" x="328" y="130.5479"/><rect fill="#FFFFFF" height="277.4398" style="stroke:#181818;stroke-width:1.0;" width="10" x="600" y="171.7878"/><rect fill="#FFFFFF" height="194.9599" style="stroke:#181818;stroke-width:1.0;" width="10" x="854" y="213.0278"/><rect fill="#FFFFFF" height="41.24" style="stroke:#181818;stroke-width:1.0;" width="10" x="1162" y="254.2678"/><rect fill="#FFFFFF" height="30" style="stroke:#181818;stroke-width:1.0;" width="10" x="1162" y="336.7477"/><polygon fill="#181818" points="316,126.5479,326,130.5479,316,134.5479,320,130.5479" style="stroke:#181818;stroke-width:1.0;"/><line style="stroke:#181818;stroke-width:1.0;" x1="0" x2="322" y1="130.5479" y2="130.5479"/><text fill="#000000" font-family="sans-serif" font-size="20" lengthAdjust="spacing" textLength="309" x="7" y="122.6879">patch(api/robots); put(api/robots)</text><polygon fill="#181818" points="588,167.7878,598,171.7878,588,175.7878,592,171.7878" style="stroke:#181818;stroke-width:1.0;"/><line style="stroke:#181818;stroke-width:1.0;" x1="338" x2="594" y1="171.7878" y2="171.7878"/><text fill="#000000" font-family="sans-serif" font-size="20" lengthAdjust="spacing" textLength="243" x="345" y="163.9278">updateRobot(req,res,next)</text><polygon fill="#181818" points="842,209.0278,852,213.0278,842,217.0278,846,213.0278" style="stroke:#181818;stroke-width:1.0;"/><line style="stroke:#181818;stroke-width:1.0;" x1="610" x2="848" y1="213.0278" y2="213.0278"/><text fill="#000000" font-family="sans-serif" font-size="20" lengthAdjust="spacing" textLength="225" x="617" y="205.1678">updateRobot(robotDTO)</text><polygon fill="#181818" points="1150,250.2678,1160,254.2678,1150,258.2678,1154,254.2678" style="stroke:#181818;stroke-width:1.0;"/><line style="stroke:#181818;stroke-width:1.0;" x1="864" x2="1156" y1="254.2678" y2="254.2678"/><text fill="#000000" font-family="sans-serif" font-size="20" lengthAdjust="spacing" textLength="279" x="871" y="246.4078">findByDomainId(robotDTO.id)</text><polygon fill="#181818" points="875,291.5078,865,295.5078,875,299.5078,871,295.5078" style="stroke:#181818;stroke-width:1.0;"/><line style="stroke:#181818;stroke-width:1.0;stroke-dasharray:2.0,2.0;" x1="869" x2="1166" y1="295.5078" y2="295.5078"/><text fill="#000000" font-family="sans-serif" font-size="20" lengthAdjust="spacing" textLength="51" x="881" y="287.6478">robot</text><polygon fill="#181818" points="1150,332.7477,1160,336.7477,1150,340.7477,1154,336.7477" style="stroke:#181818;stroke-width:1.0;"/><line style="stroke:#181818;stroke-width:1.0;" x1="864" x2="1156" y1="336.7477" y2="336.7477"/><text fill="#000000" font-family="sans-serif" font-size="20" lengthAdjust="spacing" textLength="105" x="871" y="328.8877">save(robot)</text><polygon fill="#181818" points="621,403.9877,611,407.9877,621,411.9877,617,407.9877" style="stroke:#181818;stroke-width:1.0;"/><line style="stroke:#181818;stroke-width:1.0;stroke-dasharray:2.0,2.0;" x1="615" x2="858" y1="407.9877" y2="407.9877"/><text fill="#000000" font-family="sans-serif" font-size="20" lengthAdjust="spacing" textLength="93" x="627" y="400.1277">robotDTO</text><polygon fill="#181818" points="349,445.2277,339,449.2277,349,453.2277,345,449.2277" style="stroke:#181818;stroke-width:1.0;"/><line style="stroke:#181818;stroke-width:1.0;stroke-dasharray:2.0,2.0;" x1="343" x2="604" y1="449.2277" y2="449.2277"/><text fill="#000000" font-family="sans-serif" font-size="20" lengthAdjust="spacing" textLength="139" x="355" y="441.3677">Resposta HTTP</text><polygon fill="#181818" points="11,486.4677,1,490.4677,11,494.4677,7,490.4677" style="stroke:#181818;stroke-width:1.0;"/><line style="stroke:#181818;stroke-width:1.0;stroke-dasharray:2.0,2.0;" x1="5" x2="332" y1="490.4677" y2="490.4677"/><text fill="#000000" font-family="sans-serif" font-size="20" lengthAdjust="spacing" textLength="139" x="17" y="482.6077">Resposta HTTP</text><path d="M864,503.4677 L864,621.4677 L1300,621.4677 L1300,513.4677 L1290,503.4677 L864,503.4677 " fill="#FEFFDD" style="stroke:#181818;stroke-width:0.5;"/><path d="M1290,503.4677 L1290,513.4677 L1300,513.4677 L1290,503.4677 " fill="#FEFFDD" style="stroke:#181818;stroke-width:0.5;"/><text fill="#000000" font-family="sans-serif" font-size="20" lengthAdjust="spacing" textLength="410" x="870" y="529.8476">Algumas situações não estão representadas</text><text fill="#000000" font-family="sans-serif" font-size="20" lengthAdjust="spacing" textLength="415" x="870" y="557.0876">por forma a simplificar a leiturado diagrama,</text><text fill="#000000" font-family="sans-serif" font-size="20" lengthAdjust="spacing" textLength="414" x="870" y="584.3276">por exemplo interfaces e conversões de json</text><text fill="#000000" font-family="sans-serif" font-size="20" lengthAdjust="spacing" textLength="196" x="875" y="611.5676">para dto e vice-versa.</text><!--SRC=[XLFDRjGm4BxxAKOz5MdJLd100eH4gH0zWNQN1vZ6a-tGn6FioQhmEXnu0fvWNun9qcsyAwfU4a_o_SmtjlCTXuW9krRgE_BWgS6-rKyITCM_25vUE6Lj2RwjNhs-W0gk0zzmWhw393UYpXbRkUQ8GU5aARtI2M26SNNuywE99cbRIYDYBWzXAqfRhYULX_MH2KN9h99O9gkvTWwgzvCtl868Mj-UOkJpiTVyuYt4NiiF3clbBHfwwdTYciJSdEdqqHjaEL1E4_rO9CgBGFTQq8im1TM47X8SgmpFg_MNGc4VTKyOSip1ZDzmy9S_hwH33jV-KUACVHcZc4L9hmvQcRREqtzfJpQGSKkJxHE6pmaUptKVeIJknp03gs97bvHDLn4-hzTVIren_tTLzJn-scuNnDQ9DxSAqZnwVsWtVMS7omBqkFkp-qiPmkwt06KTNecY7G4AYXwpYvAWaTGXe36ws7B3DIQhMZA1X5x0Csxiak5YHDCz6Ko0Wr9gi3PvWbh2bb8UpJp1zop1mN0rmQivmz1PDI3mp57mCBJ-3m00]--></g></svg>