<?xml version="1.0" encoding="UTF-8" standalone="no"?><svg xmlns="http://www.w3.org/2000/svg" xmlns:xlink="http://www.w3.org/1999/xlink" contentStyleType="text/css" height="612px" preserveAspectRatio="none" style="width:1040px;height:612px;background:#FFFFFF;" version="1.1" viewBox="0 0 1040 612" width="1040px" zoomAndPan="magnify"><defs/><g><text fill="#000000" font-family="sans-serif" font-size="14" font-weight="bold" lengthAdjust="spacing" textLength="296" x="370.5" y="29.9659">US380 - Consultar todos os robots da frota</text><rect fill="#FFFFFF" height="288.6798" style="stroke:#181818;stroke-width:1.0;" width="10" x="158" y="130.5479"/><rect fill="#FFFFFF" height="206.1999" style="stroke:#181818;stroke-width:1.0;" width="10" x="428" y="171.7878"/><rect fill="#FFFFFF" height="123.7199" style="stroke:#181818;stroke-width:1.0;" width="10" x="587" y="213.0278"/><rect fill="#FFFFFF" height="41.24" style="stroke:#181818;stroke-width:1.0;" width="10" x="746" y="254.2678"/><line style="stroke:#181818;stroke-width:0.5;stroke-dasharray:5.0,5.0;" x1="163" x2="163" y1="87.3079" y2="566.1876"/><line style="stroke:#181818;stroke-width:0.5;stroke-dasharray:5.0,5.0;" x1="432.5" x2="432.5" y1="87.3079" y2="566.1876"/><line style="stroke:#181818;stroke-width:0.5;stroke-dasharray:5.0,5.0;" x1="592" x2="592" y1="87.3079" y2="566.1876"/><line style="stroke:#181818;stroke-width:0.5;stroke-dasharray:5.0,5.0;" x1="751" x2="751" y1="87.3079" y2="566.1876"/><rect fill="#E2E2F0" height="41.24" rx="2.5" ry="2.5" style="stroke:#181818;stroke-width:0.5;" width="68" x="129" y="45.0679"/><text fill="#000000" font-family="sans-serif" font-size="20" lengthAdjust="spacing" textLength="54" x="136" y="73.4479">Route</text><rect fill="#E2E2F0" height="41.24" rx="2.5" ry="2.5" style="stroke:#181818;stroke-width:0.5;" width="68" x="129" y="565.1876"/><text fill="#000000" font-family="sans-serif" font-size="20" lengthAdjust="spacing" textLength="54" x="136" y="593.5676">Route</text><rect fill="#E2E2F0" height="41.24" rx="2.5" ry="2.5" style="stroke:#181818;stroke-width:0.5;" width="107" x="379.5" y="45.0679"/><text fill="#000000" font-family="sans-serif" font-size="20" lengthAdjust="spacing" textLength="93" x="386.5" y="73.4479">Controller</text><rect fill="#E2E2F0" height="41.24" rx="2.5" ry="2.5" style="stroke:#181818;stroke-width:0.5;" width="107" x="379.5" y="565.1876"/><text fill="#000000" font-family="sans-serif" font-size="20" lengthAdjust="spacing" textLength="93" x="386.5" y="593.5676">Controller</text><rect fill="#E2E2F0" height="41.24" rx="2.5" ry="2.5" style="stroke:#181818;stroke-width:0.5;" width="80" x="552" y="45.0679"/><text fill="#000000" font-family="sans-serif" font-size="20" lengthAdjust="spacing" textLength="66" x="559" y="73.4479">Service</text><rect fill="#E2E2F0" height="41.24" rx="2.5" ry="2.5" style="stroke:#181818;stroke-width:0.5;" width="80" x="552" y="565.1876"/><text fill="#000000" font-family="sans-serif" font-size="20" lengthAdjust="spacing" textLength="66" x="559" y="593.5676">Service</text><rect fill="#E2E2F0" height="41.24" rx="2.5" ry="2.5" style="stroke:#181818;stroke-width:0.5;" width="120" x="691" y="45.0679"/><text fill="#000000" font-family="sans-serif" font-size="20" lengthAdjust="spacing" textLength="106" x="698" y="73.4479">Repositorio</text><rect fill="#E2E2F0" height="41.24" rx="2.5" ry="2.5" style="stroke:#181818;stroke-width:0.5;" width="120" x="691" y="565.1876"/><text fill="#000000" font-family="sans-serif" font-size="20" lengthAdjust="spacing" textLength="106" x="698" y="593.5676">Repositorio</text><rect fill="#FFFFFF" height="288.6798" style="stroke:#181818;stroke-width:1.0;" width="10" x="158" y="130.5479"/><rect fill="#FFFFFF" height="206.1999" style="stroke:#181818;stroke-width:1.0;" width="10" x="428" y="171.7878"/><rect fill="#FFFFFF" height="123.7199" style="stroke:#181818;stroke-width:1.0;" width="10" x="587" y="213.0278"/><rect fill="#FFFFFF" height="41.24" style="stroke:#181818;stroke-width:1.0;" width="10" x="746" y="254.2678"/><polygon fill="#181818" points="146,126.5479,156,130.5479,146,134.5479,150,130.5479" style="stroke:#181818;stroke-width:1.0;"/><line style="stroke:#181818;stroke-width:1.0;" x1="0" x2="152" y1="130.5479" y2="130.5479"/><text fill="#000000" font-family="sans-serif" font-size="20" lengthAdjust="spacing" textLength="138" x="7" y="122.6879">get(api/robots)</text><polygon fill="#181818" points="416,167.7878,426,171.7878,416,175.7878,420,171.7878" style="stroke:#181818;stroke-width:1.0;"/><line style="stroke:#181818;stroke-width:1.0;" x1="168" x2="422" y1="171.7878" y2="171.7878"/><text fill="#000000" font-family="sans-serif" font-size="20" lengthAdjust="spacing" textLength="241" x="175" y="163.9278">getAllRobots(req,res,next)</text><polygon fill="#181818" points="575,209.0278,585,213.0278,575,217.0278,579,213.0278" style="stroke:#181818;stroke-width:1.0;"/><line style="stroke:#181818;stroke-width:1.0;" x1="438" x2="581" y1="213.0278" y2="213.0278"/><text fill="#000000" font-family="sans-serif" font-size="20" lengthAdjust="spacing" textLength="130" x="445" y="205.1678">getAllRobots()</text><polygon fill="#181818" points="734,250.2678,744,254.2678,734,258.2678,738,254.2678" style="stroke:#181818;stroke-width:1.0;"/><line style="stroke:#181818;stroke-width:1.0;" x1="597" x2="740" y1="254.2678" y2="254.2678"/><text fill="#000000" font-family="sans-serif" font-size="20" lengthAdjust="spacing" textLength="130" x="604" y="246.4078">getAllRobots()</text><polygon fill="#181818" points="608,291.5078,598,295.5078,608,299.5078,604,295.5078" style="stroke:#181818;stroke-width:1.0;"/><line style="stroke:#181818;stroke-width:1.0;stroke-dasharray:2.0,2.0;" x1="602" x2="750" y1="295.5078" y2="295.5078"/><text fill="#000000" font-family="sans-serif" font-size="20" lengthAdjust="spacing" textLength="61" x="614" y="287.6478">robots</text><polygon fill="#181818" points="449,332.7477,439,336.7477,449,340.7477,445,336.7477" style="stroke:#181818;stroke-width:1.0;"/><line style="stroke:#181818;stroke-width:1.0;stroke-dasharray:2.0,2.0;" x1="443" x2="591" y1="336.7477" y2="336.7477"/><text fill="#000000" font-family="sans-serif" font-size="20" lengthAdjust="spacing" textLength="103" x="455" y="328.8877">robotDTOs</text><polygon fill="#181818" points="179,373.9877,169,377.9877,179,381.9877,175,377.9877" style="stroke:#181818;stroke-width:1.0;"/><line style="stroke:#181818;stroke-width:1.0;stroke-dasharray:2.0,2.0;" x1="173" x2="432" y1="377.9877" y2="377.9877"/><text fill="#000000" font-family="sans-serif" font-size="20" lengthAdjust="spacing" textLength="139" x="185" y="370.1277">Resposta HTTP</text><polygon fill="#181818" points="11,415.2277,1,419.2277,11,423.2277,7,419.2277" style="stroke:#181818;stroke-width:1.0;"/><line style="stroke:#181818;stroke-width:1.0;stroke-dasharray:2.0,2.0;" x1="5" x2="162" y1="419.2277" y2="419.2277"/><text fill="#000000" font-family="sans-serif" font-size="20" lengthAdjust="spacing" textLength="139" x="17" y="411.3677">Resposta HTTP</text><path d="M597,432.2277 L597,550.2277 L1033,550.2277 L1033,442.2277 L1023,432.2277 L597,432.2277 " fill="#FEFFDD" style="stroke:#181818;stroke-width:0.5;"/><path d="M1023,432.2277 L1023,442.2277 L1033,442.2277 L1023,432.2277 " fill="#FEFFDD" style="stroke:#181818;stroke-width:0.5;"/><text fill="#000000" font-family="sans-serif" font-size="20" lengthAdjust="spacing" textLength="410" x="603" y="458.6077">Algumas situações não estão representadas</text><text fill="#000000" font-family="sans-serif" font-size="20" lengthAdjust="spacing" textLength="415" x="603" y="485.8476">por forma a simplificar a leiturado diagrama,</text><text fill="#000000" font-family="sans-serif" font-size="20" lengthAdjust="spacing" textLength="414" x="603" y="513.0876">por exemplo interfaces e conversões de json</text><text fill="#000000" font-family="sans-serif" font-size="20" lengthAdjust="spacing" textLength="196" x="608" y="540.3276">para dto e vice-versa.</text><!--SRC=[XLDTQXin47xNAOOyfU1jG_iIIYc4bjAt1Divm6GrwwYHDTlHs8HU9myvGKxWYsLs5MTb4nfOq0XzVwDPvRkGUXHSHsxlo8Ed3ZTHVt7IHVX7yFdCQT18SBtuSdu63VpWb0s00igUCzWdVCEQmIDqmehEcQ26DlIO54xcl54w0SmmLeU7fgR2CPACY6bx25kGR4DRL5xg8nFgEGTb2Loifhrpq7mltl0LLgIds8TF9VC7Xws6BTfH2LTWXf-I5D95ZFEHSYhqToQKPudkjU9NqIkkARtaFPQfgFkEziWXxfJ_FyIwovhH7DYMLfsdDtclfiTDZxIVoyi3vZxgX6ogovrJDc55-BrSNjMqwdA-DStx-38CbzXg2QjR1UvUlI_YQhEs6Li76zmzxfueGzezC53MOH7gRJwK53rcrxD0nx96G6Ei-nYwqDhVYn3910GzWm-uiYU0in5DzsGmXf2KfCFMv0bQJbkIF9fvWZ-PauFXuO1NSuOXMJCWyAEZv668_Wm0]--></g></svg>